<svg width="120" height="120" viewBox="0 0 120 120" fill="none" xmlns="http://www.w3.org/2000/svg">
<path d="M91.2009 13.2031H28.8009C27.3623 13.2426 25.9532 13.6201 24.6875 14.3051C23.4218 14.99 22.3351 15.9632 21.5151 17.146L5.91515 38.746C4.75678 40.3829 4.17827 42.3598 4.27144 44.363C4.36461 46.3661 5.12412 48.2808 6.42943 49.8031L53.2294 103.717C54.0306 104.75 55.0573 105.585 56.2309 106.16C57.4045 106.735 58.6941 107.034 60.0009 107.034C61.3077 107.034 62.5972 106.735 63.7708 106.16C64.9444 105.585 65.9711 104.75 66.7723 103.717L113.572 49.8031C114.878 48.2808 115.637 46.3661 115.73 44.363C115.823 42.3598 115.245 40.3829 114.087 38.746L98.4866 17.146C97.6667 15.9632 96.5799 14.99 95.3143 14.3051C94.0486 13.6201 92.6395 13.2426 91.2009 13.2031V13.2031Z" stroke="white" stroke-opacity="0.1" stroke-width="1.5" stroke-linecap="round" stroke-linejoin="round"/>
<path d="M55.5437 13.1172L34.6294 45.5172L60.0008 106.803" stroke="white" stroke-opacity="0.1" stroke-width="1.5" stroke-linecap="round" stroke-linejoin="round"/>
<path d="M64.7151 13.1172L85.5437 45.5172L60.0009 106.803" stroke="white" stroke-opacity="0.1" stroke-width="1.5" stroke-linecap="round" stroke-linejoin="round"/>
<path d="M4.45703 45.5156H115.543" stroke="white" stroke-opacity="0.1" stroke-width="1.5" stroke-linecap="round" stroke-linejoin="round"/>
</svg>
