<svg width="120" height="120" viewBox="0 0 120 120" fill="none" xmlns="http://www.w3.org/2000/svg">
<path d="M44.8285 19.2832L48.5142 9.76892C49.1358 8.15804 50.2294 6.77244 51.6518 5.79359C53.0742 4.81475 54.759 4.2883 56.4857 4.2832H63.5142C65.2409 4.2883 66.9257 4.81475 68.3481 5.79359C69.7705 6.77244 70.8641 8.15804 71.4857 9.76892L75.1714 19.2832L87.6857 26.4832L97.7999 24.9403C99.4841 24.7117 101.198 24.989 102.724 25.7368C104.251 26.4847 105.52 27.6694 106.371 29.1403L109.8 35.1403C110.679 36.6348 111.083 38.3605 110.961 40.0897C110.838 41.8189 110.195 43.4703 109.114 44.8261L102.857 52.7975V67.1975L109.286 75.1689C110.366 76.5247 111.01 78.1761 111.132 79.9053C111.255 81.6345 110.85 83.3602 109.971 84.8546L106.543 90.8546C105.691 92.3256 104.422 93.5103 102.896 94.2581C101.37 95.006 99.6555 95.2832 97.9714 95.0546L87.8571 93.5118L75.3428 100.712L71.6571 110.226C71.0355 111.837 69.9419 113.223 68.5195 114.201C67.0971 115.18 65.4123 115.707 63.6857 115.712H56.4857C54.759 115.707 53.0742 115.18 51.6518 114.201C50.2294 113.223 49.1358 111.837 48.5142 110.226L44.8285 100.712L32.3142 93.5118L22.1999 95.0546C20.5158 95.2832 18.8017 95.006 17.2755 94.2581C15.7493 93.5103 14.4799 92.3256 13.6285 90.8546L10.1999 84.8546C9.32138 83.3602 8.9166 81.6345 9.03903 79.9053C9.16145 78.1761 9.80532 76.5247 10.8857 75.1689L17.1428 67.1975V52.7975L10.7142 44.8261C9.63389 43.4703 8.99002 41.8189 8.8676 40.0897C8.74517 38.3605 9.14995 36.6348 10.0285 35.1403L13.4571 29.1403C14.3084 27.6694 15.5779 26.4847 17.1041 25.7368C18.6303 24.989 20.3444 24.7117 22.0285 24.9403L32.1428 26.4832L44.8285 19.2832ZM42.8571 59.9975C42.8571 63.388 43.8625 66.7024 45.7462 69.5215C47.6299 72.3407 50.3072 74.5379 53.4397 75.8354C56.5721 77.1329 60.019 77.4724 63.3444 76.811C66.6697 76.1495 69.7243 74.5168 72.1218 72.1193C74.5192 69.7218 76.1519 66.6673 76.8134 63.3419C77.4749 60.0165 77.1354 56.5696 75.8379 53.4372C74.5404 50.3048 72.3431 47.6274 69.524 45.7437C66.7049 43.86 63.3905 42.8546 59.9999 42.8546C55.4534 42.8546 51.093 44.6607 47.8781 47.8757C44.6632 51.0906 42.8571 55.4509 42.8571 59.9975V59.9975Z" stroke="white" stroke-opacity="0.1" stroke-width="1.5" stroke-linecap="round" stroke-linejoin="round"/>
</svg>
