<svg width="120" height="60" viewBox="0 0 120 60" fill="none" xmlns="http://www.w3.org/2000/svg">
<path d="M30.7275 60L29.96 59.9902C13.8969 59.5793 1.00018 46.3093 1 30C1 13.4315 14.3096 6.13754e-05 30.7275 0V60ZM60.4551 0C76.8729 0.000145637 90.1826 13.4316 90.1826 30C90.1824 46.5682 76.8728 59.9999 60.4551 60C44.0372 60 30.7277 46.5683 30.7275 30C30.7275 13.4315 44.0371 0 60.4551 0ZM90.1826 0C106.6 0.000216376 119.91 13.4316 119.91 30C119.91 46.3093 107.013 59.5792 90.9502 59.9902L90.1826 60V0Z" fill="#D9D9D9"/>
</svg>
