<svg width="120" height="60" viewBox="0 0 120 60" fill="none" xmlns="http://www.w3.org/2000/svg">
<g clip-path="url(#clip0_636_586)">
<path d="M60 30C60 46.5685 46.5685 60 30 60C13.4315 60 0 46.5685 0 30C0 13.4315 13.4315 0 30 0C46.5685 0 60 13.4315 60 30ZM60 60C76.5685 60 90 46.5685 90 30C90 13.4315 76.5685 0 60 0V60ZM90 60C106.568 60 120 46.5685 120 30C120 13.4315 106.568 0 90 0V60Z" fill="#D9D9D9"/>
</g>
<defs>
<clipPath id="clip0_636_586">
<rect width="120" height="60" fill="white"/>
</clipPath>
</defs>
</svg>
