<svg width="113" height="113" viewBox="0 0 113 113" fill="none" xmlns="http://www.w3.org/2000/svg">
<path d="M103.607 9.32031L74.3789 38.5489" stroke="white" stroke-opacity="0.1" stroke-width="1.5" stroke-linecap="round" stroke-linejoin="round"/>
<path d="M9.32031 9.32031L38.5489 38.5489" stroke="white" stroke-opacity="0.1" stroke-width="1.5" stroke-linecap="round" stroke-linejoin="round"/>
<path d="M9.32031 103.604L38.5489 74.375" stroke="white" stroke-opacity="0.1" stroke-width="1.5" stroke-linecap="round" stroke-linejoin="round"/>
<path d="M103.607 103.604L74.3789 74.375" stroke="white" stroke-opacity="0.1" stroke-width="1.5" stroke-linecap="round" stroke-linejoin="round"/>
<path d="M56.4643 112.179C87.2344 112.179 112.179 87.2344 112.179 56.4643C112.179 25.6941 87.2344 0.75 56.4643 0.75C25.6941 0.75 0.75 25.6941 0.75 56.4643C0.75 87.2344 25.6941 112.179 56.4643 112.179Z" stroke="white" stroke-opacity="0.1" stroke-width="1.5" stroke-linecap="round" stroke-linejoin="round"/>
<path d="M56.4654 81.7511C70.4303 81.7511 81.7511 70.4303 81.7511 56.4654C81.7511 42.5005 70.4303 31.1797 56.4654 31.1797C42.5005 31.1797 31.1797 42.5005 31.1797 56.4654C31.1797 70.4303 42.5005 81.7511 56.4654 81.7511Z" stroke="white" stroke-opacity="0.1" stroke-width="1.5" stroke-linecap="round" stroke-linejoin="round"/>
</svg>
