<svg width="167" height="40" viewBox="0 0 167 40" fill="none" xmlns="http://www.w3.org/2000/svg">
<path d="M48.9609 28.0291H60.9129V24.4291H53.2089V10.8691H48.9609V28.0291Z" fill="#0D0D0D"/>
<path d="M67.9934 25.6303C66.2894 25.6303 65.4014 24.1423 65.4014 21.9102C65.4014 19.6782 66.2894 18.1663 67.9934 18.1663C69.6974 18.1663 70.6094 19.6782 70.6094 21.9102C70.6094 24.1423 69.6974 25.6303 67.9934 25.6303ZM68.0174 28.4142C71.9774 28.4142 74.5694 25.6062 74.5694 21.9102C74.5694 18.2142 71.9774 15.4062 68.0174 15.4062C64.0814 15.4062 61.4414 18.2142 61.4414 21.9102C61.4414 25.6062 64.0814 28.4142 68.0174 28.4142Z" fill="#0D0D0D"/>
<path d="M81.4242 32.2769C83.2482 32.2769 84.8562 31.8689 85.9362 30.9089C86.9202 30.0209 87.5682 28.6769 87.5682 26.8289V15.7409H83.8242V17.0609H83.7762C83.0562 16.0289 81.9522 15.3809 80.3202 15.3809C77.2722 15.3809 75.1602 17.9249 75.1602 21.5249C75.1602 25.2929 77.7282 27.3569 80.4882 27.3569C81.9762 27.3569 82.9122 26.7569 83.6322 25.9409H83.7282V27.1649C83.7282 28.6529 83.0322 29.5169 81.3762 29.5169C80.0802 29.5169 79.4322 28.9649 79.2162 28.3169H75.4242C75.8082 30.8849 78.0402 32.2769 81.4242 32.2769ZM81.4002 24.4529C79.9362 24.4529 78.9762 23.2529 78.9762 21.4049C78.9762 19.5329 79.9362 18.3329 81.4002 18.3329C83.0322 18.3329 83.8962 19.7249 83.8962 21.3809C83.8962 23.1089 83.1042 24.4529 81.4002 24.4529Z" fill="#0D0D0D"/>
<path d="M95.2668 25.6303C93.5628 25.6303 92.6748 24.1423 92.6748 21.9102C92.6748 19.6782 93.5628 18.1663 95.2668 18.1663C96.9708 18.1663 97.8828 19.6782 97.8828 21.9102C97.8828 24.1423 96.9708 25.6303 95.2668 25.6303ZM95.2908 28.4142C99.2508 28.4142 101.842 25.6062 101.842 21.9102C101.842 18.2142 99.2508 15.4062 95.2908 15.4062C91.3548 15.4062 88.7148 18.2142 88.7148 21.9102C88.7148 25.6062 91.3548 28.4142 95.2908 28.4142Z" fill="#0D0D0D"/>
<path d="M102.984 28.0291H106.896V15.7411H102.984V28.0291ZM102.984 14.0371H106.896V10.8691H102.984V14.0371Z" fill="#0D0D0D"/>
<path d="M108.594 32.0849H112.506V26.7569H112.554C113.322 27.7889 114.45 28.4129 116.034 28.4129C119.25 28.4129 121.386 25.8689 121.386 21.8849C121.386 18.1889 119.394 15.3809 116.13 15.3809C114.45 15.3809 113.25 16.1249 112.41 17.2289H112.338V15.7409H108.594V32.0849ZM115.026 25.3889C113.346 25.3889 112.386 24.0209 112.386 22.0289C112.386 20.0369 113.25 18.5249 114.954 18.5249C116.634 18.5249 117.426 19.9169 117.426 22.0289C117.426 24.1169 116.514 25.3889 115.026 25.3889Z" fill="#0D0D0D"/>
<path d="M127.753 28.4129C130.969 28.4129 133.345 27.0209 133.345 24.3329C133.345 21.1889 130.801 20.6369 128.641 20.2769C127.081 19.9889 125.689 19.8689 125.689 19.0049C125.689 18.2369 126.433 17.8769 127.393 17.8769C128.473 17.8769 129.217 18.2129 129.361 19.3169H132.961C132.769 16.8929 130.897 15.3809 127.417 15.3809C124.513 15.3809 122.113 16.7249 122.113 19.3169C122.113 22.1969 124.393 22.7729 126.529 23.1329C128.161 23.4209 129.649 23.5409 129.649 24.6449C129.649 25.4369 128.905 25.8689 127.729 25.8689C126.433 25.8689 125.617 25.2689 125.473 24.0449H121.777C121.897 26.7569 124.153 28.4129 127.753 28.4129Z" fill="#0D0D0D"/>
<path d="M138.66 28.3902C140.364 28.3902 141.444 27.7182 142.332 26.5182H142.404V28.0302H146.148V15.7422H142.236V22.6062C142.236 24.0702 141.42 25.0782 140.076 25.0782C138.828 25.0782 138.228 24.3342 138.228 22.9902V15.7422H134.34V23.8062C134.34 26.5422 135.828 28.3902 138.66 28.3902Z" fill="#0D0D0D"/>
<path d="M147.852 28.0289H151.764V21.1409C151.764 19.6769 152.484 18.6449 153.708 18.6449C154.884 18.6449 155.436 19.4129 155.436 20.7329V28.0289H159.348V21.1409C159.348 19.6769 160.044 18.6449 161.292 18.6449C162.468 18.6449 163.02 19.4129 163.02 20.7329V28.0289H166.932V20.0369C166.932 17.2769 165.54 15.3809 162.756 15.3809C161.172 15.3809 159.852 16.0529 158.892 17.5409H158.844C158.22 16.2209 156.996 15.3809 155.388 15.3809C153.612 15.3809 152.436 16.2209 151.668 17.4929H151.596V15.7409H147.852V28.0289Z" fill="#0D0D0D"/>
<path d="M25.0925 1.05386L21.1595 0L17.8451 12.3696L14.8528 1.20224L10.9197 2.2561L14.1527 14.3216L6.10008 6.26898L3.22089 9.14817L12.0536 17.981L1.05386 15.0336L0 18.9666L12.0186 22.187C11.881 21.5935 11.8082 20.9751 11.8082 20.3397C11.8082 15.8421 15.4542 12.1961 19.9518 12.1961C24.4494 12.1961 28.0954 15.8421 28.0954 20.3397C28.0954 20.971 28.0235 21.5856 27.8876 22.1756L38.8103 25.1023L39.8641 21.1693L27.7977 17.9361L38.7982 14.9885L37.7443 11.0555L25.6784 14.2885L33.731 6.23592L30.8518 3.35673L22.1416 12.067L25.0925 1.05386Z" fill="#FED403"/>
<path d="M27.8775 22.2217C27.5403 23.6473 26.8284 24.928 25.8516 25.9541L33.7646 33.8672L36.6438 30.988L27.8775 22.2217Z" fill="#FED403"/>
<path d="M25.7717 26.0371C24.7831 27.0468 23.5338 27.8003 22.1328 28.1886L25.0122 38.9346L28.9452 37.8807L25.7717 26.0371Z" fill="#FED403"/>
<path d="M21.9859 28.2274C21.3359 28.3945 20.6546 28.4833 19.9525 28.4833C19.2003 28.4833 18.4719 28.3813 17.7804 28.1904L14.8984 38.9462L18.8314 40L21.9859 28.2274Z" fill="#FED403"/>
<path d="M17.6404 28.1511C16.2608 27.7435 15.0337 26.9804 14.0653 25.9678L6.13281 33.9003L9.012 36.7795L17.6404 28.1511Z" fill="#FED403"/>
<path d="M13.9999 25.8971C13.0481 24.8781 12.3548 23.6145 12.0248 22.2109L1.06641 25.1472L2.12026 29.0802L13.9999 25.8971Z" fill="#FED403"/>
</svg>
