<svg width="161" height="40" viewBox="0 0 161 40" fill="none" xmlns="http://www.w3.org/2000/svg">
<path d="M25.8965 20.0265C27.2104 18.9259 28.0459 17.2727 28.0459 15.4243C28.0459 13.576 27.2104 11.9228 25.8965 10.8222C26.0471 10.7493 26.192 10.6701 26.33 10.5843C27.2015 10.0422 28.2301 9.72919 29.3319 9.72919C32.4762 9.72919 35.0252 12.279 35.0252 15.4243C35.0252 18.5697 32.4762 21.1195 29.3319 21.1195C28.2301 21.1195 27.2015 20.8064 26.33 20.2644C26.192 20.1786 26.0471 20.0995 25.8965 20.0265Z" fill="#FED403"/>
<path d="M24.3156 16.321C24.9033 14.7106 24.8005 12.8611 23.8766 11.2603C22.9527 9.65959 21.4028 8.64581 19.7148 8.3498C19.8088 8.21135 19.8947 8.0703 19.9713 7.92696C20.4551 7.02164 21.1895 6.23603 22.1436 5.68498C24.8667 4.1123 28.3488 5.0456 29.9209 7.76955C31.493 10.4935 30.56 13.9766 27.8369 15.5493C26.8828 16.1003 25.8355 16.3437 24.8098 16.3102C24.6474 16.3049 24.4823 16.3089 24.3156 16.321Z" fill="#FED403"/>
<path d="M21.0936 13.9026C20.7976 12.2141 19.7842 10.6637 18.184 9.73951C16.5838 8.81532 14.7348 8.71258 13.125 9.30049C13.1372 9.1336 13.1411 8.96848 13.1357 8.80604C13.1023 7.78 13.3456 6.73234 13.8964 5.77788C15.4687 3.05393 18.9506 2.12064 21.6737 3.69331C24.3967 5.26598 25.3297 8.74909 23.7575 11.4731C23.2066 12.4275 22.4213 13.1621 21.5163 13.6461C21.373 13.7228 21.232 13.8086 21.0936 13.9026Z" fill="#FED403"/>
<path d="M17.0928 13.4198C15.9926 12.1055 14.3399 11.2697 12.4921 11.2697C10.6443 11.2697 8.99173 12.1055 7.89147 13.4198C7.81859 13.2692 7.73944 13.1242 7.65364 12.9861C7.11178 12.1143 6.79883 11.0854 6.79883 9.98325C6.79883 6.8379 9.34781 4.28809 12.4921 4.28809C15.6365 4.28809 18.1854 6.8379 18.1854 9.98325C18.1854 11.0854 17.8725 12.1143 17.3306 12.9861C17.2448 13.1242 17.1656 13.2692 17.0928 13.4198Z" fill="#FED403"/>
<path d="M13.3885 15.0017C11.7787 14.4138 9.92966 14.5165 8.32944 15.4406C6.72921 16.3648 5.71577 17.9153 5.41986 19.6038C5.28146 19.5098 5.14045 19.4239 4.99715 19.3473C4.09213 18.8633 3.30677 18.1286 2.7559 17.1742C1.18373 14.4502 2.11672 10.9672 4.83979 9.39446C7.56286 7.82177 11.0448 8.75507 12.617 11.479C13.1679 12.4335 13.4112 13.4812 13.3776 14.5072C13.3724 14.6696 13.3763 14.8347 13.3885 15.0017Z" fill="#FED403"/>
<path d="M10.9698 18.2248C9.28176 18.5208 7.73186 19.5346 6.80797 21.1354C5.88409 22.7361 5.78138 24.5857 6.36911 26.196C6.20226 26.1838 6.03716 26.1799 5.87475 26.1852C4.84907 26.2187 3.80175 25.9754 2.84761 25.4243C0.124537 23.8516 -0.808454 20.3685 0.763708 17.6445C2.33587 14.9206 5.81784 13.9873 8.5409 15.56C9.49504 16.1111 10.2294 16.8966 10.7132 17.8019C10.7898 17.9453 10.8758 18.0863 10.9698 18.2248Z" fill="#FED403"/>
<path d="M10.4861 22.2257C9.17225 23.3263 8.3367 24.9795 8.3367 26.8278C8.3367 28.6762 9.17225 30.3294 10.4861 31.43C10.3356 31.5028 10.1906 31.5821 10.0526 31.6679C9.18113 32.2099 8.15247 32.5229 7.05072 32.5229C3.9064 32.5229 1.35742 29.9732 1.35742 26.8278C1.35742 23.6824 3.9064 21.1326 7.05072 21.1326C8.15247 21.1326 9.18113 21.4457 10.0526 21.9878C10.1906 22.0736 10.3356 22.1527 10.4861 22.2257Z" fill="#FED403"/>
<path d="M12.0664 25.9322C11.4786 27.5425 11.5813 29.3921 12.5052 30.9929C13.4291 32.5937 14.979 33.6074 16.667 33.9034C16.573 34.0419 16.4872 34.183 16.4105 34.3263C15.9267 35.2316 15.1923 36.0172 14.2382 36.5682C11.5151 38.141 8.03314 37.2076 6.46098 34.4837C4.88881 31.7597 5.82181 28.2766 8.54487 26.7039C9.49902 26.1529 10.5464 25.9095 11.572 25.9431C11.7344 25.9483 11.8995 25.9444 12.0664 25.9322Z" fill="#FED403"/>
<path d="M15.289 28.3516C15.5849 30.0401 16.5983 31.5905 18.1985 32.5146C19.7987 33.4388 21.6478 33.5416 23.2576 32.9537C23.2454 33.1206 23.2415 33.2857 23.2468 33.4482C23.2803 34.4742 23.0371 35.5219 22.4862 36.4763C20.914 39.2003 17.432 40.1336 14.7089 38.5608C11.9858 36.9882 11.0529 33.5051 12.6251 30.7811C13.176 29.8267 13.9613 29.0921 14.8662 28.6081C15.0096 28.5315 15.1506 28.4455 15.289 28.3516Z" fill="#FED403"/>
<path d="M19.2879 28.8354C20.3882 30.1497 22.0408 30.9855 23.8886 30.9855C25.7364 30.9855 27.389 30.1497 28.4893 28.8354C28.5621 28.986 28.6413 29.1309 28.7271 29.2689C29.269 30.1407 29.5819 31.1698 29.5819 32.2719C29.5819 35.4173 27.033 37.967 23.8886 37.967C20.7443 37.967 18.1953 35.4173 18.1953 32.2719C18.1953 31.1698 18.5083 30.1407 19.0501 29.2689C19.136 29.1309 19.2151 28.986 19.2879 28.8354Z" fill="#FED403"/>
<path d="M22.9941 27.254C24.6039 27.8419 26.4529 27.7391 28.0531 26.815C29.6533 25.8908 30.6668 24.3404 30.9627 22.6519C31.1011 22.7458 31.2421 22.8318 31.3854 22.9084C32.2905 23.3924 33.0758 24.127 33.6267 25.0815C35.1989 27.8055 34.2658 31.2885 31.5428 32.8613C28.8197 34.4339 25.3378 33.5006 23.7656 30.7766C23.2147 29.8222 22.9714 28.7745 23.0049 27.7485C23.0102 27.5861 23.0063 27.4209 22.9941 27.254Z" fill="#FED403"/>
<path d="M29.5773 21.1143C29.5761 21.1163 29.575 21.1183 29.5738 21.1203C28.65 22.721 27.1001 23.7348 25.4121 24.0308C25.506 24.1694 25.5919 24.3104 25.6686 24.4537C26.1524 25.359 26.8868 26.1446 27.8409 26.6957C30.564 28.2684 34.0459 27.335 35.6181 24.6111C36.9659 22.2758 36.4725 19.3825 34.5884 17.6135C33.7606 19.6005 31.8399 21.0179 29.5773 21.1143Z" fill="#FED403"/>
<path d="M49.7313 10.359V27.3684H45.9629V10.359H49.7313ZM46.5603 27.3684L46.6292 24.0355H56.395V27.3684H46.5603ZM56.9848 21.599C56.9848 20.3884 57.2375 19.3311 57.743 18.427C58.2486 17.5075 58.9609 16.795 59.88 16.2893C60.7991 15.7836 61.8714 15.5307 63.097 15.5307C64.3225 15.5307 65.3871 15.7836 66.2909 16.2893C67.2101 16.795 67.9223 17.5075 68.4279 18.427C68.9334 19.3311 69.1861 20.3884 69.1861 21.599C69.1861 22.8096 68.9334 23.867 68.4279 24.7711C67.9223 25.6752 67.2101 26.38 66.2909 26.8857C65.3871 27.3914 64.3225 27.6442 63.097 27.6442C61.8714 27.6442 60.7991 27.3914 59.88 26.8857C58.9609 26.38 58.2486 25.6752 57.743 24.7711C57.2375 23.867 56.9848 22.8096 56.9848 21.599ZM60.5463 21.576C60.5463 22.1583 60.6536 22.6717 60.868 23.1161C61.0825 23.5452 61.3812 23.8822 61.7641 24.1275C62.1472 24.3573 62.5915 24.4722 63.097 24.4722C63.6025 24.4722 64.0467 24.3573 64.4297 24.1275C64.8126 23.8822 65.1037 23.5452 65.3029 23.1161C65.5173 22.6717 65.6246 22.1583 65.6246 21.576C65.6246 20.9937 65.5173 20.488 65.3029 20.059C65.1037 19.6299 64.8126 19.3004 64.4297 19.0705C64.0467 18.8254 63.6025 18.7027 63.097 18.7027C62.5915 18.7027 62.1472 18.8254 61.7641 19.0705C61.3812 19.3004 61.0825 19.6299 60.868 20.059C60.6536 20.488 60.5463 20.9937 60.5463 21.576ZM69.9853 21.4152C69.9853 20.2352 70.2226 19.2009 70.6975 18.312C71.1724 17.4233 71.8235 16.7337 72.6507 16.2433C73.4779 15.7376 74.4277 15.4847 75.5 15.4847C76.4038 15.4847 77.2004 15.6686 77.8897 16.0364C78.5944 16.4042 79.0692 16.887 79.3144 17.4845L78.9697 17.7144L79.2455 15.8756H82.4394V26.6329C82.4394 27.9814 82.1789 29.146 81.6582 30.1267C81.1373 31.1227 80.3944 31.889 79.4292 32.4253C78.4795 32.9616 77.3459 33.2298 76.0284 33.2298C74.9255 33.2298 73.9299 33.0076 73.0413 32.5632C72.1681 32.1341 71.4558 31.5212 70.9043 30.7243C70.3682 29.9275 70.0465 29.0081 69.9393 27.966H73.5239C73.5545 28.625 73.8149 29.1306 74.3051 29.4832C74.8106 29.8356 75.454 30.0118 76.2353 30.0118C77.1085 30.0118 77.7825 29.7666 78.2574 29.2762C78.7323 28.8012 78.9697 28.1653 78.9697 27.3684V24.9319L79.2914 25.2307C79.0463 25.8284 78.5714 26.3111 77.8668 26.6789C77.1621 27.0466 76.3502 27.2305 75.431 27.2305C74.374 27.2305 73.4319 26.9854 72.6047 26.495C71.7929 26.0046 71.1494 25.3228 70.6745 24.4493C70.215 23.5758 69.9853 22.5644 69.9853 21.4152ZM73.5698 21.3232C73.5698 21.8749 73.6847 22.3652 73.9145 22.7942C74.1443 23.2234 74.4506 23.5604 74.8337 23.8056C75.2166 24.0355 75.6378 24.1504 76.0975 24.1504C76.6489 24.1504 77.1314 24.0355 77.5451 23.8056C77.974 23.5604 78.3034 23.2234 78.5331 22.7942C78.7782 22.3652 78.9008 21.8749 78.9008 21.3232C78.9008 20.7562 78.7782 20.2735 78.5331 19.8751C78.288 19.4614 77.951 19.1395 77.5221 18.9097C77.1085 18.6798 76.6259 18.5649 76.0744 18.5649C75.6149 18.5649 75.1936 18.6798 74.8106 18.9097C74.4277 19.1395 74.1213 19.4614 73.8916 19.8751C73.677 20.2889 73.5698 20.7715 73.5698 21.3232ZM83.7006 21.599C83.7006 20.3884 83.9533 19.3311 84.4588 18.427C84.9644 17.5075 85.6766 16.795 86.5958 16.2893C87.5149 15.7836 88.5873 15.5307 89.8128 15.5307C91.0383 15.5307 92.1029 15.7836 93.0068 16.2893C93.9258 16.795 94.6381 17.5075 95.1437 18.427C95.6492 19.3311 95.9019 20.3884 95.9019 21.599C95.9019 22.8096 95.6492 23.867 95.1437 24.7711C94.6381 25.6752 93.9258 26.38 93.0068 26.8857C92.1029 27.3914 91.0383 27.6442 89.8128 27.6442C88.5873 27.6442 87.5149 27.3914 86.5958 26.8857C85.6766 26.38 84.9644 25.6752 84.4588 24.7711C83.9533 23.867 83.7006 22.8096 83.7006 21.599ZM87.2621 21.576C87.2621 22.1583 87.3694 22.6717 87.5838 23.1161C87.7983 23.5452 88.097 23.8822 88.48 24.1275C88.863 24.3573 89.3073 24.4722 89.8128 24.4722C90.3183 24.4722 90.7626 24.3573 91.1455 24.1275C91.5284 23.8822 91.8195 23.5452 92.0187 23.1161C92.2331 22.6717 92.3404 22.1583 92.3404 21.576C92.3404 20.9937 92.2331 20.488 92.0187 20.059C91.8195 19.6299 91.5284 19.3004 91.1455 19.0705C90.7626 18.8254 90.3183 18.7027 89.8128 18.7027C89.3073 18.7027 88.863 18.8254 88.48 19.0705C88.097 19.3004 87.7983 19.6299 87.5838 20.059C87.3694 20.488 87.2621 20.9937 87.2621 21.576ZM97.3904 27.3684V15.8756H100.952V27.3684H97.3904ZM99.1827 14.0826C98.6159 14.0826 98.1333 13.8911 97.735 13.508C97.3521 13.1096 97.1606 12.6269 97.1606 12.0599C97.1606 11.493 97.3521 11.0179 97.735 10.6347C98.1333 10.2517 98.6159 10.0602 99.1827 10.0602C99.7342 10.0602 100.201 10.2517 100.584 10.6347C100.983 11.0179 101.182 11.493 101.182 12.0599C101.182 12.6269 100.983 13.1096 100.584 13.508C100.201 13.8911 99.7342 14.0826 99.1827 14.0826ZM103.255 32.8851V15.8756H106.495L106.679 17.2777C107.001 16.7414 107.514 16.3123 108.218 15.9904C108.923 15.6686 109.682 15.5078 110.493 15.5078C111.565 15.5078 112.5 15.7453 113.296 16.2203C114.093 16.6954 114.721 17.3773 115.181 18.2661C115.64 19.1395 115.885 20.1969 115.917 21.4381C115.947 22.6486 115.747 23.7291 115.319 24.6791C114.89 25.6138 114.27 26.3494 113.457 26.8857C112.645 27.4221 111.665 27.6902 110.516 27.6902C109.72 27.6902 108.977 27.5523 108.287 27.2765C107.598 27.0006 107.085 26.6482 106.748 26.2192V32.8851H103.255ZM106.816 21.622C106.816 22.189 106.931 22.6946 107.162 23.1391C107.407 23.5681 107.736 23.9053 108.15 24.1504C108.578 24.3803 109.068 24.4952 109.62 24.4952C110.187 24.4952 110.67 24.3726 111.068 24.1275C111.481 23.8822 111.796 23.5452 112.009 23.1161C112.24 22.687 112.355 22.189 112.355 21.622C112.355 21.055 112.24 20.557 112.009 20.1279C111.796 19.6989 111.481 19.3617 111.068 19.1165C110.67 18.8714 110.187 18.7487 109.62 18.7487C109.068 18.7487 108.578 18.8714 108.15 19.1165C107.736 19.3464 107.407 19.6759 107.162 20.105C106.931 20.534 106.816 21.0397 106.816 21.622ZM116.523 23.7366H119.717C119.717 24.1351 119.847 24.4493 120.108 24.6791C120.384 24.909 120.781 25.0239 121.302 25.0239C121.608 25.0239 121.862 24.9856 122.061 24.909C122.276 24.8323 122.437 24.7251 122.543 24.5872C122.666 24.4339 122.727 24.2654 122.727 24.0815C122.727 23.8822 122.659 23.7137 122.521 23.5758C122.398 23.4379 122.183 23.3306 121.877 23.254L119.855 22.7253C118.721 22.4189 117.917 21.9667 117.442 21.3692C116.967 20.7715 116.73 20.0896 116.73 19.3234C116.73 18.5572 116.921 17.8906 117.305 17.3237C117.702 16.7414 118.239 16.297 118.912 15.9904C119.587 15.6686 120.345 15.5078 121.187 15.5078C122.459 15.5078 123.5 15.8602 124.313 16.5652C125.14 17.2546 125.577 18.1971 125.623 19.3923H122.428C122.444 18.9939 122.329 18.6798 122.084 18.4499C121.839 18.2047 121.517 18.0822 121.119 18.0822C120.767 18.0822 120.475 18.1741 120.246 18.358C120.031 18.5265 119.924 18.7641 119.924 19.0705C119.924 19.3617 120.031 19.5762 120.246 19.7142C120.46 19.8368 120.751 19.944 121.119 20.036L123.164 20.5417C124.114 20.7715 124.834 21.1623 125.324 21.7139C125.814 22.2656 126.058 22.9705 126.058 23.8286C126.058 25.0085 125.623 25.9433 124.749 26.6329C123.876 27.3224 122.743 27.6673 121.348 27.6673C119.909 27.6673 118.751 27.3072 117.879 26.587C117.02 25.8514 116.569 24.9013 116.523 23.7366ZM131.705 27.6673C130.357 27.6673 129.315 27.2458 128.58 26.4031C127.845 25.5602 127.477 24.4569 127.477 23.0931V15.8756H131.016V21.8059C131.016 22.8785 131.207 23.5987 131.59 23.9665C131.973 24.3343 132.479 24.5182 133.107 24.5182C133.919 24.5182 134.478 24.2883 134.784 23.8286C135.09 23.369 135.244 22.71 135.244 21.8518V15.8756H138.783V27.3684H135.451L135.221 26.0813C134.868 26.5562 134.371 26.9394 133.728 27.2305C133.084 27.5217 132.41 27.6673 131.705 27.6673ZM144.624 27.3684H141.062V15.8756H144.371L144.624 17.8523L144.234 17.4385C144.54 16.8562 145 16.3889 145.612 16.0364C146.24 15.6686 146.914 15.4847 147.635 15.4847C148.768 15.4847 149.656 15.7376 150.3 16.2433C150.959 16.749 151.433 17.4156 151.724 18.2431H151.172C151.357 17.4156 151.801 16.749 152.506 16.2433C153.211 15.7376 154.053 15.4847 155.033 15.4847C156.519 15.4847 157.615 15.8832 158.32 16.68C159.024 17.4769 159.376 18.5342 159.376 19.8521V27.3684H155.93V20.7256C155.93 20.0053 155.753 19.469 155.4 19.1165C155.064 18.7641 154.612 18.5879 154.045 18.5879C153.708 18.5879 153.386 18.6645 153.08 18.8177C152.774 18.9556 152.52 19.2084 152.321 19.5762C152.123 19.9288 152.023 20.4344 152.023 21.0933V27.3684H148.53V20.7256C148.53 20.0053 148.362 19.4766 148.025 19.1395C147.687 18.7871 147.236 18.6109 146.669 18.6109C146.332 18.6109 146.003 18.6875 145.681 18.8408C145.374 18.9786 145.122 19.2315 144.923 19.5993C144.724 19.9517 144.624 20.4497 144.624 21.0933V27.3684Z" fill="#0D0D0D"/>
</svg>
