<svg width="209" height="40" viewBox="0 0 209 40" fill="none" xmlns="http://www.w3.org/2000/svg">
<path d="M129.439 15.386H124.631V30.7983H129.439V15.386Z" fill="#0D0D0D"/>
<path d="M125.165 12.5003C125.667 13.0077 126.296 13.2614 127.05 13.2614C127.804 13.2614 128.422 13.0077 128.904 12.5003C129.387 11.9718 129.628 11.3375 129.628 10.5975C129.628 9.83642 129.387 9.20214 128.904 8.69476C128.422 8.18734 127.804 7.93365 127.05 7.93365C126.296 7.93365 125.667 8.18734 125.165 8.69476C124.682 9.20214 124.441 9.83642 124.441 10.5975C124.441 11.3375 124.682 11.9718 125.165 12.5003Z" fill="#0D0D0D"/>
<path d="M55.6426 30.7985V8.40942H60.5769V26.4222H70.4141V30.7985H55.6426Z" fill="#0D0D0D"/>
<path fill-rule="evenodd" clip-rule="evenodd" d="M79.2994 31.1472C77.728 31.1472 76.3033 30.7984 75.0251 30.1007C73.768 29.3819 72.7728 28.4094 72.0394 27.1831C71.3061 25.9569 70.9395 24.5827 70.9395 23.0605C70.9395 21.5383 71.3061 20.1747 72.0394 18.9696C72.7728 17.7645 73.768 16.8131 75.0251 16.1155C76.2823 15.3966 77.7071 15.0372 79.2994 15.0372C80.8918 15.0372 82.3166 15.3861 83.5737 16.0837C84.8309 16.7814 85.8262 17.7434 86.5594 18.9696C87.2928 20.1747 87.6595 21.5383 87.6595 23.0605C87.6595 24.5827 87.2928 25.9569 86.5594 27.1831C85.8262 28.4094 84.8309 29.3819 83.5737 30.1007C82.3166 30.7984 80.8918 31.1472 79.2994 31.1472ZM79.2994 26.7392C79.9909 26.7392 80.5985 26.5912 81.1224 26.2952C81.6461 25.9781 82.0442 25.5447 82.3166 24.995C82.6099 24.4242 82.7566 23.7793 82.7566 23.0605C82.7566 22.3417 82.6099 21.718 82.3166 21.1895C82.0232 20.6398 81.6147 20.217 81.0908 19.921C80.588 19.6038 79.9909 19.4453 79.2994 19.4453C78.629 19.4453 78.0319 19.6038 77.508 19.921C76.9842 20.217 76.5756 20.6398 76.2823 21.1895C75.9889 21.7392 75.8424 22.3734 75.8424 23.0922C75.8424 23.7899 75.9889 24.4242 76.2823 24.995C76.5756 25.5447 76.9842 25.9781 77.508 26.2952C78.0319 26.5912 78.629 26.7392 79.2994 26.7392Z" fill="#0D0D0D"/>
<path fill-rule="evenodd" clip-rule="evenodd" d="M91.4685 36.8237C92.7465 37.4156 94.2237 37.7116 95.9 37.7116C97.5342 37.7116 98.9904 37.3839 100.268 36.7285C101.547 36.0731 102.552 35.1641 103.286 34.0013C104.019 32.8385 104.386 31.4643 104.386 29.8786V15.386H99.6713V16.4215C99.3207 16.1237 98.9224 15.8737 98.4771 15.6714C97.6599 15.2697 96.7275 15.0688 95.6799 15.0688C94.2761 15.0688 93.0294 15.4071 91.9399 16.0836C90.8503 16.739 89.9913 17.6481 89.3627 18.8109C88.7341 19.9526 88.4199 21.2422 88.4199 22.6799C88.4199 24.0964 88.7341 25.386 89.3627 26.5488C89.9913 27.7116 90.8503 28.6313 91.9399 29.3078C93.0294 29.9843 94.2761 30.3226 95.6799 30.3226C96.7066 30.3226 97.6389 30.1218 98.4771 29.7201C98.883 29.5255 99.2497 29.2962 99.577 29.0321V30.0055C99.577 31.0837 99.2314 31.9188 98.5399 32.5108C97.8695 33.1028 96.9371 33.3987 95.7428 33.3987C94.779 33.3987 93.9514 33.2296 93.2599 32.8913C92.5895 32.5531 91.9817 32.0562 91.437 31.4008L88.4828 34.3818C89.216 35.4389 90.2113 36.2529 91.4685 36.8237ZM98.3199 25.5657C97.8379 25.8617 97.2618 26.0097 96.5913 26.0097C95.9209 26.0097 95.3342 25.8617 94.8313 25.5657C94.3494 25.2697 93.9723 24.868 93.6999 24.3606C93.4275 23.8321 93.2913 23.2718 93.2913 22.6799C93.2913 22.0456 93.4275 21.4748 93.6999 20.9674C93.9723 20.46 94.3599 20.0583 94.8627 19.7623C95.3656 19.4663 95.9418 19.3183 96.5913 19.3183C97.2618 19.3183 97.8379 19.4663 98.3199 19.7623C98.8228 20.0583 99.1998 20.46 99.4514 20.9674C99.7237 21.4748 99.8599 22.0456 99.8599 22.6799C99.8599 23.3141 99.7237 23.8849 99.4514 24.3923C99.1998 24.8786 98.8228 25.2697 98.3199 25.5657Z" fill="#0D0D0D"/>
<path fill-rule="evenodd" clip-rule="evenodd" d="M114.505 31.1472C112.933 31.1472 111.508 30.7984 110.231 30.1007C108.973 29.3819 107.978 28.4094 107.245 27.1831C106.511 25.9569 106.145 24.5827 106.145 23.0605C106.145 21.5383 106.511 20.1747 107.245 18.9696C107.978 17.7645 108.973 16.8131 110.231 16.1155C111.487 15.3966 112.912 15.0372 114.505 15.0372C116.097 15.0372 117.522 15.3861 118.778 16.0837C120.036 16.7814 121.031 17.7434 121.764 18.9696C122.498 20.1747 122.864 21.5383 122.864 23.0605C122.864 24.5827 122.498 25.9569 121.764 27.1831C121.031 28.4094 120.036 29.3819 118.778 30.1007C117.522 30.7984 116.097 31.1472 114.505 31.1472ZM114.505 26.7392C115.196 26.7392 115.803 26.5912 116.328 26.2952C116.851 25.9781 117.249 25.5447 117.522 24.995C117.815 24.4242 117.962 23.7793 117.962 23.0605C117.962 22.3417 117.815 21.718 117.522 21.1895C117.228 20.6398 116.82 20.217 116.296 19.921C115.793 19.6038 115.196 19.4453 114.505 19.4453C113.834 19.4453 113.236 19.6038 112.713 19.921C112.189 20.217 111.781 20.6398 111.487 21.1895C111.194 21.7392 111.047 22.3734 111.047 23.0922C111.047 23.7899 111.194 24.4242 111.487 24.995C111.781 25.5447 112.189 25.9781 112.713 26.2952C113.236 26.5912 113.834 26.7392 114.505 26.7392Z" fill="#0D0D0D"/>
<path fill-rule="evenodd" clip-rule="evenodd" d="M140.997 31.1154C139.971 31.1154 139.028 30.9146 138.168 30.5129C137.716 30.3015 137.308 30.0491 136.943 29.7557V37.2994H132.197V15.386H137.006V16.4497C137.355 16.1618 137.742 15.9129 138.168 15.7031C139.028 15.2802 139.971 15.0688 140.997 15.0688C142.443 15.0688 143.721 15.4177 144.831 16.1154C145.963 16.813 146.843 17.7644 147.471 18.9695C148.121 20.1746 148.445 21.5488 148.445 23.0921C148.445 24.6355 148.121 26.0097 147.471 27.2148C146.843 28.4199 145.963 29.3712 144.831 30.0689C143.721 30.7666 142.443 31.1154 140.997 31.1154ZM140.118 26.7391C140.808 26.7391 141.406 26.5805 141.909 26.2634C142.433 25.9463 142.841 25.5128 143.134 24.9632C143.428 24.4135 143.575 23.7898 143.575 23.0921C143.575 22.3733 143.428 21.7391 143.134 21.1894C142.841 20.6397 142.433 20.2169 141.909 19.9209C141.406 19.6037 140.819 19.4452 140.148 19.4452C139.479 19.4452 138.881 19.6037 138.358 19.9209C137.854 20.2169 137.457 20.6397 137.163 21.1894C136.87 21.7391 136.723 22.3733 136.723 23.0921C136.723 23.7898 136.859 24.4135 137.132 24.9632C137.425 25.5128 137.833 25.9463 138.358 26.2634C138.881 26.5805 139.468 26.7391 140.118 26.7391Z" fill="#0D0D0D"/>
<path d="M153.152 30.8303C154.032 31.0629 154.922 31.1791 155.823 31.1791C157.729 31.1791 159.238 30.7352 160.349 29.8472C161.48 28.9593 162.045 27.7648 162.045 26.2637C162.045 25.2912 161.868 24.5089 161.511 23.917C161.156 23.3039 160.695 22.8176 160.129 22.4582C159.563 22.0988 158.965 21.8133 158.337 21.6019C157.709 21.3905 157.111 21.2108 156.546 21.0628C155.98 20.9148 155.519 20.7457 155.163 20.5554C154.807 20.3651 154.628 20.1114 154.628 19.7943C154.628 19.4983 154.765 19.2763 155.037 19.1283C155.309 18.9592 155.718 18.8747 156.263 18.8747C156.829 18.8747 157.404 18.9909 157.991 19.2235C158.599 19.456 159.144 19.8578 159.625 20.4286L162.36 17.6379C161.669 16.7499 160.768 16.0839 159.657 15.64C158.568 15.1749 157.374 14.9423 156.074 14.9423C154.839 14.9423 153.759 15.1537 152.838 15.5765C151.915 15.9994 151.202 16.5808 150.7 17.3207C150.197 18.0395 149.946 18.8958 149.946 19.8895C149.946 20.8197 150.124 21.5914 150.48 22.2045C150.836 22.7964 151.298 23.2616 151.862 23.5998C152.428 23.9381 153.026 24.2024 153.654 24.3926C154.283 24.5829 154.88 24.7626 155.446 24.9318C156.011 25.0798 156.473 25.2595 156.829 25.4709C157.206 25.6612 157.394 25.9466 157.394 26.3271C157.394 26.6231 157.237 26.8556 156.923 27.0248C156.629 27.1939 156.2 27.2785 155.634 27.2785C154.817 27.2785 154.063 27.1305 153.372 26.8345C152.68 26.5174 152.082 26.084 151.58 25.5343L148.846 28.325C149.37 28.8958 149.998 29.4033 150.732 29.8472C151.486 30.27 152.293 30.5977 153.152 30.8303Z" fill="#0D0D0D"/>
<path d="M170.814 31.1471C169.41 31.1471 168.164 30.8617 167.074 30.2909C166.005 29.6989 165.168 28.8955 164.56 27.8807C163.952 26.8448 163.648 25.6609 163.648 24.3289V15.386H168.457V24.2655C168.457 24.794 168.54 25.2486 168.709 25.6291C168.897 26.0097 169.17 26.3057 169.525 26.5171C169.882 26.7285 170.311 26.8342 170.814 26.8342C171.526 26.8342 172.092 26.6122 172.511 26.1682C172.931 25.7031 173.14 25.0689 173.14 24.2655V15.386H177.948V24.2972C177.948 25.6503 177.645 26.8448 177.036 27.8807C176.429 28.8955 175.592 29.6989 174.522 30.2909C173.454 30.8617 172.218 31.1471 170.814 31.1471Z" fill="#0D0D0D"/>
<path d="M185.146 15.386H180.338V30.7983H185.146V21.7919C185.146 21.2634 185.251 20.8194 185.461 20.46C185.692 20.1006 185.996 19.8257 186.372 19.6355C186.75 19.424 187.179 19.3183 187.661 19.3183C188.352 19.3183 188.928 19.5403 189.389 19.9843C189.872 20.4071 190.113 21.0097 190.113 21.7919V30.7983H194.921V21.7919C194.921 21.2634 195.026 20.8194 195.235 20.46C195.466 20.1006 195.769 19.8257 196.147 19.6355C196.524 19.424 196.954 19.3183 197.435 19.3183C198.127 19.3183 198.703 19.5403 199.164 19.9843C199.645 20.4071 199.886 21.0097 199.886 21.7919V30.7983H204.696V21.2528C204.696 19.9632 204.423 18.8638 203.878 17.9547C203.354 17.0244 202.632 16.3162 201.71 15.83C200.809 15.3225 199.771 15.0688 198.598 15.0688C197.404 15.0688 196.324 15.3331 195.361 15.8617C194.735 16.1984 194.188 16.633 193.719 17.1654C193.282 16.6085 192.751 16.1528 192.123 15.7982C191.286 15.312 190.333 15.0688 189.264 15.0688C188.132 15.0688 187.117 15.312 186.216 15.7982C185.823 16.0005 185.468 16.2428 185.146 16.5251V15.386Z" fill="#0D0D0D"/>
<path d="M48.522 19.3909C48.522 14.2481 46.477 9.31594 42.8371 5.67945C39.1971 2.04296 34.2602 6.74394e-07 29.1125 0C23.9649 -6.74392e-07 19.028 2.04296 15.388 5.67945C11.748 9.31594 9.70312 14.2481 9.70312 19.3909H15.7687C17.7786 19.3909 19.3461 17.7081 20.0823 15.8396C20.5656 14.6129 21.2991 13.4855 22.2502 12.5351C24.0702 10.7169 26.5387 9.69543 29.1125 9.69543C31.6864 9.69543 34.1549 10.7169 35.9749 12.5351C37.7949 14.3534 38.8172 16.8195 38.8172 19.3909H48.522Z" fill="#FED403"/>
<path d="M37.3415 26.8115C38.3169 24.4589 38.819 21.9374 38.819 19.391H48.5227C48.5227 30.1003 39.8327 38.7818 29.1132 38.7818C27.4345 38.7818 25.8054 38.5689 24.252 38.1686C25.1309 37.9424 25.9949 37.6543 26.8372 37.3058C29.1921 36.3313 31.3317 34.903 33.1341 33.1024C34.9364 31.3018 36.3662 29.1641 37.3415 26.8115Z" fill="#FED403"/>
<path d="M0 19.3906C-3.6464e-07 21.9371 0.502039 24.4586 1.47745 26.8113C2.45287 29.1639 3.88255 31.3015 5.68489 33.1021C7.48722 34.9026 9.6269 36.331 11.9818 37.3055C14.3366 38.28 16.8605 38.7815 19.4094 38.7815C21.9583 38.7815 24.4822 38.28 26.8371 37.3055C29.1919 36.331 31.3316 34.9026 33.134 33.1021C34.9363 31.3015 36.3659 29.1639 37.3414 26.8113C38.3168 24.4586 38.8189 21.9371 38.8189 19.3906H32.7533C30.7434 19.3906 29.1759 21.0734 28.4397 22.9418C28.4188 22.995 28.3973 23.048 28.3754 23.101C27.8877 24.2772 27.1729 25.3461 26.2716 26.2464C25.3705 27.1466 24.3006 27.8609 23.1233 28.3481C21.9459 28.8354 20.6839 29.0861 19.4094 29.0861C18.135 29.0861 16.873 28.8354 15.6956 28.3481C14.5181 27.8609 13.4484 27.1466 12.5471 26.2464C11.646 25.3461 10.9311 24.2772 10.4434 23.101C9.95573 21.9246 9.70471 20.6639 9.70471 19.3906H0Z" fill="#FED403"/>
<path d="M0.00195312 19.3909C0.00195312 8.68155 8.69182 0 19.4113 0C21.0896 0 22.7182 0.212808 24.2716 0.612904C20.9385 1.47071 17.8638 3.20669 15.3886 5.67946C11.7486 9.31591 9.70372 14.2481 9.70372 19.3909H0.00195312Z" fill="#FED403"/>
</svg>
