<svg width="202" height="40" viewBox="0 0 202 40" fill="none" xmlns="http://www.w3.org/2000/svg">
<g clip-path="url(#clip0_607_2427)">
<path fill-rule="evenodd" clip-rule="evenodd" d="M25.5557 11.6853C23.9112 10.5865 21.9778 10 20 10V0C23.9556 0 27.8224 1.17298 31.1114 3.37061C34.4004 5.56823 36.9638 8.69181 38.4776 12.3463C39.9913 16.0008 40.3874 20.0222 39.6157 23.9018C38.844 27.7814 36.9392 31.3451 34.1421 34.1421C31.3451 36.9392 27.7814 38.844 23.9018 39.6157C20.0222 40.3874 16.0008 39.9913 12.3463 38.4776C8.6918 36.9638 5.56823 34.4004 3.37061 31.1114C1.17298 27.8224 0 23.9556 0 20H10C10 21.9778 10.5865 23.9112 11.6853 25.5557C12.7841 27.2002 14.3459 28.4819 16.1732 29.2388C18.0004 29.9957 20.0111 30.1937 21.9509 29.8078C23.8907 29.422 25.6725 28.4696 27.0711 27.0711C28.4696 25.6725 29.422 23.8907 29.8078 21.9509C30.1937 20.0111 29.9957 18.0004 29.2388 16.1732C28.4819 14.3459 27.2002 12.7841 25.5557 11.6853Z" fill="#FED403"/>
<path fill-rule="evenodd" clip-rule="evenodd" d="M9.99999 5.28493e-06C9.99999 1.31322 9.74134 2.61358 9.23879 3.82684C8.73624 5.04009 7.99965 6.14248 7.07106 7.07107C6.14248 7.99966 5.04009 8.73625 3.82683 9.2388C2.61357 9.74134 1.31321 10 4.3711e-07 10L0 20C2.62643 20 5.22715 19.4827 7.65367 18.4776C10.0802 17.4725 12.285 15.9993 14.1421 14.1421C15.9993 12.285 17.4725 10.0802 18.4776 7.65367C19.4827 5.22715 20 2.62643 20 0L9.99999 5.28493e-06Z" fill="#FED403"/>
<path d="M125.62 14.4531H120.768V29.8654H125.62V14.4531Z" fill="#0D0D0D"/>
<path d="M121.306 11.5666C121.813 12.074 122.447 12.3277 123.208 12.3277C123.969 12.3277 124.593 12.074 125.079 11.5666C125.566 11.0381 125.809 10.4038 125.809 9.66385C125.809 8.90277 125.566 8.26849 125.079 7.76111C124.593 7.25369 123.969 7 123.208 7C122.447 7 121.813 7.25369 121.306 7.76111C120.819 8.26849 120.576 8.90277 120.576 9.66385C120.576 10.4038 120.819 11.0381 121.306 11.5666Z" fill="#0D0D0D"/>
<path d="M51.1562 29.8657V7.47656H56.1352V25.4894H66.0613V29.8657H51.1562Z" fill="#0D0D0D"/>
<path fill-rule="evenodd" clip-rule="evenodd" d="M75.0273 30.2136C73.4417 30.2136 72.0041 29.8648 70.7144 29.1671C69.4459 28.4483 68.4417 27.4758 67.7017 26.2495C66.9618 25.0233 66.5918 23.6491 66.5918 22.1269C66.5918 20.6047 66.9618 19.2411 67.7017 18.036C68.4417 16.8309 69.4459 15.8795 70.7144 15.1819C71.9829 14.463 73.4206 14.1036 75.0273 14.1036C76.6341 14.1036 78.0717 14.4525 79.3402 15.1501C80.6087 15.8478 81.613 16.8098 82.3529 18.036C83.0929 19.2411 83.4629 20.6047 83.4629 22.1269C83.4629 23.6491 83.0929 25.0233 82.3529 26.2495C81.613 27.4758 80.6087 28.4483 79.3402 29.1671C78.0717 29.8648 76.6341 30.2136 75.0273 30.2136ZM75.0273 25.8056C75.725 25.8056 76.3381 25.6576 76.8667 25.3616C77.3952 25.0445 77.7969 24.6111 78.0717 24.0614C78.3677 23.4906 78.5157 22.8457 78.5157 22.1269C78.5157 21.4081 78.3677 20.7844 78.0717 20.2559C77.7757 19.7062 77.3635 19.2834 76.8349 18.9874C76.3275 18.6702 75.725 18.5117 75.0273 18.5117C74.3508 18.5117 73.7483 18.6702 73.2197 18.9874C72.6912 19.2834 72.2789 19.7062 71.9829 20.2559C71.6869 20.8056 71.539 21.4398 71.539 22.1586C71.539 22.8563 71.6869 23.4906 71.9829 24.0614C72.2789 24.6111 72.6912 25.0445 73.2197 25.3616C73.7483 25.6576 74.3508 25.8056 75.0273 25.8056Z" fill="#0D0D0D"/>
<path fill-rule="evenodd" clip-rule="evenodd" d="M87.3066 35.8897C88.5962 36.4816 90.0867 36.7776 91.7781 36.7776C93.4271 36.7776 94.8965 36.4499 96.1861 35.7945C97.4758 35.1391 98.4905 34.2301 99.2305 33.0673C99.9704 31.9045 100.341 30.5303 100.341 28.9446V14.452H95.5835V15.4875C95.2297 15.1897 94.8279 14.9397 94.3785 14.7374C93.5539 14.3357 92.6131 14.1348 91.5561 14.1348C90.1396 14.1348 88.8816 14.4731 87.7823 15.1496C86.6828 15.805 85.8161 16.7141 85.1818 17.8769C84.5475 19.0186 84.2305 20.3082 84.2305 21.7459C84.2305 23.1624 84.5475 24.452 85.1818 25.6148C85.8161 26.7776 86.6828 27.6973 87.7823 28.3738C88.8816 29.0503 90.1396 29.3886 91.5561 29.3886C92.592 29.3886 93.5328 29.1878 94.3785 28.7861C94.7881 28.5915 95.1581 28.3622 95.4884 28.0981V29.0715C95.4884 30.1497 95.1396 30.9848 94.4419 31.5768C93.7654 32.1688 92.8246 32.4647 91.6195 32.4647C90.647 32.4647 89.8119 32.2956 89.1142 31.9573C88.4377 31.6191 87.8245 31.1222 87.2748 30.4668L84.2939 33.4478C85.0338 34.5049 86.0381 35.3189 87.3066 35.8897ZM94.2199 24.6317C93.7336 24.9277 93.1523 25.0757 92.4757 25.0757C91.7992 25.0757 91.2072 24.9277 90.6998 24.6317C90.2135 24.3357 89.833 23.934 89.5582 23.4266C89.2833 22.8981 89.1459 22.3378 89.1459 21.7459C89.1459 21.1116 89.2833 20.5408 89.5582 20.0334C89.833 19.526 90.2241 19.1243 90.7315 18.8283C91.2389 18.5323 91.8203 18.3843 92.4757 18.3843C93.1523 18.3843 93.7336 18.5323 94.2199 18.8283C94.7273 19.1243 95.1078 19.526 95.3616 20.0334C95.6364 20.5408 95.7738 21.1116 95.7738 21.7459C95.7738 22.3801 95.6364 22.9509 95.3616 23.4583C95.1078 23.9446 94.7273 24.3357 94.2199 24.6317Z" fill="#0D0D0D"/>
<path fill-rule="evenodd" clip-rule="evenodd" d="M110.551 30.2136C108.965 30.2136 107.527 29.8648 106.238 29.1671C104.969 28.4483 103.965 27.4758 103.225 26.2495C102.485 25.0233 102.115 23.6491 102.115 22.1269C102.115 20.6047 102.485 19.2411 103.225 18.036C103.965 16.8309 104.969 15.8795 106.238 15.1819C107.506 14.463 108.944 14.1036 110.551 14.1036C112.157 14.1036 113.595 14.4525 114.863 15.1501C116.132 15.8478 117.136 16.8098 117.876 18.036C118.616 19.2411 118.986 20.6047 118.986 22.1269C118.986 23.6491 118.616 25.0233 117.876 26.2495C117.136 27.4758 116.132 28.4483 114.863 29.1671C113.595 29.8648 112.157 30.2136 110.551 30.2136ZM110.551 25.8056C111.248 25.8056 111.861 25.6576 112.39 25.3616C112.918 25.0445 113.32 24.6111 113.595 24.0614C113.891 23.4906 114.039 22.8457 114.039 22.1269C114.039 21.4081 113.891 20.7844 113.595 20.2559C113.299 19.7062 112.887 19.2834 112.358 18.9874C111.851 18.6702 111.248 18.5117 110.551 18.5117C109.874 18.5117 109.271 18.6702 108.743 18.9874C108.214 19.2834 107.802 19.7062 107.506 20.2559C107.21 20.8056 107.062 21.4398 107.062 22.1586C107.062 22.8563 107.21 23.4906 107.506 24.0614C107.802 24.6111 108.214 25.0445 108.743 25.3616C109.271 25.6576 109.874 25.8056 110.551 25.8056Z" fill="#0D0D0D"/>
<path fill-rule="evenodd" clip-rule="evenodd" d="M137.281 30.1814C136.246 30.1814 135.294 29.9806 134.427 29.5789C133.971 29.3675 133.559 29.1151 133.191 28.8217V36.3654H128.402V14.452H133.254V15.5157C133.606 15.2278 133.997 14.9789 134.427 14.7691C135.294 14.3462 136.246 14.1348 137.281 14.1348C138.74 14.1348 140.03 14.4837 141.15 15.1814C142.292 15.879 143.18 16.8304 143.814 18.0355C144.47 19.2406 144.797 20.6148 144.797 22.1581C144.797 23.7015 144.47 25.0757 143.814 26.2808C143.18 27.4859 142.292 28.4372 141.15 29.1349C140.03 29.8326 138.74 30.1814 137.281 30.1814ZM136.394 25.8051C137.091 25.8051 137.694 25.6465 138.201 25.3294C138.73 25.0123 139.142 24.5788 139.438 24.0292C139.734 23.4795 139.882 22.8558 139.882 22.1581C139.882 21.4393 139.734 20.8051 139.438 20.2554C139.142 19.7057 138.73 19.2829 138.201 18.9869C137.694 18.6697 137.102 18.5112 136.425 18.5112C135.749 18.5112 135.146 18.6697 134.618 18.9869C134.11 19.2829 133.709 19.7057 133.413 20.2554C133.117 20.8051 132.969 21.4393 132.969 22.1581C132.969 22.8558 133.106 23.4795 133.381 24.0292C133.677 24.5788 134.089 25.0123 134.618 25.3294C135.146 25.6465 135.738 25.8051 136.394 25.8051Z" fill="#0D0D0D"/>
<path d="M149.546 29.8958C150.434 30.1284 151.332 30.2446 152.241 30.2446C154.165 30.2446 155.687 29.8007 156.808 28.9127C157.949 28.0248 158.52 26.8303 158.52 25.3292C158.52 24.3567 158.341 23.5744 157.981 22.9825C157.622 22.3694 157.157 21.8831 156.586 21.5237C156.015 21.1643 155.412 20.8788 154.778 20.6674C154.144 20.456 153.541 20.2763 152.971 20.1283C152.4 19.9803 151.935 19.8112 151.575 19.6209C151.216 19.4306 151.036 19.1769 151.036 18.8598C151.036 18.5638 151.174 18.3418 151.448 18.1938C151.723 18.0247 152.135 17.9402 152.685 17.9402C153.256 17.9402 153.837 18.0564 154.429 18.289C155.042 18.5215 155.592 18.9233 156.078 19.4941L158.837 16.7034C158.14 15.8154 157.231 15.1494 156.11 14.7055C155.011 14.2404 153.806 14.0078 152.495 14.0078C151.248 14.0078 150.159 14.2192 149.229 14.642C148.298 15.0649 147.579 15.6463 147.072 16.3862C146.565 17.105 146.311 17.9613 146.311 18.955C146.311 19.8852 146.491 20.6569 146.85 21.27C147.209 21.8619 147.675 22.3271 148.245 22.6653C148.816 23.0036 149.419 23.2679 150.053 23.4581C150.687 23.6484 151.29 23.8281 151.861 23.9973C152.431 24.1453 152.897 24.325 153.256 24.5364C153.637 24.7267 153.827 25.0121 153.827 25.3926C153.827 25.6886 153.668 25.9211 153.351 26.0903C153.055 26.2594 152.622 26.344 152.051 26.344C151.226 26.344 150.465 26.196 149.768 25.9C149.07 25.5829 148.467 25.1495 147.96 24.5998L145.201 27.3905C145.73 27.9613 146.364 28.4688 147.104 28.9127C147.865 29.3355 148.679 29.6632 149.546 29.8958Z" fill="#0D0D0D"/>
<path d="M167.369 30.2142C165.953 30.2142 164.695 29.9288 163.596 29.358C162.517 28.766 161.672 27.9626 161.059 26.9478C160.445 25.9119 160.139 24.728 160.139 23.396V14.4531H164.991V23.3326C164.991 23.8611 165.075 24.3157 165.245 24.6962C165.435 25.0768 165.71 25.3728 166.069 25.5842C166.429 25.7956 166.862 25.9013 167.369 25.9013C168.088 25.9013 168.659 25.6793 169.082 25.2353C169.505 24.7702 169.716 24.136 169.716 23.3326V14.4531H174.568V23.3643C174.568 24.7174 174.262 25.9119 173.648 26.9478C173.035 27.9626 172.19 28.766 171.111 29.358C170.033 29.9288 168.786 30.2142 167.369 30.2142Z" fill="#0D0D0D"/>
<path d="M181.831 14.452H176.979V29.8643H181.831V20.8579C181.831 20.3294 181.937 19.8854 182.148 19.526C182.381 19.1666 182.688 18.8917 183.068 18.7015C183.449 18.49 183.882 18.3843 184.368 18.3843C185.066 18.3843 185.647 18.6063 186.112 19.0503C186.599 19.4731 186.842 20.0757 186.842 20.8579V29.8643H191.694V20.8579C191.694 20.3294 191.8 19.8854 192.011 19.526C192.244 19.1666 192.55 18.8917 192.931 18.7015C193.311 18.49 193.745 18.3843 194.231 18.3843C194.929 18.3843 195.51 18.6063 195.975 19.0503C196.461 19.4731 196.704 20.0757 196.704 20.8579V29.8643H201.557V20.3188C201.557 19.0292 201.282 17.9298 200.732 17.0207C200.203 16.0904 199.474 15.3822 198.544 14.896C197.635 14.3885 196.588 14.1348 195.404 14.1348C194.199 14.1348 193.11 14.3991 192.138 14.9277C191.506 15.2644 190.954 15.699 190.481 16.2314C190.04 15.6745 189.504 15.2188 188.871 14.8642C188.026 14.378 187.064 14.1348 185.986 14.1348C184.844 14.1348 183.819 14.378 182.91 14.8642C182.514 15.0665 182.155 15.3088 181.831 15.5911V14.452Z" fill="#0D0D0D"/>
</g>
<defs>
<clipPath id="clip0_607_2427">
<rect width="202" height="40" fill="white"/>
</clipPath>
</defs>
</svg>
