<svg width="161" height="40" viewBox="0 0 161 40" fill="none" xmlns="http://www.w3.org/2000/svg">
<path d="M99.908 13.5245H96.2734V25.2005H99.908V13.5245Z" fill="#0D0D0D"/>
<path d="M96.6777 11.3383C97.0575 11.7227 97.5324 11.9149 98.1025 11.9149C98.6725 11.9149 99.1399 11.7227 99.504 11.3383C99.8688 10.938 100.051 10.4574 100.051 9.89685C100.051 9.32028 99.8688 8.83976 99.504 8.45538C99.1399 8.07097 98.6725 7.87878 98.1025 7.87878C97.5324 7.87878 97.0575 8.07097 96.6777 8.45538C96.3129 8.83976 96.1309 9.32028 96.1309 9.89685C96.1309 10.4574 96.3129 10.938 96.6777 11.3383Z" fill="#0D0D0D"/>
<path d="M44.1289 25.2007V8.23923H47.8585V21.8853H55.2941V25.2007H44.1289Z" fill="#0D0D0D"/>
<path fill-rule="evenodd" clip-rule="evenodd" d="M62.0103 25.4648C60.8226 25.4648 59.7457 25.2005 58.7796 24.672C57.8294 24.1274 57.0771 23.3907 56.5228 22.4617C55.9686 21.5327 55.6914 20.4917 55.6914 19.3385C55.6914 18.1853 55.9686 17.1523 56.5228 16.2393C57.0771 15.3264 57.8294 14.6056 58.7796 14.0771C59.7298 13.5325 60.8068 13.2602 62.0103 13.2602C63.214 13.2602 64.2909 13.5245 65.2411 14.053C66.1913 14.5816 66.9436 15.3104 67.4979 16.2393C68.0522 17.1523 68.3293 18.1853 68.3293 19.3385C68.3293 20.4917 68.0522 21.5327 67.4979 22.4617C66.9436 23.3907 66.1913 24.1274 65.2411 24.672C64.2909 25.2005 63.214 25.4648 62.0103 25.4648ZM62.0103 22.1254C62.533 22.1254 62.9922 22.0133 63.3882 21.789C63.7841 21.5488 64.085 21.2205 64.2909 20.804C64.5126 20.3716 64.6235 19.883 64.6235 19.3385C64.6235 18.7939 64.5126 18.3214 64.2909 17.9211C64.0691 17.5046 63.7604 17.1843 63.3644 16.9601C62.9843 16.7198 62.533 16.5997 62.0103 16.5997C61.5036 16.5997 61.0523 16.7198 60.6563 16.9601C60.2604 17.1843 59.9515 17.5046 59.7298 17.9211C59.5081 18.3375 59.3973 18.818 59.3973 19.3625C59.3973 19.8911 59.5081 20.3716 59.7298 20.804C59.9515 21.2205 60.2604 21.5488 60.6563 21.789C61.0523 22.0133 61.5036 22.1254 62.0103 22.1254Z" fill="#0D0D0D"/>
<path fill-rule="evenodd" clip-rule="evenodd" d="M71.2086 29.7652C72.1746 30.2136 73.2911 30.4378 74.5581 30.4378C75.7934 30.4378 76.8941 30.1896 77.8601 29.6931C78.8262 29.1966 79.5863 28.5079 80.1406 27.627C80.6949 26.7461 80.9724 25.705 80.9724 24.5038V13.5245H77.4087V14.309C77.1437 14.0834 76.8427 13.894 76.506 13.7407C75.8883 13.4364 75.1836 13.2842 74.3918 13.2842C73.3307 13.2842 72.3884 13.5405 71.5649 14.053C70.7413 14.5495 70.0921 15.2382 69.6169 16.1191C69.1418 16.9841 68.9043 17.961 68.9043 19.0502C68.9043 20.1233 69.1418 21.1003 69.6169 21.9812C70.0921 22.8621 70.7413 23.5588 71.5649 24.0713C72.3884 24.5838 73.3307 24.8401 74.3918 24.8401C75.1678 24.8401 75.8725 24.688 76.506 24.3837C76.8129 24.2363 77.09 24.0625 77.3375 23.8625V24.5999C77.3375 25.4167 77.0762 26.0494 76.5535 26.4978C76.0468 26.9463 75.342 27.1705 74.4393 27.1705C73.7108 27.1705 73.0853 27.0424 72.5626 26.7861C72.0559 26.5299 71.5965 26.1535 71.1847 25.6569L68.9518 27.9153C69.506 28.7161 70.2584 29.3328 71.2086 29.7652ZM76.3872 21.2364C76.023 21.4606 75.5875 21.5728 75.0807 21.5728C74.5739 21.5728 74.1305 21.4606 73.7504 21.2364C73.3861 21.0122 73.1011 20.7078 72.8952 20.3235C72.6893 19.9231 72.5864 19.4986 72.5864 19.0502C72.5864 18.5697 72.6893 18.1372 72.8952 17.7528C73.1011 17.3685 73.394 17.0641 73.7741 16.8399C74.1542 16.6156 74.5897 16.5035 75.0807 16.5035C75.5875 16.5035 76.023 16.6156 76.3872 16.8399C76.7673 17.0641 77.0524 17.3685 77.2425 17.7528C77.4483 18.1372 77.5512 18.5697 77.5512 19.0502C77.5512 19.5307 77.4483 19.9631 77.2425 20.3475C77.0524 20.7159 76.7673 21.0122 76.3872 21.2364Z" fill="#0D0D0D"/>
<path fill-rule="evenodd" clip-rule="evenodd" d="M88.6201 25.4648C87.432 25.4648 86.3548 25.2005 85.3893 24.672C84.4387 24.1274 83.6866 23.3907 83.1323 22.4617C82.5779 21.5327 82.3008 20.4917 82.3008 19.3385C82.3008 18.1853 82.5779 17.1523 83.1323 16.2393C83.6866 15.3264 84.4387 14.6056 85.3893 14.0771C86.3391 13.5325 87.4163 13.2602 88.6201 13.2602C89.8231 13.2602 90.9003 13.5245 91.8502 14.053C92.8007 14.5816 93.5528 15.3104 94.1072 16.2393C94.6615 17.1523 94.9386 18.1853 94.9386 19.3385C94.9386 20.4917 94.6615 21.5327 94.1072 22.4617C93.5528 23.3907 92.8007 24.1274 91.8502 24.672C90.9003 25.2005 89.8231 25.4648 88.6201 25.4648ZM88.6201 22.1254C89.1422 22.1254 89.6014 22.0133 89.9977 21.789C90.3932 21.5488 90.6943 21.2205 90.9003 20.804C91.122 20.3716 91.2329 19.883 91.2329 19.3385C91.2329 18.7939 91.122 18.3214 90.9003 17.9211C90.6786 17.5046 90.37 17.1843 89.9737 16.9601C89.5939 16.7198 89.1422 16.5997 88.6201 16.5997C88.113 16.5997 87.6613 16.7198 87.2657 16.9601C86.8695 17.1843 86.5608 17.5046 86.3391 17.9211C86.1174 18.3375 86.0065 18.818 86.0065 19.3625C86.0065 19.8911 86.1174 20.3716 86.3391 20.804C86.5608 21.2205 86.8695 21.5488 87.2657 21.789C87.6613 22.0133 88.113 22.1254 88.6201 22.1254Z" fill="#0D0D0D"/>
<path fill-rule="evenodd" clip-rule="evenodd" d="M108.643 25.4407C107.868 25.4407 107.155 25.2886 106.505 24.9843C106.164 24.8241 105.855 24.6329 105.58 24.4107V30.1256H101.992V13.5245H105.627V14.3303C105.89 14.1122 106.183 13.9237 106.505 13.7647C107.155 13.4444 107.868 13.2842 108.643 13.2842C109.736 13.2842 110.703 13.5485 111.542 14.0771C112.397 14.6056 113.062 15.3263 113.537 16.2393C114.029 17.1522 114.273 18.1933 114.273 19.3625C114.273 20.5317 114.029 21.5728 113.537 22.4857C113.062 23.3987 112.397 24.1194 111.542 24.6479C110.703 25.1765 109.736 25.4407 108.643 25.4407ZM107.979 22.1253C108.501 22.1253 108.953 22.0052 109.333 21.765C109.729 21.5247 110.037 21.1963 110.259 20.78C110.481 20.3635 110.592 19.891 110.592 19.3625C110.592 18.8179 110.481 18.3375 110.259 17.921C110.037 17.5046 109.729 17.1843 109.333 16.96C108.953 16.7197 108.509 16.5997 108.002 16.5997C107.496 16.5997 107.044 16.7197 106.649 16.96C106.268 17.1843 105.968 17.5046 105.746 17.921C105.524 18.3375 105.413 18.8179 105.413 19.3625C105.413 19.891 105.516 20.3635 105.722 20.78C105.944 21.1963 106.252 21.5247 106.649 21.765C107.044 22.0052 107.488 22.1253 107.979 22.1253Z" fill="#0D0D0D"/>
<path d="M117.831 25.2247C118.496 25.4009 119.169 25.4889 119.85 25.4889C121.291 25.4889 122.431 25.1526 123.271 24.4799C124.126 23.8073 124.553 22.9023 124.553 21.7651C124.553 21.0284 124.419 20.4357 124.15 19.9873C123.881 19.5229 123.532 19.1545 123.105 18.8822C122.677 18.6099 122.225 18.3936 121.75 18.2335C121.275 18.0733 120.824 17.9372 120.397 17.8251C119.969 17.7129 119.621 17.5848 119.351 17.4407C119.082 17.2965 118.947 17.1043 118.947 16.8641C118.947 16.6398 119.05 16.4717 119.256 16.3595C119.462 16.2314 119.77 16.1674 120.182 16.1674C120.61 16.1674 121.045 16.2554 121.489 16.4317C121.948 16.6078 122.36 16.9122 122.724 17.3446L124.791 15.2304C124.269 14.5577 123.588 14.0532 122.748 13.7169C121.925 13.3645 121.022 13.1883 120.04 13.1883C119.106 13.1883 118.29 13.3485 117.593 13.6688C116.896 13.9892 116.358 14.4296 115.978 14.9901C115.598 15.5347 115.408 16.1834 115.408 16.9362C115.408 17.6409 115.542 18.2255 115.811 18.69C116.08 19.1384 116.429 19.4908 116.856 19.747C117.284 20.0033 117.736 20.2036 118.211 20.3476C118.686 20.4918 119.137 20.6279 119.565 20.7561C119.992 20.8682 120.341 21.0044 120.61 21.1645C120.895 21.3087 121.038 21.5249 121.038 21.8132C121.038 22.0374 120.919 22.2136 120.681 22.3417C120.46 22.4698 120.135 22.5339 119.707 22.5339C119.089 22.5339 118.519 22.4218 117.997 22.1976C117.474 21.9573 117.023 21.629 116.643 21.2126L114.576 23.3267C114.972 23.7592 115.447 24.1436 116.002 24.4799C116.572 24.8002 117.182 25.0485 117.831 25.2247Z" fill="#0D0D0D"/>
<path d="M131.182 25.4647C130.121 25.4647 129.178 25.2485 128.355 24.8161C127.547 24.3676 126.914 23.759 126.455 22.9902C125.995 22.2054 125.766 21.3085 125.766 20.2994V13.5245H129.4V20.2514C129.4 20.6518 129.463 20.9962 129.59 21.2844C129.733 21.5728 129.939 21.797 130.208 21.9572C130.477 22.1173 130.802 22.1974 131.182 22.1974C131.72 22.1974 132.148 22.0292 132.465 21.6928C132.782 21.3405 132.94 20.86 132.94 20.2514V13.5245H136.574V20.2754C136.574 21.3005 136.345 22.2054 135.885 22.9902C135.426 23.759 134.793 24.3676 133.985 24.8161C133.177 25.2485 132.243 25.4647 131.182 25.4647Z" fill="#0D0D0D"/>
<path d="M142.015 13.5245H138.381V25.2005H142.015V18.3775C142.015 17.9771 142.095 17.6407 142.253 17.3685C142.427 17.0962 142.657 16.8879 142.942 16.7438C143.227 16.5836 143.552 16.5035 143.916 16.5035C144.439 16.5035 144.874 16.6717 145.222 17.0081C145.587 17.3284 145.769 17.7849 145.769 18.3775V25.2005H149.404V18.3775C149.404 17.9771 149.483 17.6407 149.641 17.3685C149.816 17.0962 150.045 16.8879 150.33 16.7438C150.615 16.5836 150.94 16.5035 151.304 16.5035C151.827 16.5035 152.262 16.6717 152.611 17.0081C152.975 17.3284 153.157 17.7849 153.157 18.3775V25.2005H156.792V17.9691C156.792 16.9921 156.586 16.1592 156.174 15.4705C155.778 14.7657 155.232 14.2292 154.535 13.8609C153.854 13.4764 153.07 13.2842 152.183 13.2842C151.28 13.2842 150.464 13.4844 149.736 13.8849C149.263 14.14 148.849 14.4692 148.495 14.8725C148.165 14.4506 147.763 14.1054 147.289 13.8368C146.656 13.4685 145.935 13.2842 145.128 13.2842C144.272 13.2842 143.505 13.4685 142.824 13.8368C142.527 13.99 142.258 14.1736 142.015 14.3875V13.5245Z" fill="#0D0D0D"/>
<path d="M36.8659 13.7163C36.866 11.4417 36.1771 9.22002 34.8893 7.34237C33.6015 5.46473 31.7748 4.01861 29.6487 3.19347C27.5226 2.36831 25.196 2.2026 22.9739 2.71802C20.7516 3.23343 18.7374 4.40596 17.1949 6.08201H2.88867V36.1849H33.0945V22.1163C34.28 21.0591 35.2287 19.7646 35.8786 18.3172C36.5284 16.8698 36.8649 15.3021 36.8659 13.7163ZM31.054 13.7163C31.0563 14.8062 30.7342 15.8724 30.1285 16.7798C29.5226 17.6871 28.6606 18.395 27.6511 18.8137C26.6417 19.2324 25.5304 19.3431 24.4578 19.1318C23.3853 18.9206 22.3997 18.3969 21.6258 17.6269C20.8519 16.857 20.3246 15.8755 20.1104 14.8066C19.8963 13.7378 20.0051 12.6295 20.4229 11.6223C20.8408 10.6151 21.549 9.75411 22.4578 9.14831C23.3667 8.54252 24.4354 8.21916 25.5287 8.21915C26.9921 8.21915 28.3958 8.79795 29.4316 9.82853C30.4676 10.8591 31.051 12.2573 31.054 13.7163ZM27.2826 30.3906H8.70057V11.8763H14.3634C14.2541 12.4837 14.1965 13.0993 14.1915 13.7163C14.1946 16.7131 15.39 19.5862 17.5155 21.7053C19.6409 23.8243 22.5228 25.0162 25.5287 25.0191C26.1164 25.0161 26.7029 24.9663 27.2826 24.8706V30.3906Z" fill="#FED403"/>
</svg>
