<svg width="164" height="40" viewBox="0 0 164 40" fill="none" xmlns="http://www.w3.org/2000/svg">
<g clip-path="url(#clip0_607_2605)">
<path d="M47.7578 28.0911H59.4951V24.5789H51.9295V11.3496H47.7578V28.0911Z" fill="#0D0D0D"/>
<path d="M66.448 25.75C64.7746 25.75 63.9025 24.2983 63.9025 22.1208C63.9025 19.9432 64.7746 18.4681 66.448 18.4681C68.1214 18.4681 69.017 19.9432 69.017 22.1208C69.017 24.2983 68.1214 25.75 66.448 25.75ZM66.4715 28.4661C70.3604 28.4661 72.9058 25.7266 72.9058 22.1208C72.9058 18.5149 70.3604 15.7754 66.4715 15.7754C62.6062 15.7754 60.0137 18.5149 60.0137 22.1208C60.0137 25.7266 62.6062 28.4661 66.4715 28.4661Z" fill="#0D0D0D"/>
<path d="M79.6378 32.2359C81.429 32.2359 83.0081 31.8378 84.0687 30.9012C85.0351 30.0349 85.6714 28.7237 85.6714 26.9207V16.1032H81.9947V17.391H81.9475C81.2405 16.3841 80.1563 15.752 78.5536 15.752C75.5604 15.752 73.4863 18.2339 73.4863 21.7461C73.4863 25.4222 76.0082 27.4359 78.7186 27.4359C80.1799 27.4359 81.0991 26.8505 81.8061 26.0544H81.9004V27.2485C81.9004 28.7002 81.2169 29.5432 79.5907 29.5432C78.3179 29.5432 77.6816 29.0046 77.4695 28.3724H73.7456C74.1227 30.8778 76.3146 32.2359 79.6378 32.2359ZM79.6142 24.6027C78.1765 24.6027 77.2338 23.432 77.2338 21.629C77.2338 19.8027 78.1765 18.632 79.6142 18.632C81.2169 18.632 82.0654 19.99 82.0654 21.6056C82.0654 23.2915 81.2876 24.6027 79.6142 24.6027Z" fill="#0D0D0D"/>
<path d="M93.2312 25.7499C91.5578 25.7499 90.6857 24.2982 90.6857 22.1206C90.6857 19.943 91.5578 18.4679 93.2312 18.4679C94.9046 18.4679 95.8002 19.943 95.8002 22.1206C95.8002 24.2982 94.9046 25.7499 93.2312 25.7499ZM93.2547 28.466C97.1436 28.466 99.6893 25.7264 99.6893 22.1206C99.6893 18.5147 97.1436 15.7752 93.2547 15.7752C89.3895 15.7752 86.7969 18.5147 86.7969 22.1206C86.7969 25.7264 89.3895 28.466 93.2547 28.466Z" fill="#0D0D0D"/>
<path d="M100.811 28.0911H104.652V16.1028H100.811V28.0911ZM100.811 14.4403H104.652V11.3496H100.811V14.4403Z" fill="#0D0D0D"/>
<path d="M106.318 32.0484H110.16V26.8503H110.207C110.961 27.8572 112.069 28.4659 113.625 28.4659C116.783 28.4659 118.881 25.984 118.881 22.0972C118.881 18.4913 116.924 15.7518 113.719 15.7518C112.069 15.7518 110.891 16.4777 110.066 17.5547H109.995V16.103H106.318V32.0484ZM112.635 25.5157C110.985 25.5157 110.042 24.1811 110.042 22.2377C110.042 20.2942 110.891 18.8191 112.564 18.8191C114.214 18.8191 114.992 20.1772 114.992 22.2377C114.992 24.2747 114.096 25.5157 112.635 25.5157Z" fill="#0D0D0D"/>
<path d="M125.138 28.4661C128.296 28.4661 130.63 27.1081 130.63 24.4856C130.63 21.4183 128.131 20.8798 126.01 20.5285C124.478 20.2476 123.111 20.1305 123.111 19.2876C123.111 18.5383 123.842 18.1871 124.785 18.1871C125.845 18.1871 126.576 18.5149 126.717 19.592H130.253C130.064 17.2271 128.226 15.752 124.808 15.752C121.956 15.752 119.6 17.0632 119.6 19.592C119.6 22.4017 121.839 22.9637 123.936 23.3149C125.539 23.5959 127 23.7129 127 24.79C127 25.5627 126.269 25.9841 125.115 25.9841C123.842 25.9841 123.041 25.3988 122.899 24.2046H119.27C119.387 26.8505 121.603 28.4661 125.138 28.4661Z" fill="#0D0D0D"/>
<path d="M135.846 28.443C137.519 28.443 138.58 27.7874 139.452 26.6167H139.523V28.0918H143.199V16.1035H139.358V22.8001C139.358 24.2284 138.556 25.2118 137.236 25.2118C136.011 25.2118 135.422 24.486 135.422 23.1747V16.1035H131.604V23.9708C131.604 26.6401 133.065 28.443 135.846 28.443Z" fill="#0D0D0D"/>
<path d="M144.871 28.0913H148.713V21.3713C148.713 19.943 149.42 18.9362 150.622 18.9362C151.777 18.9362 152.319 19.6855 152.319 20.9733V28.0913H156.161V21.3713C156.161 19.943 156.844 18.9362 158.07 18.9362C159.225 18.9362 159.767 19.6855 159.767 20.9733V28.0913H163.608V20.2942C163.608 17.6016 162.241 15.7518 159.507 15.7518C157.952 15.7518 156.656 16.4074 155.713 17.8591H155.666C155.053 16.5713 153.851 15.7518 152.272 15.7518C150.528 15.7518 149.373 16.5713 148.619 17.8123H148.548V16.103H144.871V28.0913Z" fill="#0D0D0D"/>
<path fill-rule="evenodd" clip-rule="evenodd" d="M8.4987 3.79722C7.09374 4.77318 5.82328 5.92709 4.7204 7.22603C9.22726 6.81035 14.9531 7.4891 21.6007 10.7912C28.6994 14.3172 34.4156 14.4365 38.3939 13.6741C38.0329 12.5884 37.5784 11.5448 37.0401 10.5528C32.4861 11.03 26.6479 10.3984 19.844 7.01879C15.5234 4.87265 11.7149 3.98858 8.4987 3.79722ZM34.3799 6.79115C30.7836 2.7993 25.5573 0.287109 19.7403 0.287109C18.032 0.287109 16.3746 0.503799 14.7945 0.910992C16.9345 1.49109 19.2079 2.33978 21.6007 3.52834C26.5821 6.00274 30.8829 6.79946 34.3799 6.79115ZM39.2444 17.4852C34.4383 18.4281 27.8016 18.2344 19.844 14.2816C12.4045 10.5862 6.48327 10.6327 2.48979 11.5144C2.28366 11.5599 2.08238 11.6077 1.88596 11.6574C1.36312 12.7871 0.945765 13.975 0.646311 15.2085C0.966144 15.1237 1.29664 15.043 1.63763 14.9677C6.48242 13.8981 13.3277 13.9445 21.6007 18.054C29.0403 21.7494 34.9614 21.7029 38.955 20.8212C39.0918 20.7911 39.2266 20.7599 39.3592 20.7277C39.3737 20.4201 39.381 20.1105 39.381 19.7993C39.381 19.0164 39.3347 18.2442 39.2444 17.4852ZM38.7179 24.8454C33.9585 25.6721 27.5151 25.3548 19.844 21.5445C12.4045 17.849 6.48327 17.8956 2.48979 18.7772C1.60335 18.9728 0.805928 19.2112 0.102487 19.4628C0.100569 19.5747 0.0996094 19.6869 0.0996094 19.7993C0.0996094 30.5756 8.89304 39.3115 19.7403 39.3115C28.8311 39.3115 36.4794 33.1758 38.7179 24.8454Z" fill="#FED403"/>
</g>
<defs>
<clipPath id="clip0_607_2605">
<rect width="164" height="40" fill="white"/>
</clipPath>
</defs>
</svg>
