<svg width="30" height="30" viewBox="0 0 30 30" fill="none" xmlns="http://www.w3.org/2000/svg">
<path d="M22.8 3.29688H7.19997C6.84032 3.30675 6.48804 3.40112 6.17162 3.57236C5.8552 3.7436 5.58352 3.9869 5.37854 4.28259L1.47854 9.68259C1.18895 10.0918 1.04432 10.586 1.06762 11.0868C1.09091 11.5876 1.28079 12.0663 1.60711 12.4469L13.3071 25.9254C13.5074 26.1835 13.7641 26.3924 14.0575 26.5361C14.3509 26.6798 14.6733 26.7545 15 26.7545C15.3267 26.7545 15.649 26.6798 15.9425 26.5361C16.2359 26.3924 16.4925 26.1835 16.6928 25.9254L28.3928 12.4469C28.7192 12.0663 28.909 11.5876 28.9323 11.0868C28.9556 10.586 28.811 10.0918 28.5214 9.68259L24.6214 4.28259C24.4164 3.9869 24.1447 3.7436 23.8283 3.57236C23.5119 3.40112 23.1596 3.30675 22.8 3.29688V3.29688Z" stroke="#0D0D0D" stroke-width="1.5" stroke-linecap="round" stroke-linejoin="round"/>
<path d="M13.8857 3.27734L8.6571 11.3773L15 26.6988" stroke="#0D0D0D" stroke-width="1.5" stroke-linecap="round" stroke-linejoin="round"/>
<path d="M16.1786 3.27734L21.3857 11.3773L15 26.6988" stroke="#0D0D0D" stroke-width="1.5" stroke-linecap="round" stroke-linejoin="round"/>
<path d="M1.11426 11.3789H28.8857" stroke="#0D0D0D" stroke-width="1.5" stroke-linecap="round" stroke-linejoin="round"/>
</svg>
