<svg width="30" height="30" viewBox="0 0 30 30" fill="none" xmlns="http://www.w3.org/2000/svg">
<g clip-path="url(#clip0_494_3265)">
<path d="M16.0071 14.7874C15.6892 14.9254 15.3464 14.9966 14.9999 14.9966C14.6534 14.9966 14.3106 14.9254 13.9928 14.7874L1.77849 9.13021C1.58015 9.03018 1.41347 8.87704 1.29701 8.68788C1.18056 8.49871 1.1189 8.28093 1.1189 8.05878C1.1189 7.83664 1.18056 7.61886 1.29701 7.42969C1.41347 7.24053 1.58015 7.0874 1.77849 6.98736L13.9928 1.28736C14.3106 1.14934 14.6534 1.07812 14.9999 1.07812C15.3464 1.07813 15.6892 1.14934 16.0071 1.28736L28.2213 6.9445C28.4197 7.04454 28.5864 7.19767 28.7028 7.38684C28.8193 7.57601 28.8809 7.79379 28.8809 8.01593C28.8809 8.23807 28.8193 8.45585 28.7028 8.64502C28.5864 8.83419 28.4197 8.98732 28.2213 9.08736L16.0071 14.7874Z" stroke="#0D0D0D" stroke-width="1.5" stroke-linecap="round" stroke-linejoin="round"/>
<path d="M28.9284 15.75L15.857 21.7714C15.5778 21.8988 15.2746 21.9647 14.9677 21.9647C14.6609 21.9647 14.3576 21.8988 14.0784 21.7714L1.07129 15.75" stroke="#0D0D0D" stroke-width="1.5" stroke-linecap="round" stroke-linejoin="round"/>
<path d="M28.9284 22.7148L15.857 28.7363C15.5778 28.8636 15.2746 28.9295 14.9677 28.9295C14.6609 28.9295 14.3576 28.8636 14.0784 28.7363L1.07129 22.7148" stroke="#0D0D0D" stroke-width="1.5" stroke-linecap="round" stroke-linejoin="round"/>
</g>
<defs>
<clipPath id="clip0_494_3265">
<rect width="30" height="30" fill="white"/>
</clipPath>
</defs>
</svg>
