<svg width="100" height="100" viewBox="0 0 100 100" fill="none" xmlns="http://www.w3.org/2000/svg">
<path d="M32.1428 92.8577C47.9224 92.8577 60.7143 80.0658 60.7143 64.2863C60.7143 48.5067 47.9224 35.7148 32.1428 35.7148C16.3633 35.7148 3.57141 48.5067 3.57141 64.2863C3.57141 80.0658 16.3633 92.8577 32.1428 92.8577Z" stroke="white" stroke-opacity="0.1" stroke-width="2" stroke-linecap="round" stroke-linejoin="round"/>
<path d="M67.8567 92.8577C83.6363 92.8577 96.4281 80.0658 96.4281 64.2863C96.4281 48.5067 83.6363 35.7148 67.8567 35.7148C52.0771 35.7148 39.2853 48.5067 39.2853 64.2863C39.2853 80.0658 52.0771 92.8577 67.8567 92.8577Z" stroke="white" stroke-opacity="0.1" stroke-width="2" stroke-linecap="round" stroke-linejoin="round"/>
<path d="M50.0003 64.2854C65.7798 64.2854 78.5717 51.4936 78.5717 35.714C78.5717 19.9344 65.7798 7.14258 50.0003 7.14258C34.2207 7.14258 21.4288 19.9344 21.4288 35.714C21.4288 51.4936 34.2207 64.2854 50.0003 64.2854Z" stroke="white" stroke-opacity="0.1" stroke-width="2" stroke-linecap="round" stroke-linejoin="round"/>
</svg>
