<svg width="30" height="30" viewBox="0 0 30 30" fill="none" xmlns="http://www.w3.org/2000/svg">
<path d="M15 21.4727V23.6369" stroke="#0D0D0D" stroke-width="1.5" stroke-linecap="round" stroke-linejoin="round"/>
<path d="M15 10.7363V12.7506" stroke="#0D0D0D" stroke-width="1.5" stroke-linecap="round" stroke-linejoin="round"/>
<path d="M14.9997 28.9078C22.4997 28.9078 27.8569 26.2507 27.8569 20.3364C27.8569 13.9078 24.6426 9.6221 18.214 6.40781L20.7426 3.15067C20.871 2.93696 20.9407 2.6931 20.9445 2.44378C20.9484 2.19447 20.8862 1.94857 20.7644 1.73102C20.6426 1.51347 20.4654 1.33199 20.2508 1.20498C20.0362 1.07798 19.7919 1.00995 19.5426 1.00781H10.4569C10.2075 1.00995 9.9632 1.07798 9.74862 1.20498C9.53405 1.33199 9.35687 1.51347 9.23504 1.73102C9.11321 1.94857 9.05106 2.19447 9.0549 2.44378C9.05873 2.6931 9.12841 2.93696 9.25686 3.15067L11.7854 6.42924C5.35686 9.66496 2.14258 13.9507 2.14258 20.3792C2.14258 26.2507 7.49972 28.9078 14.9997 28.9078Z" stroke="#0D0D0D" stroke-width="1.5" stroke-linecap="round" stroke-linejoin="round"/>
<path d="M12.8564 20.4871C13.1178 20.7975 13.4469 21.0439 13.8184 21.2073C14.1898 21.3707 14.5938 21.4469 14.9992 21.43C15.6189 21.4722 16.2309 21.2726 16.7065 20.8729C17.182 20.4733 17.4841 19.9049 17.5492 19.2871C17.4841 18.6694 17.182 18.101 16.7065 17.7013C16.2309 17.3017 15.6189 17.102 14.9992 17.1443C14.3795 17.1865 13.7675 16.9869 13.292 16.5872C12.8164 16.1876 12.5143 15.6192 12.4492 15.0014C12.5091 14.3815 12.8097 13.8098 13.2865 13.4092C13.7633 13.0085 14.3783 12.8108 14.9992 12.8586C15.3975 12.8342 15.7963 12.8984 16.1668 13.0466C16.5374 13.1949 16.8704 13.4234 17.1421 13.7157" stroke="#0D0D0D" stroke-width="1.5" stroke-linecap="round" stroke-linejoin="round"/>
</svg>
