<svg width="36" height="40" viewBox="0 0 36 40" fill="none" xmlns="http://www.w3.org/2000/svg">
<path d="M27.7551 28.1633C25.7143 29.7959 22.8572 31.0204 20 31.0204C13.4694 31.0204 8.97959 26.1224 8.97959 19.5918C8.97959 13.0612 13.4694 8.57142 20 8.57142C22.8572 8.57142 25.7143 9.38775 27.7551 11.4286L28.9796 12.6531L35.5102 6.53061L33.8776 5.30612C30.2041 2.04081 25.3061 0 20 0C8.57144 0 0 8.57143 0 20C0 31.4286 8.57144 40 20 40C25.3061 40 30.2041 37.9592 33.8776 34.6939L35.5102 33.4694L28.9796 26.9388L27.7551 28.1633Z" fill="#0D0D0D"/>
<path d="M19.5919 26.53C23.1987 26.53 26.1225 23.6061 26.1225 19.9994C26.1225 16.3926 23.1987 13.4688 19.5919 13.4688C15.9851 13.4688 13.0613 16.3926 13.0613 19.9994C13.0613 23.6061 15.9851 26.53 19.5919 26.53Z" fill="#FED403"/>
</svg>
