<svg width="30" height="30" viewBox="0 0 30 30" fill="none" xmlns="http://www.w3.org/2000/svg">
<g clip-path="url(#clip0_580_746)">
<path d="M18.2141 10.7147C19.3976 10.7147 20.357 9.75528 20.357 8.57181C20.357 7.38834 19.3976 6.42896 18.2141 6.42896C17.0307 6.42896 16.0713 7.38834 16.0713 8.57181C16.0713 9.75528 17.0307 10.7147 18.2141 10.7147Z" stroke="#0D0D0D" stroke-width="1.5" stroke-linecap="round" stroke-linejoin="round"/>
<path d="M9.64272 21.4273C10.2345 21.4273 10.7141 20.9476 10.7141 20.3559C10.7141 19.7641 10.2345 19.2844 9.64272 19.2844C9.05098 19.2844 8.57129 19.7641 8.57129 20.3559C8.57129 20.9476 9.05098 21.4273 9.64272 21.4273Z" stroke="#0D0D0D" stroke-width="1.5" stroke-linecap="round" stroke-linejoin="round"/>
<path d="M9.64286 13.9278C10.8263 13.9278 11.7857 12.9684 11.7857 11.7849C11.7857 10.6015 10.8263 9.64209 9.64286 9.64209C8.45939 9.64209 7.5 10.6015 7.5 11.7849C7.5 12.9684 8.45939 13.9278 9.64286 13.9278Z" stroke="#0D0D0D" stroke-width="1.5" stroke-linecap="round" stroke-linejoin="round"/>
<path d="M20.4002 26.3139C20.3763 25.8983 20.2319 25.4986 19.9845 25.1637C19.7371 24.8288 19.3976 24.5732 19.0073 24.4282C18.0381 24.1096 17.2144 23.4558 16.6841 22.5842C16.1539 21.7126 15.9519 20.6805 16.1146 19.6733C16.2773 18.6661 16.794 17.7501 17.5717 17.0898C18.3494 16.4294 19.3371 16.0682 20.3573 16.071H24.3645C25.0518 16.073 25.7294 15.9096 26.3403 15.5946C26.9512 15.2797 27.4773 14.8224 27.8744 14.2615C28.2715 13.7005 28.5279 13.0523 28.6219 12.3715C28.7158 11.6906 28.6447 10.9972 28.4145 10.3496C27.5622 7.94312 26.0649 5.81716 24.0861 4.204C22.1074 2.59085 19.7234 1.55255 17.1945 1.20256C14.6657 0.852569 12.0893 1.20434 9.74677 2.21945C7.4043 3.23455 5.38587 4.87394 3.91201 6.9585C2.43815 9.04305 1.56557 11.4926 1.38958 14.0395C1.2136 16.5864 1.74099 19.1327 2.91413 21.4001C4.08728 23.6676 5.86105 25.569 8.04165 26.8966C10.2222 28.2243 12.7258 28.927 15.2788 28.9282C16.5395 28.9317 17.7946 28.7586 19.0073 28.4139C19.4528 28.2891 19.8385 28.0083 20.0942 27.6228C20.3499 27.2374 20.4585 26.7728 20.4002 26.3139V26.3139Z" stroke="#0D0D0D" stroke-width="1.5" stroke-linecap="round" stroke-linejoin="round"/>
</g>
<defs>
<clipPath id="clip0_580_746">
<rect width="30" height="30" fill="white"/>
</clipPath>
</defs>
</svg>
