<svg width="20" height="20" viewBox="0 0 20 20" fill="none" xmlns="http://www.w3.org/2000/svg">
<g clip-path="url(#clip0_594_4627)">
<path d="M15.5563 1.32858C15.4251 1.13934 15.25 0.984653 15.046 0.877692C14.842 0.770732 14.6152 0.714673 14.3849 0.714294H5.61348C5.38317 0.714673 5.15636 0.770732 4.95239 0.877692C4.74842 0.984653 4.57333 1.13934 4.44206 1.32858L2.15634 4.62858C1.97072 4.90971 1.89042 5.2474 1.92963 5.58199C1.96884 5.91658 2.12504 6.22655 2.37063 6.45715L9.04206 13.2C9.30456 13.4369 9.64559 13.5681 9.9992 13.5681C10.3528 13.5681 10.6938 13.4369 10.9563 13.2L17.6278 6.45715C17.8734 6.22655 18.0296 5.91658 18.0688 5.58199C18.108 5.2474 18.0277 4.90971 17.8421 4.62858L15.5563 1.32858Z" stroke="#0D0D0D" stroke-linecap="round" stroke-linejoin="round"/>
<path d="M9.99983 0.714294L6.68555 5.62858L9.79983 13.5572" stroke="#0D0D0D" stroke-linecap="round" stroke-linejoin="round"/>
<path d="M10 0.714294L13.3143 5.62858L10.2 13.5572" stroke="#0D0D0D" stroke-linecap="round" stroke-linejoin="round"/>
<path d="M1.92773 5.62857H18.0706" stroke="#0D0D0D" stroke-linecap="round" stroke-linejoin="round"/>
<path d="M18.5706 19.2857C18.5706 18.528 18.2696 17.8012 17.7338 17.2654C17.1979 16.7296 16.4712 16.4286 15.7134 16.4286H4.28488C3.52712 16.4286 2.80039 16.7296 2.26457 17.2654C1.72875 17.8012 1.42773 18.528 1.42773 19.2857V19.2857" stroke="#0D0D0D" stroke-linecap="round" stroke-linejoin="round"/>
</g>
<defs>
<clipPath id="clip0_594_4627">
<rect width="20" height="20" fill="white"/>
</clipPath>
</defs>
</svg>
