<svg width="40" height="40" viewBox="0 0 40 40" fill="none" xmlns="http://www.w3.org/2000/svg">
<path d="M14.9428 6.42773L16.1714 3.25631C16.3786 2.71935 16.7431 2.25748 17.2173 1.9312C17.6914 1.60492 18.253 1.42943 18.8286 1.42773H21.1714C21.747 1.42943 22.3086 1.60492 22.7827 1.9312C23.2568 2.25748 23.6214 2.71935 23.8286 3.25631L25.0571 6.42773L29.2286 8.82773L32.6 8.31345C33.1614 8.23725 33.7327 8.32966 34.2415 8.57894C34.7502 8.82822 35.1733 9.22312 35.4571 9.71345L36.6 11.7134C36.8928 12.2116 37.0278 12.7868 36.987 13.3632C36.9461 13.9396 36.7315 14.4901 36.3714 14.942L34.2857 17.5992V22.3992L36.4286 25.0563C36.7887 25.5082 37.0033 26.0587 37.0441 26.6351C37.0849 27.2115 36.95 27.7867 36.6571 28.2849L35.5143 30.2849C35.2305 30.7752 34.8073 31.1701 34.2986 31.4194C33.7899 31.6687 33.2185 31.7611 32.6571 31.6849L29.2857 31.1706L25.1143 33.5706L23.8857 36.742C23.6785 37.279 23.314 37.7408 22.8398 38.0671C22.3657 38.3934 21.8041 38.5689 21.2286 38.5706H18.8286C18.253 38.5689 17.6914 38.3934 17.2173 38.0671C16.7431 37.7408 16.3786 37.279 16.1714 36.742L14.9428 33.5706L10.7714 31.1706L7.39998 31.6849C6.8386 31.7611 6.26724 31.6687 5.7585 31.4194C5.24976 31.1701 4.82662 30.7752 4.54284 30.2849L3.39998 28.2849C3.10713 27.7867 2.9722 27.2115 3.01301 26.6351C3.05382 26.0587 3.26844 25.5082 3.62855 25.0563L5.71427 22.3992V17.5992L3.57141 14.942C3.2113 14.4901 2.99667 13.9396 2.95587 13.3632C2.91506 12.7868 3.04998 12.2116 3.34284 11.7134L4.48569 9.71345C4.76948 9.22312 5.19262 8.82822 5.70136 8.57894C6.2101 8.32966 6.78146 8.23725 7.34284 8.31345L10.7143 8.82773L14.9428 6.42773ZM14.2857 19.9992C14.2857 21.1293 14.6208 22.2341 15.2487 23.1738C15.8766 24.1136 16.7691 24.846 17.8132 25.2785C18.8574 25.711 20.0063 25.8241 21.1148 25.6037C22.2232 25.3832 23.2414 24.8389 24.0406 24.0398C24.8397 23.2406 25.384 22.2224 25.6045 21.114C25.825 20.0055 25.7118 18.8565 25.2793 17.8124C24.8468 16.7683 24.1144 15.8758 23.1747 15.2479C22.235 14.62 21.1302 14.2849 20 14.2849C18.4845 14.2849 17.031 14.8869 15.9594 15.9586C14.8877 17.0302 14.2857 18.4836 14.2857 19.9992V19.9992Z" stroke="#0D0D0D" stroke-width="1.5" stroke-linecap="round" stroke-linejoin="round"/>
</svg>
