<svg width="30" height="30" viewBox="0 0 30 30" fill="none" xmlns="http://www.w3.org/2000/svg">
<path d="M22.8002 3.30078H7.20022C6.84057 3.31066 6.48829 3.40503 6.17187 3.57627C5.85545 3.74751 5.58376 3.99081 5.37879 4.2865L1.47879 9.6865C1.18919 10.0957 1.04457 10.59 1.06786 11.0907C1.09115 11.5915 1.28103 12.0702 1.60736 12.4508L13.3074 25.9294C13.5077 26.1874 13.7643 26.3963 14.0577 26.54C14.3511 26.6837 14.6735 26.7584 15.0002 26.7584C15.3269 26.7584 15.6493 26.6837 15.9427 26.54C16.2361 26.3963 16.4928 26.1874 16.6931 25.9294L28.3931 12.4508C28.7194 12.0702 28.9093 11.5915 28.9326 11.0907C28.9559 10.59 28.8112 10.0957 28.5216 9.6865L24.6216 4.2865C24.4167 3.99081 24.145 3.74751 23.8286 3.57627C23.5121 3.40503 23.1599 3.31066 22.8002 3.30078V3.30078Z" stroke="#0D0D0D" stroke-width="1.5" stroke-linecap="round" stroke-linejoin="round"/>
<path d="M13.8859 3.28125L8.65736 11.3812L15.0002 26.7027" stroke="#0D0D0D" stroke-width="1.5" stroke-linecap="round" stroke-linejoin="round"/>
<path d="M16.1788 3.28125L21.3859 11.3812L15.0002 26.7027" stroke="#0D0D0D" stroke-width="1.5" stroke-linecap="round" stroke-linejoin="round"/>
<path d="M1.11426 11.3828H28.8857" stroke="#0D0D0D" stroke-width="1.5" stroke-linecap="round" stroke-linejoin="round"/>
</svg>
