<svg width="30" height="30" viewBox="0 0 30 30" fill="none" xmlns="http://www.w3.org/2000/svg">
<g clip-path="url(#clip0_533_4124)">
<path d="M18.2144 20.3577C18.7827 20.3577 19.3277 20.1319 19.7296 19.7301C20.1314 19.3282 20.3572 18.7832 20.3572 18.2148" stroke="#0D0D0D" stroke-width="1.5" stroke-linecap="round" stroke-linejoin="round"/>
<path d="M9.64307 20.3555H12.8574" stroke="#0D0D0D" stroke-width="1.5" stroke-linecap="round" stroke-linejoin="round"/>
<path d="M20.3574 9.64062V12.8549" stroke="#0D0D0D" stroke-width="1.5" stroke-linecap="round" stroke-linejoin="round"/>
<path d="M11.7859 9.64062C11.2176 9.64062 10.6726 9.86639 10.2707 10.2683C9.86883 10.6701 9.64307 11.2152 9.64307 11.7835" stroke="#0D0D0D" stroke-width="1.5" stroke-linecap="round" stroke-linejoin="round"/>
<path d="M1.07153 3.21317C1.07153 2.64485 1.2973 2.0998 1.69916 1.69794C2.10103 1.29608 2.64607 1.07031 3.21439 1.07031H18.2144C18.7827 1.07031 19.3278 1.29608 19.7296 1.69794C20.1315 2.0998 20.3572 2.64485 20.3572 3.21317V9.64174H26.7858C27.3541 9.64174 27.8992 9.86751 28.301 10.2694C28.7029 10.6712 28.9287 11.2163 28.9287 11.7846V26.7846C28.9287 27.3529 28.7029 27.898 28.301 28.2998C27.8992 28.7017 27.3541 28.9275 26.7858 28.9275H11.7858C11.2175 28.9275 10.6725 28.7017 10.2706 28.2998C9.86873 27.898 9.64296 27.3529 9.64296 26.7846V20.356H3.21439C2.64607 20.356 2.10103 20.1303 1.69916 19.7284C1.2973 19.3265 1.07153 18.7815 1.07153 18.2132V3.21317Z" stroke="#0D0D0D" stroke-width="1.5" stroke-linecap="round" stroke-linejoin="round"/>
<path d="M17.1431 9.64062H20.3574" stroke="#0D0D0D" stroke-width="1.5" stroke-linecap="round" stroke-linejoin="round"/>
<path d="M9.64307 17.1406V20.3549" stroke="#0D0D0D" stroke-width="1.5" stroke-linecap="round" stroke-linejoin="round"/>
</g>
<defs>
<clipPath id="clip0_533_4124">
<rect width="30" height="30" fill="white"/>
</clipPath>
</defs>
</svg>
