<svg width="44" height="44" viewBox="0 0 44 44" fill="none" xmlns="http://www.w3.org/2000/svg">
<path d="M35.2969 28.0033C35.1456 28.0033 34.9985 27.9533 34.8784 27.8612C34.7583 27.7691 34.672 27.6399 34.6329 27.4937C34.5937 27.3476 34.6039 27.1925 34.6618 27.0527C34.7197 26.9129 34.8221 26.7961 34.9532 26.7204L40.3115 23.6267L39.9678 23.0313C39.9219 22.9531 39.892 22.8666 39.8797 22.7767C39.8674 22.6869 39.873 22.5955 39.8962 22.5079C39.9194 22.4202 39.9597 22.338 40.0147 22.266C40.0698 22.194 40.1386 22.1335 40.2171 22.0882C40.2956 22.0429 40.3824 22.0135 40.4723 22.0018C40.5622 21.9901 40.6535 21.9964 40.741 22.0201C40.8285 22.0439 40.9104 22.0847 40.9821 22.1402C41.0538 22.1958 41.1137 22.265 41.1585 22.3438L41.846 23.5345C41.8914 23.6128 41.9208 23.6993 41.9326 23.789C41.9445 23.8787 41.9385 23.9698 41.9151 24.0572C41.8916 24.1445 41.8512 24.2264 41.796 24.2981C41.7409 24.3698 41.6721 24.43 41.5937 24.475L35.64 27.9125C35.5355 27.9723 35.4172 28.0036 35.2969 28.0033Z" fill="#93999A"/>
<path d="M36.5781 25.5957L31.8151 28.3457C31.1575 28.7254 30.9322 29.5663 31.3119 30.224L34.0619 34.987C34.4416 35.6446 35.2825 35.8699 35.9401 35.4902L40.7031 32.7402C41.3608 32.3605 41.5861 31.5196 41.2064 30.862L38.4564 26.099C38.0767 25.4413 37.2358 25.216 36.5781 25.5957Z" fill="#F9E109"/>
<path d="M40.4697 29.5852C39.5548 29.9319 38.5465 29.9421 37.6248 29.614C36.7031 29.286 35.928 28.641 35.4379 27.7943L34.7717 26.6406L31.8155 28.347C31.4997 28.5293 31.2692 28.8297 31.1748 29.1819C31.0805 29.5341 31.1299 29.9094 31.3122 30.2253L34.0622 34.9882C34.2445 35.304 34.5449 35.5345 34.8971 35.6289C35.2493 35.7232 35.6246 35.6738 35.9405 35.4915L40.7035 32.7415C41.0193 32.5592 41.2497 32.2588 41.3441 31.9066C41.4384 31.5544 41.389 31.1791 41.2067 30.8632L40.4697 29.5852Z" fill="#FCBC04"/>
<path d="M36.2602 31.918C37.0196 31.918 37.6352 31.3024 37.6352 30.543C37.6352 29.7836 37.0196 29.168 36.2602 29.168C35.5008 29.168 34.8852 29.7836 34.8852 30.543C34.8852 31.3024 35.5008 31.918 36.2602 31.918Z" fill="#F89C8D"/>
<path d="M35.9343 30.25C35.7612 29.9491 35.7091 29.5937 35.7885 29.2559C35.714 29.2824 35.6418 29.3151 35.5726 29.3535C35.3742 29.467 35.2073 29.6283 35.0869 29.8226C34.9665 30.0169 34.8964 30.2382 34.883 30.4664C34.8697 30.6946 34.9134 30.9225 35.0103 31.1296C35.1072 31.3366 35.2541 31.5163 35.4379 31.6522C35.6217 31.7882 35.8364 31.8762 36.0628 31.9082C36.2891 31.9403 36.5199 31.9154 36.7342 31.8359C36.9485 31.7563 37.1396 31.6246 37.2902 31.4526C37.4408 31.2806 37.5461 31.0738 37.5966 30.8509C37.2931 30.9621 36.9601 30.9628 36.6561 30.8529C36.3521 30.7431 36.0965 30.5296 35.9343 30.25Z" fill="#F8664F"/>
<path d="M27.3653 2.0625L19.1153 16.3522L25.6644 20.1334L25.1612 18.2552L27.0394 17.7519L25.9408 15.5292L27.819 15.026L26.7204 12.804L28.5987 12.3007L27.5 10.0787L29.3783 9.5755L28.875 7.69725L30.7533 7.194L30.9375 4.125L27.3653 2.0625Z" fill="#D0D8DA"/>
<path d="M26.7204 12.804L26.9314 12.7476C26.3787 12.2169 26.0196 11.5164 25.9113 10.7578C25.803 9.99927 25.9518 9.22629 26.334 8.56213L29.4064 3.24088L27.3625 2.0625L19.1125 16.3522L25.6616 20.1334L25.1625 18.2552L27.0407 17.7512L25.9407 15.5292L27.819 15.026L26.7204 12.804Z" fill="#93999A"/>
<path d="M4.81219 23.375L16.7197 30.25L13.9697 35.013L2.06219 28.138L4.81219 23.375Z" fill="#84D2F4"/>
<path d="M9.38331 26.0156C8.90385 26.7475 8.16276 27.2683 7.31178 27.4715C6.4608 27.6748 5.56433 27.545 4.80593 27.1088L3.19512 26.1786L2.06281 28.14L13.9703 35.015L16.7203 30.252L9.38331 26.0156Z" fill="#57B7EB"/>
<path d="M7.78937 25.0938L6.41437 27.4753C6.36955 27.5541 6.30959 27.6232 6.23794 27.6788C6.16628 27.7343 6.08434 27.7752 5.99684 27.7989C5.90934 27.8227 5.81801 27.8289 5.7281 27.8172C5.63819 27.8055 5.55147 27.7762 5.47295 27.7308C5.39443 27.6855 5.32566 27.6251 5.27058 27.5531C5.21551 27.481 5.17522 27.3988 5.15205 27.3112C5.12887 27.2235 5.12327 27.1321 5.13555 27.0423C5.14783 26.9525 5.17776 26.866 5.22362 26.7878L6.59862 24.4062L7.78937 25.0938Z" fill="#F9E109"/>
<path d="M10.1709 26.4688L8.7959 28.8503C8.75108 28.9291 8.69112 28.9982 8.61947 29.0538C8.54781 29.1093 8.46587 29.1502 8.37837 29.1739C8.29087 29.1977 8.19954 29.2039 8.10963 29.1922C8.01972 29.1805 7.933 29.1512 7.85448 29.1058C7.77596 29.0605 7.70719 29.0001 7.65211 28.9281C7.59704 28.856 7.55675 28.7738 7.53358 28.6862C7.5104 28.5985 7.5048 28.5071 7.51708 28.4173C7.52936 28.3275 7.55929 28.241 7.60515 28.1628L8.98015 25.7812L10.1709 26.4688Z" fill="#F9E109"/>
<path d="M6.34552 27.5622C6.28301 27.6427 6.20266 27.7076 6.11079 27.7517C6.01892 27.7959 5.91806 27.8181 5.81615 27.8166C5.69575 27.8171 5.57728 27.7863 5.4724 27.7272C5.38858 27.679 5.31586 27.6137 5.259 27.5355C5.20214 27.4573 5.16241 27.368 5.1424 27.2734C5.52013 27.4491 5.92922 27.5473 6.34552 27.5622Z" fill="#FCBC04"/>
<path d="M10.168 26.4694L8.79302 28.8481C8.73468 28.9535 8.64892 29.041 8.54482 29.1016C8.44072 29.1621 8.32218 29.1933 8.20177 29.1919C8.08086 29.1924 7.96196 29.1609 7.85706 29.1008C7.75217 29.0407 7.66499 28.9539 7.60433 28.8493C7.54366 28.7447 7.51166 28.626 7.51154 28.5051C7.51142 28.3841 7.54319 28.2653 7.60365 28.1606L8.21552 27.1087C8.68633 26.8423 9.08695 26.4676 9.38427 26.0156L10.168 26.4694Z" fill="#FCBC04"/>
<path d="M5.9491 11.9609L11.2958 6.61425L16.1564 11.4749L10.8097 16.8216L5.9491 11.9609Z" fill="#D0D8DA"/>
<path d="M2.06091 15.8477L4.00516 13.9034L8.86579 18.764L6.92154 20.7083L2.06091 15.8477Z" fill="#D0D8DA"/>
<path d="M4.97742 14.877L6.92196 12.9324L9.83878 15.8492L7.89423 17.7938L4.97742 14.877Z" fill="#656B76"/>
<path d="M18.5914 7.09867L18.5467 7.11105C17.7459 7.32925 17.016 7.75273 16.4292 8.33959C15.8423 8.92645 15.4188 9.65636 15.2006 10.4571L15.1882 10.5018L12.2712 7.58473C12.979 6.87681 13.8915 6.40954 14.8797 6.24913C15.8678 6.08872 16.8813 6.24331 17.7767 6.69098L18.5914 7.09867Z" fill="#D0D8DA"/>
<path d="M12.2679 15.3613L15.1843 12.445L24.9056 22.1662L21.9892 25.0826L12.2679 15.3613Z" fill="#57B7EB"/>
<path d="M12.7576 12.1289C12.5022 12.3843 12.1991 12.5868 11.8654 12.7251C11.5318 12.8633 11.1741 12.9344 10.813 12.9344C10.4518 12.9344 10.0942 12.8633 9.76058 12.7251C9.42693 12.5868 9.12376 12.3843 8.8684 12.1289L7.32703 10.5896L5.95203 11.9646L10.8133 16.8259L16.1607 11.4785L14.7857 10.1035L12.7576 12.1289Z" fill="#93999A"/>
<path d="M5.46599 17.8776L2.75037 15.1641L2.06287 15.8516L6.92418 20.7129L8.86912 18.7714L8.16099 18.0605C7.76539 18.3605 7.2746 18.5072 6.77925 18.4736C6.2839 18.44 5.81744 18.2283 5.46599 17.8776Z" fill="#93999A"/>
<path d="M17.1032 6.41992C16.6067 6.76155 16.1794 7.19403 15.8437 7.69455C15.7444 7.84748 15.6122 7.97628 15.4567 8.0715C15.3013 8.16672 15.1265 8.22596 14.9451 8.24488C14.7638 8.2638 14.5805 8.24191 14.4088 8.18083C14.237 8.11975 14.081 8.02101 13.9524 7.89186L13.0387 6.97817C12.7626 7.15373 12.5055 7.35739 12.2714 7.58592L15.1885 10.503L15.2002 10.4583C15.4186 9.65756 15.8423 8.9277 16.4292 8.34086C17.0162 7.75402 17.7461 7.33052 18.5469 7.11223L18.5916 7.09986L17.7769 6.69286C17.5596 6.58492 17.3344 6.49368 17.1032 6.41992Z" fill="#93999A"/>
<path d="M17.3485 14.6055L16.4768 15.4773C16.299 15.6548 16.0581 15.7546 15.8068 15.7546C15.5556 15.7546 15.3146 15.6548 15.1369 15.4773C14.9593 15.2994 14.8595 15.0583 14.8595 14.807C14.8595 14.5556 14.9593 14.3146 15.1369 14.1367L16.0079 13.2684L15.1884 12.4434L12.2714 15.3604L21.994 25.0851L24.911 22.168L17.3485 14.6055Z" fill="#4891D3"/>
<path d="M33.5218 14.4297L36.4382 17.3461L25.7448 28.0394L22.8284 25.1231L33.5218 14.4297Z" fill="#93999A"/>
<path d="M32.7766 15.1797L29.3983 18.5608C29.524 18.7188 29.6585 18.8696 29.8011 19.0125C30.71 19.924 31.9111 20.4861 33.1933 20.5999L36.4376 17.3501L35.4063 16.3189L34.6597 17.0655L32.7766 15.1797Z" fill="#656B76"/>
<path d="M41.5023 12.2888L37.4124 16.3788L34.4953 13.4617L38.5852 9.37179C37.4101 8.87361 36.0983 8.79965 34.8746 9.16258C33.651 9.5255 32.5916 10.3027 31.8781 11.361C31.1646 12.4193 30.8414 13.6929 30.9639 14.9633C31.0864 16.2338 31.6469 17.4221 32.5495 18.3246C33.452 19.2272 34.6403 19.7877 35.9108 19.9102C37.1812 20.0326 38.4547 19.7094 39.5131 18.996C40.5714 18.2825 41.3486 17.2231 41.7115 15.9994C42.0744 14.7758 42.0005 13.464 41.5023 12.2888Z" fill="#D0D8DA"/>
<path d="M41.0163 15.5734C40.2529 16.3379 39.2811 16.8605 38.2224 17.0758C37.1636 17.2911 36.0649 17.1895 35.0636 16.7839C34.0622 16.3782 33.2027 15.6864 32.5923 14.7949C31.982 13.9034 31.6479 12.8518 31.6319 11.7715C31.2206 12.5079 30.9843 13.3291 30.9413 14.1716C30.8984 15.014 31.05 15.855 31.3843 16.6294C31.7187 17.4038 32.2268 18.0909 32.8694 18.6374C33.5119 19.1838 34.2717 19.575 35.0897 19.7807C35.9078 19.9863 36.7622 20.0009 37.5868 19.8232C38.4114 19.6455 39.1841 19.2804 39.8449 18.7561C40.5057 18.2319 41.0369 17.5625 41.3974 16.7999C41.7579 16.0373 41.938 15.2019 41.9238 14.3585C41.6794 14.8038 41.374 15.2127 41.0163 15.5734Z" fill="#93999A"/>
<path d="M37.0632 41.9362H6.93693C6.4496 41.9362 5.97102 41.8067 5.55018 41.5609C5.12934 41.3152 4.78136 40.962 4.54187 40.5376C4.30238 40.1132 4.17998 39.6327 4.18719 39.1454C4.19441 38.6582 4.33098 38.1816 4.58293 37.7644L19.6461 12.8322C19.8909 12.4269 20.2362 12.0916 20.6486 11.8589C21.061 11.6262 21.5265 11.5039 22.0001 11.5039C22.4736 11.5039 22.9391 11.6262 23.3515 11.8589C23.7639 12.0916 24.1093 12.4269 24.3541 12.8322L39.4172 37.7644C39.6691 38.1816 39.8057 38.6582 39.8129 39.1454C39.8201 39.6327 39.6977 40.1132 39.4582 40.5376C39.2187 40.962 38.8708 41.3152 38.4499 41.5609C38.0291 41.8067 37.5505 41.9362 37.0632 41.9362Z" fill="#F9E109"/>
<path d="M37.3684 34.3736H30.2501C28.062 34.3736 25.9636 33.5044 24.4164 31.9573C22.8692 30.4101 22.0001 28.3117 22.0001 26.1236V11.5039C21.5261 11.5016 21.0597 11.6228 20.6468 11.8558C20.234 12.0887 19.8891 12.4252 19.6461 12.8322L4.58293 37.7644C4.33098 38.1815 4.19441 38.6581 4.18719 39.1454C4.17998 39.6327 4.30238 40.1131 4.54187 40.5376C4.78136 40.962 5.12934 41.3152 5.55018 41.5609C5.97102 41.8066 6.4496 41.9361 6.93693 41.9361H37.0632C37.5505 41.9361 38.0291 41.8066 38.4499 41.5609C38.8708 41.3152 39.2187 40.962 39.4582 40.5376C39.6977 40.1131 39.8201 39.6327 39.8129 39.1454C39.8057 38.6581 39.6691 38.1815 39.4172 37.7644L37.3684 34.3736Z" fill="#FCBC04"/>
<path d="M22.0002 32.3125C21.6283 32.3125 21.2706 32.17 21.0006 31.9142C20.7306 31.6584 20.569 31.3089 20.5489 30.9375L20.0518 22C20.0368 21.7348 20.076 21.4693 20.1671 21.2198C20.2582 20.9703 20.3993 20.7421 20.5817 20.549C20.7641 20.3559 20.984 20.2021 21.2279 20.0969C21.4718 19.9918 21.7346 19.9375 22.0002 19.9375C22.2658 19.9375 22.5286 19.9918 22.7726 20.0969C23.0165 20.2021 23.2364 20.3559 23.4188 20.549C23.6012 20.7421 23.7422 20.9703 23.8333 21.2198C23.9244 21.4693 23.9637 21.7348 23.9486 22L23.4515 30.9375C23.4315 31.3089 23.2698 31.6584 22.9999 31.9142C22.7299 32.17 22.3721 32.3125 22.0002 32.3125Z" fill="#F8664F"/>
<path d="M22.0002 37.8125C22.7596 37.8125 23.3752 37.1969 23.3752 36.4375C23.3752 35.6781 22.7596 35.0625 22.0002 35.0625C21.2409 35.0625 20.6252 35.6781 20.6252 36.4375C20.6252 37.1969 21.2409 37.8125 22.0002 37.8125Z" fill="#CC5144"/>
<path d="M20.5489 30.9375C20.5687 31.309 20.7303 31.6588 21.0003 31.9148C21.2703 32.1708 21.6282 32.3135 22.0002 32.3135C22.3723 32.3135 22.7302 32.1708 23.0002 31.9148C23.2702 31.6588 23.4317 31.309 23.4515 30.9375L23.4591 30.8C22.5081 29.4266 21.9992 27.7955 22.0002 26.125V19.9375C21.7346 19.9375 21.4718 19.9918 21.2279 20.0969C20.984 20.2021 20.7641 20.3559 20.5817 20.549C20.3993 20.7421 20.2582 20.9703 20.1671 21.2198C20.076 21.4693 20.0368 21.7348 20.0518 22L20.5489 30.9375Z" fill="#CC5144"/>
</svg>
