<svg width="30" height="30" viewBox="0 0 30 30" fill="none" xmlns="http://www.w3.org/2000/svg">
<g clip-path="url(#clip0_494_6322)">
<path d="M18.2143 10.7154C19.3977 10.7154 20.3571 9.75601 20.3571 8.57254C20.3571 7.38908 19.3977 6.42969 18.2143 6.42969C17.0308 6.42969 16.0714 7.38908 16.0714 8.57254C16.0714 9.75601 17.0308 10.7154 18.2143 10.7154Z" stroke="#0D0D0D" stroke-width="1.5" stroke-linecap="round" stroke-linejoin="round"/>
<path d="M9.64284 21.428C10.2346 21.428 10.7143 20.9483 10.7143 20.3566C10.7143 19.7649 10.2346 19.2852 9.64284 19.2852C9.05111 19.2852 8.57141 19.7649 8.57141 20.3566C8.57141 20.9483 9.05111 21.428 9.64284 21.428Z" stroke="#0D0D0D" stroke-width="1.5" stroke-linecap="round" stroke-linejoin="round"/>
<path d="M9.64286 13.9263C10.8263 13.9263 11.7857 12.9669 11.7857 11.7835C11.7857 10.6 10.8263 9.64062 9.64286 9.64062C8.45939 9.64062 7.5 10.6 7.5 11.7835C7.5 12.9669 8.45939 13.9263 9.64286 13.9263Z" stroke="#0D0D0D" stroke-width="1.5" stroke-linecap="round" stroke-linejoin="round"/>
<path d="M20.4 26.3132C20.3761 25.8975 20.2317 25.4978 19.9843 25.1629C19.737 24.8281 19.3974 24.5725 19.0072 24.4275C18.0379 24.1089 17.2142 23.4551 16.6839 22.5835C16.1537 21.7119 15.9518 20.6797 16.1144 19.6726C16.2771 18.6654 16.7938 17.7493 17.5715 17.089C18.3492 16.4287 19.3369 16.0675 20.3572 16.0703H24.3643C25.0516 16.0722 25.7292 15.9088 26.3401 15.5939C26.951 15.2789 27.4772 14.8217 27.8742 14.2607C28.2713 13.6998 28.5277 13.0515 28.6217 12.3707C28.7157 11.6899 28.6445 10.9965 28.4143 10.3489C27.562 7.94239 26.0647 5.81643 24.086 4.20327C22.1072 2.59012 19.7232 1.55182 17.1943 1.20183C14.6655 0.851836 12.0891 1.20361 9.74659 2.21871C7.40411 3.23382 5.38568 4.87321 3.91183 6.95776C2.43797 9.04232 1.56538 11.4919 1.3894 14.0388C1.21342 16.5856 1.74081 19.1319 2.91395 21.3994C4.0871 23.6668 5.86087 25.5683 8.04147 26.8959C10.2221 28.2235 12.7256 28.9263 15.2786 28.9275C16.5394 28.931 17.7944 28.7579 19.0072 28.4132C19.4526 28.2884 19.8383 28.0076 20.094 27.6221C20.3497 27.2366 20.4583 26.7721 20.4 26.3132V26.3132Z" stroke="#0D0D0D" stroke-width="1.5" stroke-linecap="round" stroke-linejoin="round"/>
</g>
<defs>
<clipPath id="clip0_494_6322">
<rect width="30" height="30" fill="white"/>
</clipPath>
</defs>
</svg>
