<svg width="20" height="20" viewBox="0 0 20 20" fill="none" xmlns="http://www.w3.org/2000/svg">
<g clip-path="url(#clip0_533_2414)">
<path d="M12.5143 18.5707C13.394 19.1383 14.4424 19.3856 15.483 19.2711C16.5237 19.1567 17.4932 18.6874 18.2286 17.9421L18.8714 17.3136C19.1533 17.0253 19.3111 16.6382 19.3111 16.235C19.3111 15.8319 19.1533 15.4447 18.8714 15.1564L16.1428 12.4564C15.857 12.1755 15.4722 12.0181 15.0714 12.0181C14.6706 12.0181 14.2859 12.1755 14 12.4564V12.4564C13.7117 12.7383 13.3246 12.8961 12.9214 12.8961C12.5183 12.8961 12.1311 12.7383 11.8428 12.4564L7.55713 8.17072C7.41416 8.02983 7.30063 7.86192 7.22314 7.67676C7.14565 7.4916 7.10574 7.29287 7.10574 7.09215C7.10574 6.89143 7.14565 6.6927 7.22314 6.50754C7.30063 6.32238 7.41416 6.15447 7.55713 6.01358V6.01358C7.83807 5.72772 7.99549 5.34295 7.99549 4.94215C7.99549 4.54135 7.83807 4.15658 7.55713 3.87072L4.84285 1.15644C4.55457 0.8746 4.16743 0.716797 3.76427 0.716797C3.36112 0.716797 2.97398 0.8746 2.6857 1.15644L2.05713 1.79929C1.31191 2.53464 0.842609 3.50415 0.728136 4.54482C0.613663 5.58548 0.861 6.63383 1.42856 7.51358C4.38577 11.8718 8.14847 15.6248 12.5143 18.5707V18.5707Z" stroke="#FED403" stroke-width="1.5" stroke-linecap="round" stroke-linejoin="round"/>
</g>
<defs>
<clipPath id="clip0_533_2414">
<rect width="20" height="20" fill="white"/>
</clipPath>
</defs>
</svg>
