<svg width="15" height="15" viewBox="0 0 15 15" fill="none" xmlns="http://www.w3.org/2000/svg">
<g clip-path="url(#clip0_580_1819)">
<path d="M1.60756 2.67857C1.3234 2.67857 1.05088 2.79146 0.849947 2.99239C0.649015 3.19332 0.536133 3.46584 0.536133 3.75V13.3929C0.536133 13.677 0.649015 13.9495 0.849947 14.1505C1.05088 14.3514 1.3234 14.4643 1.60756 14.4643H13.3933C13.6774 14.4643 13.95 14.3514 14.1509 14.1505C14.3518 13.9495 14.4647 13.677 14.4647 13.3929V3.75C14.4647 3.46584 14.3518 3.19332 14.1509 2.99239C13.95 2.79146 13.6774 2.67857 13.3933 2.67857H11.2504" stroke="#0D0D0D" stroke-linecap="round" stroke-linejoin="round"/>
<path d="M3.75 0.535721V4.82143" stroke="#0D0D0D" stroke-linecap="round" stroke-linejoin="round"/>
<path d="M11.25 0.535721V4.82143" stroke="#0D0D0D" stroke-linecap="round" stroke-linejoin="round"/>
<path d="M3.75 2.67857H9.10714" stroke="#0D0D0D" stroke-linecap="round" stroke-linejoin="round"/>
<path d="M3.75056 8.57143C4.04642 8.57143 4.28627 8.33158 4.28627 8.03571C4.28627 7.73985 4.04642 7.5 3.75056 7.5C3.45469 7.5 3.21484 7.73985 3.21484 8.03571C3.21484 8.33158 3.45469 8.57143 3.75056 8.57143Z" stroke="#0D0D0D" stroke-linecap="round" stroke-linejoin="round"/>
<path d="M7.50056 8.57143C7.79642 8.57143 8.03627 8.33158 8.03627 8.03571C8.03627 7.73985 7.79642 7.5 7.50056 7.5C7.20469 7.5 6.96484 7.73985 6.96484 8.03571C6.96484 8.33158 7.20469 8.57143 7.50056 8.57143Z" stroke="#0D0D0D" stroke-linecap="round" stroke-linejoin="round"/>
<path d="M11.2506 8.57143C11.5464 8.57143 11.7863 8.33158 11.7863 8.03571C11.7863 7.73985 11.5464 7.5 11.2506 7.5C10.9547 7.5 10.7148 7.73985 10.7148 8.03571C10.7148 8.33158 10.9547 8.57143 11.2506 8.57143Z" stroke="#0D0D0D" stroke-linecap="round" stroke-linejoin="round"/>
<path d="M3.75056 11.7857C4.04642 11.7857 4.28627 11.5459 4.28627 11.25C4.28627 10.9541 4.04642 10.7143 3.75056 10.7143C3.45469 10.7143 3.21484 10.9541 3.21484 11.25C3.21484 11.5459 3.45469 11.7857 3.75056 11.7857Z" stroke="#0D0D0D" stroke-linecap="round" stroke-linejoin="round"/>
</g>
<defs>
<clipPath id="clip0_580_1819">
<rect width="15" height="15" fill="white"/>
</clipPath>
</defs>
</svg>
