<svg width="27" height="27" viewBox="0 0 27 27" fill="none" xmlns="http://www.w3.org/2000/svg">
<path d="M14.1564 13.0552C13.8711 13.1791 13.5634 13.243 13.2524 13.243C12.9414 13.243 12.6337 13.1791 12.3484 13.0552L1.38501 7.97745C1.20698 7.88765 1.05737 7.7502 0.952844 7.58041C0.848315 7.41061 0.792969 7.21514 0.792969 7.01575C0.792969 6.81635 0.848315 6.62088 0.952844 6.45108C1.05737 6.28129 1.20698 6.14384 1.38501 6.05405L12.3484 0.937804C12.6337 0.813924 12.9414 0.75 13.2524 0.75C13.5634 0.75 13.8711 0.813924 14.1564 0.937804L25.1198 6.01558C25.2978 6.10537 25.4474 6.24282 25.5519 6.41261C25.6565 6.58241 25.7118 6.77789 25.7118 6.97728C25.7118 7.17667 25.6565 7.37215 25.5519 7.54194C25.4474 7.71174 25.2978 7.84918 25.1198 7.93898L14.1564 13.0552Z" stroke="#0D0D0D" stroke-width="1.5" stroke-linecap="round" stroke-linejoin="round"/>
<path d="M25.7542 13.9199L14.0215 19.3247C13.7709 19.439 13.4987 19.4981 13.2232 19.4981C12.9478 19.4981 12.6756 19.439 12.425 19.3247L0.75 13.9199" stroke="#0D0D0D" stroke-width="1.5" stroke-linecap="round" stroke-linejoin="round"/>
<path d="M25.7542 20.1718L14.0215 25.5766C13.7709 25.6909 13.4987 25.75 13.2232 25.75C12.9478 25.75 12.6756 25.6909 12.425 25.5766L0.75 20.1718" stroke="#0D0D0D" stroke-width="1.5" stroke-linecap="round" stroke-linejoin="round"/>
</svg>
