<svg width="30" height="30" viewBox="0 0 30 30" fill="none" xmlns="http://www.w3.org/2000/svg">
<path d="M22.8002 3.30072H7.20022C6.84057 3.3106 6.48829 3.40497 6.17187 3.57621C5.85545 3.74745 5.58376 3.99075 5.37879 4.28643L1.47879 9.68643C1.18919 10.0957 1.04457 10.5899 1.06786 11.0907C1.09115 11.5915 1.28103 12.0701 1.60736 12.4507L13.3074 25.9293C13.5077 26.1874 13.7643 26.3963 14.0577 26.54C14.3511 26.6836 14.6735 26.7583 15.0002 26.7583C15.3269 26.7583 15.6493 26.6836 15.9427 26.54C16.2361 26.3963 16.4928 26.1874 16.6931 25.9293L28.3931 12.4507C28.7194 12.0701 28.9093 11.5915 28.9326 11.0907C28.9559 10.5899 28.8112 10.0957 28.5216 9.68643L24.6216 4.28643C24.4167 3.99075 24.145 3.74745 23.8286 3.57621C23.5121 3.40497 23.1599 3.3106 22.8002 3.30072V3.30072Z" stroke="#0D0D0D" stroke-width="1.5" stroke-linecap="round" stroke-linejoin="round"/>
<path d="M13.8859 3.2793L8.65735 11.3793L15.0002 26.7007" stroke="#0D0D0D" stroke-width="1.5" stroke-linecap="round" stroke-linejoin="round"/>
<path d="M16.1788 3.2793L21.386 11.3793L15.0002 26.7007" stroke="#0D0D0D" stroke-width="1.5" stroke-linecap="round" stroke-linejoin="round"/>
<path d="M1.11426 11.3789H28.8857" stroke="#0D0D0D" stroke-width="1.5" stroke-linecap="round" stroke-linejoin="round"/>
</svg>
