<svg width="15" height="15" viewBox="0 0 15 15" fill="none" xmlns="http://www.w3.org/2000/svg">
<g clip-path="url(#clip0_580_1801)">
<path d="M0.975385 13.4571L0.536099 5.95715C0.526965 5.88159 0.534033 5.80496 0.556834 5.73235C0.579635 5.65974 0.617644 5.59282 0.668331 5.53605C0.719019 5.47928 0.78122 5.43396 0.850792 5.40312C0.920364 5.37227 0.995711 5.3566 1.07181 5.35715H6.0111C6.13119 5.35789 6.24769 5.39817 6.34258 5.47177C6.43748 5.54536 6.50549 5.64817 6.5361 5.76429L6.96467 7.5H13.929C14.0031 7.49977 14.0764 7.51491 14.1444 7.54447C14.2123 7.57403 14.2734 7.61737 14.3238 7.67175C14.3741 7.72612 14.4126 7.79036 14.4369 7.86038C14.4611 7.93041 14.4706 8.0047 14.4647 8.07857L14.0468 13.4357C14.0252 13.7048 13.9029 13.9558 13.7042 14.1385C13.5056 14.3213 13.2453 14.4223 12.9754 14.4214H2.04681C1.78028 14.4228 1.52281 14.3247 1.3247 14.1464C1.12658 13.9681 1.00204 13.7223 0.975385 13.4571Z" stroke="#0D0D0D" stroke-linecap="round" stroke-linejoin="round"/>
<path d="M3.75 3.21428V1.07143C3.75 0.929347 3.80644 0.793086 3.90691 0.69262C4.00737 0.592154 4.14363 0.535713 4.28571 0.535713H13.3929C13.5349 0.535713 13.6712 0.592154 13.7717 0.69262C13.8721 0.793086 13.9286 0.929347 13.9286 1.07143V5.35714" stroke="#0D0D0D" stroke-linecap="round" stroke-linejoin="round"/>
<path d="M8.03613 3.21429H11.2504" stroke="#0D0D0D" stroke-linecap="round" stroke-linejoin="round"/>
</g>
<defs>
<clipPath id="clip0_580_1801">
<rect width="15" height="15" fill="white"/>
</clipPath>
</defs>
</svg>
