<svg width="24" height="24" viewBox="0 0 24 24" fill="none" xmlns="http://www.w3.org/2000/svg">
<path d="M18.24 2.64062H5.76C5.47228 2.64853 5.19046 2.72402 4.93732 2.86102C4.68419 2.99801 4.46684 3.19265 4.30286 3.4292L1.18286 7.7492C0.951184 8.07658 0.835484 8.47196 0.854118 8.87259C0.872752 9.27323 1.02465 9.65616 1.28572 9.96063L10.6457 20.7435C10.806 20.95 11.0113 21.1171 11.246 21.232C11.4807 21.347 11.7386 21.4067 12 21.4067C12.2614 21.4067 12.5193 21.347 12.754 21.232C12.9887 21.1171 13.194 20.95 13.3543 20.7435L22.7143 9.96063C22.9754 9.65616 23.1273 9.27323 23.1459 8.87259C23.1645 8.47196 23.0488 8.07658 22.8171 7.7492L19.6971 3.4292C19.5332 3.19265 19.3158 2.99801 19.0627 2.86102C18.8095 2.72402 18.5277 2.64853 18.24 2.64062V2.64062Z" stroke="#0D0D0D" stroke-width="1.5" stroke-linecap="round" stroke-linejoin="round"/>
<path d="M11.1085 2.62305L6.92566 9.10305L11.9999 21.3602" stroke="#0D0D0D" stroke-width="1.5" stroke-linecap="round" stroke-linejoin="round"/>
<path d="M12.9429 2.62305L17.1086 9.10305L12 21.3602" stroke="#0D0D0D" stroke-width="1.5" stroke-linecap="round" stroke-linejoin="round"/>
<path d="M0.891479 9.10352H23.1086" stroke="#0D0D0D" stroke-width="1.5" stroke-linecap="round" stroke-linejoin="round"/>
</svg>
