<svg width="30" height="30" viewBox="0 0 30 30" fill="none" xmlns="http://www.w3.org/2000/svg">
<path d="M9.64272 27.8577C14.3766 27.8577 18.2141 24.0201 18.2141 19.2863C18.2141 14.5524 14.3766 10.7148 9.64272 10.7148C4.90885 10.7148 1.07129 14.5524 1.07129 19.2863C1.07129 24.0201 4.90885 27.8577 9.64272 27.8577Z" stroke="#0D0D0D" stroke-width="1.5" stroke-linecap="round" stroke-linejoin="round"/>
<path d="M20.3571 27.8577C25.0909 27.8577 28.9285 24.0201 28.9285 19.2863C28.9285 14.5524 25.0909 10.7148 20.3571 10.7148C15.6232 10.7148 11.7856 14.5524 11.7856 19.2863C11.7856 24.0201 15.6232 27.8577 20.3571 27.8577Z" stroke="#0D0D0D" stroke-width="1.5" stroke-linecap="round" stroke-linejoin="round"/>
<path d="M14.9999 19.2874C19.7338 19.2874 23.5713 15.4498 23.5713 10.716C23.5713 5.98209 19.7338 2.14453 14.9999 2.14453C10.266 2.14453 6.42847 5.98209 6.42847 10.716C6.42847 15.4498 10.266 19.2874 14.9999 19.2874Z" stroke="#0D0D0D" stroke-width="1.5" stroke-linecap="round" stroke-linejoin="round"/>
</svg>
