<svg width="22" height="22" viewBox="0 0 22 22" fill="none" xmlns="http://www.w3.org/2000/svg">
<g clip-path="url(#clip0_291_38996)">
<path d="M13.3572 14.9289C13.7739 14.9289 14.1736 14.7633 14.4683 14.4686C14.763 14.1739 14.9286 13.7742 14.9286 13.3574" stroke="#0D0D0D" stroke-width="1.5" stroke-linecap="round" stroke-linejoin="round"/>
<path d="M7.07153 14.9277H9.42868" stroke="#0D0D0D" stroke-width="1.5" stroke-linecap="round" stroke-linejoin="round"/>
<path d="M14.9288 7.07031V9.42746" stroke="#0D0D0D" stroke-width="1.5" stroke-linecap="round" stroke-linejoin="round"/>
<path d="M8.64296 7.07031C8.22619 7.07031 7.82649 7.23587 7.53179 7.53057C7.23709 7.82527 7.07153 8.22497 7.07153 8.64174" stroke="#0D0D0D" stroke-width="1.5" stroke-linecap="round" stroke-linejoin="round"/>
<path d="M0.785767 2.35658C0.785767 1.93982 0.951327 1.54012 1.24603 1.24542C1.54073 0.950717 1.94043 0.785156 2.35719 0.785156H13.3572C13.774 0.785156 14.1737 0.950717 14.4684 1.24542C14.7631 1.54012 14.9286 1.93982 14.9286 2.35658V7.07087H19.6429C20.0597 7.07087 20.4594 7.23643 20.7541 7.53113C21.0488 7.82583 21.2143 8.22553 21.2143 8.6423V19.6423C21.2143 20.0591 21.0488 20.4588 20.7541 20.7535C20.4594 21.0482 20.0597 21.2137 19.6429 21.2137H8.64291C8.22614 21.2137 7.82644 21.0482 7.53174 20.7535C7.23704 20.4588 7.07148 20.0591 7.07148 19.6423V14.928H2.35719C1.94043 14.928 1.54073 14.7624 1.24603 14.4677C0.951327 14.173 0.785767 13.7734 0.785767 13.3566V2.35658Z" stroke="#0D0D0D" stroke-width="1.5" stroke-linecap="round" stroke-linejoin="round"/>
<path d="M12.5715 7.07031H14.9287" stroke="#0D0D0D" stroke-width="1.5" stroke-linecap="round" stroke-linejoin="round"/>
<path d="M7.07153 12.5703V14.9275" stroke="#0D0D0D" stroke-width="1.5" stroke-linecap="round" stroke-linejoin="round"/>
</g>
<defs>
<clipPath id="clip0_291_38996">
<rect width="22" height="22" fill="white"/>
</clipPath>
</defs>
</svg>
