<svg width="74" height="60" viewBox="0 0 74 60" fill="none" xmlns="http://www.w3.org/2000/svg">
<path d="M24.5456 20.6197C24.5456 20.4673 24.5456 18.25 24.5456 18.25H23.228C23.228 18.25 23.228 20.4329 23.228 20.5018C23.228 20.9049 22.8544 21.1753 22.2251 21.1753C21.5663 21.1753 21.2074 20.9147 21.2074 20.4968C21.2074 20.428 21.2074 18.25 21.2074 18.25H19.875C19.875 18.25 19.875 20.3198 19.875 20.4968C19.875 21.6669 20.8337 22.1635 22.171 22.1635C23.6017 22.1635 24.5456 21.662 24.5456 20.6197Z" fill="#0D0D0D"/>
<path d="M28.9833 22.1094V21.0819H26.6333V18.25H25.3009V22.1094H28.9833Z" fill="#0D0D0D"/>
<path d="M32.943 19.2186V18.25H28.3363V19.2186H29.9636V22.1094H31.3107V19.2186H32.943Z" fill="#0D0D0D"/>
<path d="M34.7143 22.1094V18.25H33.3623V22.1094H34.7143Z" fill="#0D0D0D"/>
<path d="M40.9172 22.1094V18.25H39.2505L38.1984 20.5657L37.1955 18.25H35.4747V22.1094H36.7284V20.0249L37.633 22.1094H38.754L39.6684 20.0249V22.1094H40.9172Z" fill="#0D0D0D"/>
<path d="M43.0055 21.3965H45.09L45.4293 22.1094H46.8502L44.9032 18.25H43.3153L41.2552 22.1094H42.6465L43.0055 21.3965ZM44.6721 20.5312H43.4381L43.9249 19.602L44.0723 19.2481L44.21 19.5971L44.6721 20.5312Z" fill="#0D0D0D"/>
<path d="M51.029 19.2186V18.25H46.4225V19.2186H48.0498V22.1094H49.397V19.2186H51.029Z" fill="#0D0D0D"/>
<path d="M55.509 22.1094V21.1507H52.742V20.6492H55.396V19.7102H52.742V19.2136H55.475V18.25H51.444V22.1094H55.509Z" fill="#0D0D0D"/>
<path d="M29.9232 24.1641H28.6498C28.6498 24.1641 27.8189 26.5928 27.8189 26.6518C27.8189 26.5928 27.0421 24.1641 27.0421 24.1641H25.6606C25.6606 24.1641 24.8887 26.5928 24.8887 26.6518C24.8887 26.5928 24.0529 24.1641 24.0529 24.1641H22.6222L24.0677 28.0235H25.5082C25.5082 28.0235 26.285 25.7177 26.2899 25.6538C26.2948 25.7177 27.0667 28.0235 27.0667 28.0235H28.5121L29.9232 24.1641Z" fill="#0D0D0D"/>
<path d="M31.6655 28.0235V24.1641H30.3135V28.0235H31.6655Z" fill="#0D0D0D"/>
<path d="M36.9245 28.0235V24.1641H35.6659V26.2634L33.8124 24.1641H32.4259V28.0235H33.6944V25.875L35.6069 28.0235H36.9245Z" fill="#0D0D0D"/>
<path d="M42.1914 28.0235V24.1641H40.9328V26.2634L39.0793 24.1641H37.6929V28.0235H38.9613V25.875L40.8738 28.0235H42.1914Z" fill="#0D0D0D"/>
<path d="M47.0257 28.0235V27.0648H44.2578V26.5633H46.9126V25.6243H44.2578V25.1277H46.9913V24.1641H42.9598V28.0235H47.0257Z" fill="#0D0D0D"/>
<path d="M52.2228 25.3391C52.2228 24.9901 52.1388 24.7393 51.9618 24.5574C51.7308 24.3116 51.3328 24.1641 50.7228 24.1641H47.6504V28.0235H48.9631V26.6617H50.1578L51.1168 28.0235H52.5818L51.4168 26.4502C51.6768 26.4109 51.8888 26.2536 52.0258 26.0668C52.1488 25.8947 52.2228 25.639 52.2228 25.3391ZM50.9448 25.462C50.9448 25.526 50.9348 25.6046 50.8998 25.6636C50.8508 25.7619 50.7228 25.8013 50.5118 25.8013H48.968V25.0982H50.4868C50.6938 25.0982 50.8318 25.1326 50.8998 25.2605C50.9348 25.3096 50.9448 25.3883 50.9448 25.462Z" fill="#0D0D0D"/>
<path d="M25.1002 31.8195C25.1002 31.7564 25.1002 29.9336 25.1002 29.9336H24.6399C24.6399 29.9336 24.6399 31.7489 24.6399 31.7898C24.6399 32.2278 24.2278 32.4766 23.6338 32.4766C22.9322 32.4766 22.5869 32.2093 22.5869 31.7861C22.5869 31.7452 22.5869 29.9336 22.5869 29.9336H22.1229C22.1229 29.9336 22.1229 31.7007 22.1229 31.7712C22.1229 32.5434 22.7243 32.8849 23.6153 32.8849C24.5359 32.8849 25.1002 32.5211 25.1002 31.8195Z" fill="#0D0D0D"/>
<path d="M28.4031 32.8478V32.4209H26.3947V29.9336H25.9307V32.8478H28.4031Z" fill="#0D0D0D"/>
<path d="M31.0399 30.3568V29.9336H27.9437V30.3568H29.2579V32.8478H29.7257V30.3568H31.0399Z" fill="#0D0D0D"/>
<path d="M34.3395 30.7577C34.3395 30.5498 34.2949 30.3976 34.217 30.2751C34.0796 30.0709 33.816 29.9336 33.378 29.9336H31.4921V32.8478H31.9487V31.619H33.2777L34.0907 32.8478H34.6253L33.7455 31.541C33.9682 31.5151 34.1427 31.3888 34.2355 31.2255C34.3024 31.1141 34.3395 30.9508 34.3395 30.7577ZM33.8791 30.7948C33.8791 30.8765 33.8606 30.9768 33.8272 31.0436C33.7678 31.1512 33.6304 31.2069 33.4077 31.2106H31.9524C31.9524 31.2032 31.9524 30.3494 31.9524 30.3494H33.3223C33.6007 30.3494 33.7492 30.4162 33.8272 30.5424C33.8606 30.6018 33.8791 30.702 33.8791 30.7948Z" fill="#0D0D0D"/>
<path d="M35.6609 32.1276H37.4763L37.8475 32.8478H38.345L36.8674 29.9336H36.3217L34.7959 32.8478H35.2822L35.6609 32.1276ZM37.2832 31.7155H35.8614L36.4516 30.5981L36.5816 30.3271L36.7115 30.5981L37.2832 31.7155Z" fill="#0D0D0D"/>
<path d="M43.0528 32.5694C43.1679 32.4357 43.2199 32.2464 43.2199 32.0422C43.2199 31.8492 43.1642 31.6561 43.0491 31.5373C42.934 31.426 42.7484 31.3332 42.5442 31.3146C42.663 31.296 42.7558 31.2218 42.8189 31.1438C42.9192 31.0287 42.9785 30.8431 42.9785 30.6575C42.9785 30.4607 42.9192 30.2825 42.7929 30.16C42.6556 30.0227 42.4217 29.9336 42.095 29.9336H40.1348V32.8478H42.2398C42.6333 32.8478 42.908 32.7476 43.0528 32.5694ZM42.4996 30.7503C42.4996 30.8802 42.4588 30.9953 42.3883 31.0621C42.3177 31.1401 42.1989 31.1735 42.0727 31.1735H40.5877V30.3345H41.9873C42.1581 30.3345 42.288 30.3679 42.3771 30.4496C42.4551 30.5238 42.4996 30.6315 42.4996 30.7503ZM42.6481 32.2872C42.5553 32.3912 42.3957 32.4432 42.1618 32.4432H40.5877V31.5782H42.173C42.3883 31.5782 42.5368 31.6227 42.6259 31.7081C42.7075 31.7861 42.741 31.8863 42.741 32.0014C42.741 32.1202 42.715 32.2204 42.6481 32.2872Z" fill="#0D0D0D"/>
<path d="M46.5905 32.8478V32.4209H44.326V31.5893H46.5014V31.1661H44.326V30.3568H46.5645V29.9336H43.873V32.8478H46.5905Z" fill="#0D0D0D"/>
<path d="M50.2169 31.9845C50.2169 31.5093 49.9019 31.2643 49.1259 31.1752C48.9956 31.1567 48.7134 31.127 48.5612 31.1084C47.841 31.023 47.6221 30.9265 47.6221 30.6778C47.6221 30.4365 47.8634 30.2991 48.591 30.2991C49.155 30.2991 49.445 30.4105 49.59 30.6109C49.631 30.6666 49.653 30.7335 49.664 30.7854H50.1609C50.1469 30.7 50.113 30.5812 50.061 30.4847C49.861 30.1395 49.449 29.8907 48.591 29.8907C47.5663 29.887 47.1432 30.2583 47.1432 30.7186C47.1432 31.1789 47.4736 31.4128 48.3312 31.5131C48.4797 31.5316 48.7431 31.5613 48.8731 31.5762C49.5379 31.6578 49.7459 31.7581 49.7459 32.0365C49.7459 32.2927 49.5079 32.4783 48.7468 32.4783C48.1232 32.4783 47.789 32.3669 47.6554 32.1516C47.6146 32.0922 47.5886 31.9994 47.5849 31.9363H47.0948C47.106 32.0699 47.1431 32.2147 47.2099 32.3298C47.403 32.6825 47.856 32.8867 48.7321 32.8867C49.779 32.8867 50.2169 32.5488 50.2169 31.9845Z" fill="#0D0D0D"/>
<path d="M53.5462 30.3568V29.9336H50.4502V30.3568H51.7642V32.8478H52.2322V30.3568H53.5462Z" fill="#0D0D0D"/>
<path d="M20.8088 35.3783C20.8088 35.0813 20.7494 34.8808 20.6491 34.7286C20.5081 34.5095 20.2333 34.3945 19.7544 34.3945H17.9131V37.3087H18.3734V36.3583C18.3734 36.3583 19.6728 36.3583 19.7359 36.3583C20.1851 36.3546 20.4932 36.2507 20.6566 36.0131C20.7605 35.8683 20.8088 35.6604 20.8088 35.3783ZM20.341 35.3783C20.341 35.5267 20.3261 35.6381 20.2779 35.7124C20.1925 35.8497 20.018 35.9351 19.6579 35.9351C19.6245 35.9351 18.3734 35.9351 18.3734 35.9351V34.8103H19.6728C20.0106 34.8103 20.1851 34.8882 20.2779 35.0404C20.3224 35.1072 20.341 35.2298 20.341 35.3783Z" fill="#0D0D0D"/>
<path d="M24.169 37.3087V36.8818H21.9044V36.0502H24.0799V35.627H21.9044V34.8177H24.143V34.3945H21.4515V37.3087H24.169Z" fill="#0D0D0D"/>
<path d="M27.7107 35.2186C27.7107 35.0107 27.6662 34.8585 27.5882 34.736C27.4508 34.5318 27.1873 34.3945 26.7492 34.3945H24.8633V37.3087H25.3199V36.0799H26.649L27.462 37.3087H27.9966L27.1167 36.0019C27.3395 35.976 27.514 35.8497 27.6068 35.6864C27.6736 35.575 27.7107 35.4117 27.7107 35.2186ZM27.2504 35.2557C27.2504 35.3374 27.2318 35.4377 27.1984 35.5045C27.139 35.6121 27.0016 35.6678 26.7789 35.6715H25.3236C25.3236 35.6641 25.3236 34.8103 25.3236 34.8103H26.6935C26.9719 34.8103 27.1204 34.8771 27.1984 35.0033C27.2318 35.0627 27.2504 35.1629 27.2504 35.2557Z" fill="#0D0D0D"/>
<path d="M31.1522 34.8177V34.3945H28.5609V37.3087H29.0212V36.0688H31.0557V35.6344H29.0212V34.8177H31.1522Z" fill="#0D0D0D"/>
<path d="M33.2648 34.3438C32.6448 34.3438 32.2179 34.496 31.9134 34.8153C31.6573 35.064 31.5459 35.4093 31.5459 35.8436C31.5459 36.3188 31.6907 36.6752 31.958 36.9165C32.2439 37.2024 32.6819 37.3507 33.2648 37.3507C33.8662 37.3507 34.3339 37.2024 34.6124 36.9016C34.8537 36.6566 34.9799 36.3077 34.9799 35.8399C34.9799 35.387 34.8722 35.0416 34.6161 34.7966C34.3228 34.4922 33.8847 34.3438 33.2648 34.3438ZM33.2648 36.9351C32.8564 36.9351 32.5668 36.846 32.3478 36.6678C32.1251 36.4859 32.0174 36.2073 32.0174 35.8509C32.0174 35.5168 32.1102 35.2385 32.2884 35.0714C32.4926 34.8784 32.8044 34.7632 33.2611 34.7632C33.7325 34.7632 34.0258 34.8746 34.2448 35.0676C34.4305 35.231 34.5121 35.5205 34.5121 35.8472C34.5121 36.1776 34.4268 36.4599 34.2374 36.6306C34.0184 36.8348 33.7103 36.9351 33.2648 36.9351Z" fill="#0D0D0D"/>
<path d="M38.4636 35.2186C38.4636 35.0107 38.419 34.8585 38.3411 34.736C38.2037 34.5318 37.9401 34.3945 37.5021 34.3945H35.6162V37.3087H36.0728V36.0799H37.4018L38.2149 37.3087H38.7494L37.8696 36.0019C38.0923 35.976 38.2668 35.8497 38.3596 35.6864C38.4265 35.575 38.4636 35.4117 38.4636 35.2186ZM38.0032 35.2557C38.0032 35.3374 37.9847 35.4377 37.9513 35.5045C37.8919 35.6121 37.7545 35.6678 37.5318 35.6715H36.0765C36.0765 35.6641 36.0765 34.8103 36.0765 34.8103H37.4464C37.7248 34.8103 37.8733 34.8771 37.9513 35.0033C37.9847 35.0627 38.0032 35.1629 38.0032 35.2557Z" fill="#0D0D0D"/>
<path d="M42.9037 37.3087V34.3945H42.3023L41.1032 36.7927L39.9263 34.3945H39.3138V37.3087H39.7556V35.0664L40.8544 37.3087H41.337L42.4619 35.0664V37.3087H42.9037Z" fill="#0D0D0D"/>
<path d="M44.2078 36.5885H46.0232L46.3944 37.3087H46.8919L45.4143 34.3945H44.8686L43.3428 37.3087H43.8291L44.2078 36.5885ZM45.8301 36.1764H44.4083L44.9985 35.059L45.1285 34.788L45.2584 35.059L45.8301 36.1764Z" fill="#0D0D0D"/>
<path d="M50.236 37.3087V34.3945H49.794V36.659L47.864 34.3945H47.3405V37.3087H47.7897V35.0293L49.735 37.3087H50.236Z" fill="#0D0D0D"/>
<path d="M54.2413 36.2222H53.7583C53.7433 36.3558 53.6913 36.4895 53.5983 36.5897C53.3983 36.8236 53.0793 36.9239 52.5893 36.9239C52.1773 36.9239 51.7353 36.8087 51.5233 36.508C51.4123 36.367 51.3413 36.1591 51.3413 35.8472C51.3413 35.5688 51.3903 35.3609 51.4973 35.2198C51.6753 34.934 52.0503 34.7855 52.5783 34.7855C53.0903 34.7855 53.4133 34.9265 53.5843 35.1233C53.6803 35.2272 53.7363 35.3498 53.7543 35.4945H54.2373C54.2223 35.3312 54.1703 35.1381 54.0593 34.9748C53.8213 34.6221 53.3833 34.3438 52.5813 34.3438C51.8173 34.3438 51.3603 34.5887 51.1073 34.9562C50.9443 35.1678 50.8623 35.4649 50.8623 35.8436C50.8623 36.2668 50.9633 36.5786 51.1373 36.7976C51.3903 37.1429 51.8763 37.3507 52.6113 37.3507C53.3653 37.3507 53.8143 37.1244 54.0373 36.7643C54.1633 36.5898 54.2263 36.3818 54.2413 36.2222Z" fill="#0D0D0D"/>
<path d="M57.5627 37.3087V36.8818H55.2977V36.0502H57.4737V35.627H55.2977V34.8177H57.5367V34.3945H54.8447V37.3087H57.5627Z" fill="#0D0D0D"/>
<path d="M23.6118 40.207L24.167 41.9158H25.9637L24.5102 42.9719L25.0654 44.6806L23.6118 43.6246L22.1582 44.6806L22.7135 42.9719L21.2599 41.9158H23.0566L23.6118 40.207Z" fill="#0D0D0D"/>
<path d="M30.0214 40.207L30.5879 41.9157H32.4213L30.9381 42.9718L31.5046 44.6806L30.0214 43.6245L28.5382 44.6806L29.1047 42.9718L27.6215 41.9157H29.4549L30.0214 40.207Z" fill="#0D0D0D"/>
<path d="M36.3802 40.207L36.9468 41.9157H38.7801L37.2969 42.9718L37.8635 44.6806L36.3802 43.6245L34.897 44.6806L35.4635 42.9718L33.9803 41.9157H35.8137L36.3802 40.207Z" fill="#0D0D0D"/>
<path d="M42.7394 40.207L43.3059 41.9157H45.1393L43.6561 42.9718L44.2226 44.6806L42.7394 43.6245L41.2562 44.6806L41.8227 42.9718L40.3395 41.9157H42.1729L42.7394 40.207Z" fill="#0D0D0D"/>
<path d="M49.149 40.207L49.704 41.9157H51.501L50.047 42.9718L50.602 44.6806L49.149 43.6245L47.6953 44.6806L48.2506 42.9718L46.797 41.9157H48.5937L49.149 40.207Z" fill="#0D0D0D"/>
<path d="M26.726 11.375L27.1458 12.667H28.5043L27.4053 13.4655L27.8251 14.7574L26.726 13.959L25.627 14.7574L26.0468 13.4655L24.9478 12.667H26.3063L26.726 11.375Z" fill="#0D0D0D"/>
<path d="M31.5723 11.375L32.0007 12.667H33.3868L32.2654 13.4655L32.6937 14.7574L31.5723 13.9589L30.4508 14.7574L30.8792 13.4655L29.7577 12.667H31.1439L31.5723 11.375Z" fill="#0D0D0D"/>
<path d="M36.3802 11.375L36.8085 12.667H38.1947L37.0733 13.4655L37.5016 14.7574L36.3802 13.9589L35.2587 14.7574L35.6871 13.4655L34.5656 12.667H35.9518L36.3802 11.375Z" fill="#0D0D0D"/>
<path d="M41.1886 11.375L41.6169 12.667H43.0031L41.8817 13.4655L42.31 14.7574L41.1886 13.9589L40.0671 14.7574L40.4955 13.4655L39.374 12.667H40.7602L41.1886 11.375Z" fill="#0D0D0D"/>
<path d="M46.0341 11.375L46.4539 12.667H47.8124L46.7134 13.4655L47.1332 14.7574L46.0341 13.9589L44.9351 14.7574L45.3549 13.4655L44.2559 12.667H45.6143L46.0341 11.375Z" fill="#0D0D0D"/>
<path fill-rule="evenodd" clip-rule="evenodd" d="M7.37639 34.6317C5.52379 23.0408 10.9306 11.573 21.7547 6.64844L21.8546 6.86804C11.1394 11.743 5.77729 23.0986 7.61459 34.5936C9.64729 47.3109 19.9067 54.9379 32.4702 55.3056L32.4631 55.5468C19.8017 55.1762 9.42999 47.4802 7.37639 34.6317Z" fill="#0D0D0D"/>
<path d="M19.4078 9.6065C17.4075 9.6521 15.0664 10.7801 13.685 12.4185C14.7928 13.4472 16.5752 13.0669 17.8579 12.8565C19.6886 12.5563 21.6354 11.9747 23.3629 11.1514C22.6526 9.6394 20.7392 9.5762 19.4078 9.6065Z" fill="#0D0D0D"/>
<path d="M17.8347 7.13571C16.6499 8.98131 15.2379 10.8156 13.7013 12.4309C12.4157 11.2241 13.1917 9.21581 13.7164 7.96691C14.6669 5.70391 16.9458 3.75241 19.3283 2.75391C19.9822 4.24161 18.5619 6.00291 17.8347 7.13571Z" fill="#0D0D0D"/>
<path d="M13.6194 14.7796C11.7464 15.4454 10.1369 17.3196 9.3288 19.2012C10.6756 19.8274 12.2067 18.9231 13.3268 18.321C14.8648 17.4942 16.4339 16.3534 17.6685 15.0332C16.553 13.8562 14.8592 14.339 13.6194 14.7796Z" fill="#0D0D0D"/>
<path d="M11.349 12.9347C10.939 15.0397 10.2516 17.2215 9.34878 19.2101C7.77298 18.4669 7.83298 16.3383 7.90048 14.9837C8.01568 12.6716 9.30918 10.035 11.1101 8.35938C12.2126 9.54138 11.6102 11.5938 11.349 12.9347Z" fill="#0D0D0D"/>
<path d="M10.0155 21.4629C8.45477 22.6941 7.50877 24.9758 7.28967 27.0133C8.76607 27.1828 9.94617 25.8392 10.8243 24.9174C12.0198 23.6623 13.1515 22.0881 13.8702 20.4412C12.4628 19.6734 11.0321 20.6609 10.0155 21.4629Z" fill="#0D0D0D"/>
<path d="M7.31151 20.4235C7.58981 22.5492 7.59041 24.8489 7.31201 27.0161C5.59501 26.8052 5.02551 24.7436 4.68911 23.4503C4.10831 21.2179 4.49771 18.3343 5.62911 16.1641C7.04301 16.9468 7.13371 19.0648 7.31151 20.4235Z" fill="#0D0D0D"/>
<path d="M8.79067 28.7542C7.55567 30.5633 7.12137 33.3984 7.67677 35.6772C9.30877 35.2908 10.1178 33.4431 10.7674 32.1382C11.6307 30.4039 12.3604 28.3806 12.6216 26.3955C10.8515 26.0271 9.60417 27.5624 8.79067 28.7542Z" fill="#0D0D0D"/>
<path d="M5.5487 28.5731C6.5109 30.8008 7.2618 33.2527 7.7012 35.6735C5.8295 36.0756 4.4824 34.1102 3.6998 32.807C2.3065 30.4872 1.9006 27.2713 2.411 24.4961C4.1241 24.8396 4.9624 27.2161 5.5487 28.5731Z" fill="#0D0D0D"/>
<path d="M9.65461 36.6284C8.99151 38.823 9.45241 41.8065 10.795 43.8697C12.2704 42.9091 12.4746 40.7949 12.6837 39.279C12.9594 37.2786 13.0892 35.0626 12.7467 32.9883C10.8596 33.2292 10.0975 35.1623 9.65461 36.6284Z" fill="#0D0D0D"/>
<path d="M6.3752 37.5679C8.0308 39.4676 9.558 41.6336 10.8175 43.8555C9.1093 44.9219 7.1048 43.465 5.8891 42.434C3.7324 40.6051 2.332 37.4966 2 34.566C3.7948 34.3248 5.3765 36.4218 6.3752 37.5679Z" fill="#0D0D0D"/>
<path d="M13.1341 44.0963C13.2764 46.6508 14.9395 49.3313 17.1539 50.857C18.2233 49.3929 17.553 47.1496 17.1882 45.5837C16.6971 43.4754 16.0174 41.28 15.0073 39.332C13.2459 40.2628 13.0404 42.414 13.1341 44.0963Z" fill="#0D0D0D"/>
<path d="M10.1558 46.2553C12.5549 47.5884 14.9471 49.1615 17.1713 50.8354C15.8393 52.5894 13.1769 51.89 11.5265 51.3262C8.6181 50.3327 6.0252 47.7137 4.6709 44.804C6.388 43.9195 8.7386 45.4678 10.1558 46.2553Z" fill="#0D0D0D"/>
<path d="M19.9669 50.339C21.4068 52.9668 24.6881 54.6811 27.7781 55.0938C28.1107 53.1834 26.0436 51.2919 24.9172 50.0545C23.3135 48.2928 21.6424 46.4646 19.7688 44.9414C18.3651 46.5712 19.1072 48.7701 19.9669 50.339Z" fill="#0D0D0D"/>
<path d="M17.9105 53.6662C21.1836 54.0065 24.5122 54.4964 27.7834 55.0613C27.4711 57.4717 23.646 57.8607 21.9095 58.003C18.349 58.2948 14.3882 56.8636 11.6303 54.4542C13.0001 52.8424 16.167 53.485 17.9105 53.6662Z" fill="#0D0D0D"/>
<path d="M24.2152 4.62263C22.0177 5.24953 19.4455 6.43883 18.1748 8.63423C20.4813 8.38283 22.7482 7.56213 24.9651 6.93683C27.4483 6.23633 30.063 5.71243 32.4672 4.74553C29.8342 3.69213 26.7304 3.90503 24.2152 4.62263Z" fill="#0D0D0D"/>
<path fill-rule="evenodd" clip-rule="evenodd" d="M66.728 34.5936C68.565 23.0986 63.203 11.7432 52.488 6.86804L52.588 6.64844C63.412 11.5731 68.819 23.0408 66.966 34.6317C64.913 47.4802 54.541 55.1762 41.8796 55.5468L41.8726 55.3056C54.436 54.9379 64.695 47.3109 66.728 34.5936Z" fill="#0D0D0D"/>
<path d="M54.935 9.6065C56.935 9.6521 59.276 10.7801 60.658 12.4185C59.55 13.4472 57.767 13.0669 56.485 12.8565C54.654 12.5563 52.707 11.9747 50.98 11.1514C51.69 9.6394 53.603 9.5762 54.935 9.6065Z" fill="#0D0D0D"/>
<path d="M56.5083 7.13571C57.6933 8.98131 59.1053 10.8156 60.6413 12.4309C61.9273 11.2241 61.1513 9.21581 60.6263 7.96691C59.6763 5.70391 57.3973 3.75241 55.0143 2.75391C54.3603 4.24161 55.7813 6.00291 56.5083 7.13571Z" fill="#0D0D0D"/>
<path d="M60.7238 14.7796C62.5968 15.4454 64.2058 17.3196 65.0138 19.2012C63.6668 19.8274 62.1358 18.9231 61.0158 18.321C59.4778 17.4942 57.9088 16.3534 56.6748 15.0332C57.7898 13.8562 59.4838 14.339 60.7238 14.7796Z" fill="#0D0D0D"/>
<path d="M62.994 12.9347C63.404 15.0397 64.091 17.2215 64.994 19.2101C66.57 18.4669 66.51 16.3383 66.442 14.9837C66.327 12.6716 65.034 10.035 63.233 8.35938C62.13 9.54138 62.733 11.5938 62.994 12.9347Z" fill="#0D0D0D"/>
<path d="M64.327 21.4629C65.888 22.6941 66.834 24.9758 67.053 27.0133C65.577 27.1828 64.397 25.8392 63.519 24.9174C62.323 23.6623 61.191 22.0881 60.473 20.4412C61.88 19.6734 63.311 20.6609 64.327 21.4629Z" fill="#0D0D0D"/>
<path d="M67.032 20.4235C66.753 22.549 66.753 24.8489 67.031 27.0161C68.748 26.8052 69.318 24.7436 69.654 23.4503C70.235 21.2179 69.845 18.3343 68.714 16.1641C67.3 16.9468 67.209 19.0648 67.032 20.4235Z" fill="#0D0D0D"/>
<path d="M65.5517 28.7542C66.7867 30.5633 67.2207 33.3984 66.6657 35.6772C65.0337 35.2908 64.2247 33.4432 63.5747 32.1382C62.7117 30.4039 61.9817 28.3806 61.7207 26.3955C63.4907 26.0271 64.7387 27.5624 65.5517 28.7542Z" fill="#0D0D0D"/>
<path d="M68.794 28.5731C67.832 30.8008 67.081 33.2527 66.642 35.6735C68.513 36.0756 69.86 34.1102 70.643 32.807C72.036 30.4872 72.442 27.2713 71.932 24.4961C70.219 24.8396 69.38 27.2161 68.794 28.5731Z" fill="#0D0D0D"/>
<path d="M64.688 36.6284C65.351 38.823 64.891 41.8065 63.548 43.8697C62.073 42.9091 61.868 40.7949 61.659 39.279C61.384 37.2786 61.254 35.0626 61.596 32.9883C63.483 33.2292 64.245 35.1623 64.688 36.6284Z" fill="#0D0D0D"/>
<path d="M67.967 37.5679C66.312 39.4677 64.785 41.6336 63.525 43.8555C65.233 44.9219 67.238 43.465 68.454 42.434C70.61 40.6051 72.011 37.4966 72.343 34.566C70.548 34.3248 68.966 36.4218 67.967 37.5679Z" fill="#0D0D0D"/>
<path d="M61.2078 44.0963C61.0658 46.6508 59.4028 49.3313 57.1888 50.857C56.1188 49.3929 56.7898 47.1497 57.1538 45.5837C57.6448 43.4754 58.3248 41.28 59.3348 39.332C61.0968 40.2628 61.3018 42.414 61.2078 44.0963Z" fill="#0D0D0D"/>
<path d="M64.187 46.2553C61.788 47.5884 59.396 49.1615 57.172 50.8354C58.504 52.5894 61.166 51.89 62.816 51.3262C65.725 50.3327 68.318 47.7137 69.672 44.804C67.955 43.9195 65.604 45.4678 64.187 46.2553Z" fill="#0D0D0D"/>
<path d="M54.376 50.339C52.936 52.9668 49.655 54.6811 46.5646 55.0938C46.232 53.1834 48.299 51.2919 49.426 50.0545C51.029 48.2928 52.7 46.4646 54.574 44.9414C55.978 46.5712 55.235 48.7701 54.376 50.339Z" fill="#0D0D0D"/>
<path d="M56.432 53.6662C53.159 54.0065 49.831 54.4964 46.5592 55.0613C46.8716 57.4717 50.697 57.8607 52.433 58.003C55.994 58.2948 59.955 56.8636 62.712 54.4542C61.343 52.8424 58.176 53.485 56.432 53.6662Z" fill="#0D0D0D"/>
<path d="M50.128 4.62263C52.325 5.24953 54.898 6.43883 56.168 8.63423C53.862 8.38283 51.595 7.56213 49.378 6.93683C46.8948 6.23633 44.2801 5.71243 41.8759 4.74553C44.509 3.69213 47.6127 3.90503 50.128 4.62263Z" fill="#0D0D0D"/>
<path d="M38.6006 3.4879L37.4731 1L36.3668 3.4416L33.7939 1.8464L35.4472 5.3207H39.5588L41.1524 1.8464L38.6006 3.4879Z" fill="#0D0D0D"/>
<path d="M39.5322 5.85938H35.4141V6.46707H39.5322V5.85938Z" fill="#0D0D0D"/>
<path d="M37.7673 52.8711L38.4309 54.9133H40.5782L38.841 56.1754L39.5045 58.2176L37.7673 56.9555L36.0301 58.2176L36.6937 56.1754L34.9565 54.9133H37.1038L37.7673 52.8711Z" fill="#0D0D0D"/>
</svg>
