<svg width="30" height="30" viewBox="0 0 30 30" fill="none" xmlns="http://www.w3.org/2000/svg">
<path d="M15 28.69C16.407 28.69 17.8003 28.4128 19.1002 27.8744C20.4001 27.3359 21.5812 26.5467 22.5761 25.5518C23.5711 24.5569 24.3603 23.3758 24.8987 22.0758C25.4372 20.7759 25.7143 19.3827 25.7143 17.9757V12.0185C25.7144 9.38642 24.7457 6.84636 22.9929 4.88281" stroke="#0D0D0D" stroke-width="1.5" stroke-linecap="round" stroke-linejoin="round"/>
<path d="M4.28571 14.3984V17.977C4.28499 20.0862 4.90682 22.1487 6.07327 23.906C7.23972 25.6633 8.89889 27.0372 10.8428 27.8556" stroke="#0D0D0D" stroke-width="1.5" stroke-linecap="round" stroke-linejoin="round"/>
<path d="M20.3571 2.74011C17.8963 1.31937 14.9719 0.934354 12.2272 1.66976C9.48245 2.40517 7.14228 4.20075 5.72143 6.66154C5.13638 7.67196 4.7236 8.77271 4.5 9.91868" stroke="#0D0D0D" stroke-width="1.5" stroke-linecap="round" stroke-linejoin="round"/>
<path d="M13.8857 7.51854C14.6738 7.35492 15.4887 7.37028 16.2701 7.5635C17.0515 7.75671 17.7796 8.12286 18.4006 8.63492C19.0217 9.14699 19.5199 9.79193 19.8585 10.5222C20.1971 11.2524 20.3675 12.0494 20.3571 12.8543V16.3043" stroke="#0D0D0D" stroke-width="1.5" stroke-linecap="round" stroke-linejoin="round"/>
<path d="M18.9857 20.8038C18.2566 21.6159 17.2969 22.186 16.2349 22.4377C15.1729 22.6895 14.0594 22.6108 13.0433 22.2123C12.0272 21.8138 11.1571 21.1145 10.5494 20.2079C9.94175 19.3013 9.62544 18.2308 9.64286 17.1395V12.8538C9.63879 12.1178 9.78461 11.3887 10.0714 10.7109" stroke="#0D0D0D" stroke-width="1.5" stroke-linecap="round" stroke-linejoin="round"/>
<path d="M15 13.0898V16.6684" stroke="#0D0D0D" stroke-width="1.5" stroke-linecap="round" stroke-linejoin="round"/>
</svg>
