<svg width="25" height="25" viewBox="0 0 25 25" fill="none" xmlns="http://www.w3.org/2000/svg">
<g clip-path="url(#clip0_580_1929)">
<path d="M15.1783 8.92885C16.1645 8.92885 16.964 8.12936 16.964 7.14314C16.964 6.15691 16.1645 5.35742 15.1783 5.35742C14.1921 5.35742 13.3926 6.15691 13.3926 7.14314C13.3926 8.12936 14.1921 8.92885 15.1783 8.92885Z" stroke="#0D0D0D" stroke-width="1.5" stroke-linecap="round" stroke-linejoin="round"/>
<path d="M8.03544 17.856C8.52855 17.856 8.92829 17.4563 8.92829 16.9632C8.92829 16.4701 8.52855 16.0703 8.03544 16.0703C7.54232 16.0703 7.14258 16.4701 7.14258 16.9632C7.14258 17.4563 7.54232 17.856 8.03544 17.856Z" stroke="#0D0D0D" stroke-width="1.5" stroke-linecap="round" stroke-linejoin="round"/>
<path d="M8.03571 11.6066C9.02194 11.6066 9.82143 10.8071 9.82143 9.82087C9.82143 8.83465 9.02194 8.03516 8.03571 8.03516C7.04949 8.03516 6.25 8.83465 6.25 9.82087C6.25 10.8071 7.04949 11.6066 8.03571 11.6066Z" stroke="#0D0D0D" stroke-width="1.5" stroke-linecap="round" stroke-linejoin="round"/>
<path d="M16.9997 21.9283C16.9798 21.5819 16.8594 21.2488 16.6533 20.9698C16.4471 20.6907 16.1642 20.4777 15.839 20.3569C15.0313 20.0914 14.3448 19.5465 13.9029 18.8202C13.4611 18.0939 13.2928 17.2338 13.4284 16.3945C13.5639 15.5552 13.9945 14.7918 14.6426 14.2415C15.2907 13.6912 16.1138 13.3902 16.964 13.3926H20.3032C20.876 13.3942 21.4407 13.258 21.9498 12.9956C22.4588 12.7331 22.8973 12.3521 23.2282 11.8846C23.5591 11.4171 23.7727 10.8769 23.8511 10.3096C23.9294 9.74224 23.8701 9.16437 23.6782 8.62473C22.968 6.61931 21.7202 4.84768 20.0713 3.50338C18.4224 2.15908 16.4357 1.29384 14.3283 1.00218C12.2209 0.710515 10.0739 1.00366 8.12182 1.84958C6.16976 2.6955 4.48773 4.06166 3.25952 5.79879C2.03131 7.53592 1.30415 9.5772 1.1575 11.6996C1.01084 13.822 1.45034 15.9439 2.42796 17.8335C3.40558 19.723 4.88372 21.3075 6.70089 22.4139C8.51805 23.5203 10.6043 24.1059 12.7318 24.1069C13.7825 24.1098 14.8283 23.9655 15.839 23.6783C16.2101 23.5743 16.5316 23.3403 16.7447 23.0191C16.9577 22.6978 17.0482 22.3107 16.9997 21.9283V21.9283Z" stroke="#0D0D0D" stroke-width="1.5" stroke-linecap="round" stroke-linejoin="round"/>
</g>
<defs>
<clipPath id="clip0_580_1929">
<rect width="25" height="25" fill="white"/>
</clipPath>
</defs>
</svg>
