<svg width="30" height="30" viewBox="0 0 30 30" fill="none" xmlns="http://www.w3.org/2000/svg">
<path d="M24.6426 10.7143C24.6426 16.05 14.9998 28.9286 14.9998 28.9286C14.9998 28.9286 5.35693 16.05 5.35693 10.7143C5.35693 8.15685 6.37287 5.70416 8.18126 3.89577C9.98965 2.08738 12.4423 1.07144 14.9998 1.07144C17.5572 1.07144 20.0099 2.08738 21.8183 3.89577C23.6267 5.70416 24.6426 8.15685 24.6426 10.7143V10.7143Z" stroke="#0D0D0D" stroke-width="1.5" stroke-linecap="round" stroke-linejoin="round"/>
<path d="M14.9999 13.9286C16.7751 13.9286 18.2142 12.4895 18.2142 10.7143C18.2142 8.93908 16.7751 7.5 14.9999 7.5C13.2247 7.5 11.7856 8.93908 11.7856 10.7143C11.7856 12.4895 13.2247 13.9286 14.9999 13.9286Z" stroke="#0D0D0D" stroke-width="1.5" stroke-linecap="round" stroke-linejoin="round"/>
</svg>
