<svg width="27" height="27" viewBox="0 0 27 27" fill="none" xmlns="http://www.w3.org/2000/svg">
<path d="M14.1563 13.0552C13.871 13.1791 13.5633 13.243 13.2523 13.243C12.9413 13.243 12.6336 13.1791 12.3483 13.0552L1.38492 7.97745C1.20689 7.88765 1.05728 7.7502 0.952753 7.58041C0.848224 7.41061 0.792877 7.21514 0.792877 7.01575C0.792877 6.81635 0.848224 6.62088 0.952753 6.45108C1.05728 6.28129 1.20689 6.14384 1.38492 6.05405L12.3483 0.937804C12.6336 0.813924 12.9413 0.75 13.2523 0.75C13.5633 0.75 13.871 0.813924 14.1563 0.937804L25.1197 6.01558C25.2977 6.10537 25.4473 6.24282 25.5518 6.41261C25.6564 6.58241 25.7117 6.77789 25.7117 6.97728C25.7117 7.17667 25.6564 7.37215 25.5518 7.54194C25.4473 7.71174 25.2977 7.84918 25.1197 7.93898L14.1563 13.0552Z" stroke="#0D0D0D" stroke-width="1.5" stroke-linecap="round" stroke-linejoin="round"/>
<path d="M25.7544 13.9199L14.0216 19.3247C13.7711 19.439 13.4988 19.4981 13.2234 19.4981C12.948 19.4981 12.6758 19.439 12.4252 19.3247L0.750183 13.9199" stroke="#0D0D0D" stroke-width="1.5" stroke-linecap="round" stroke-linejoin="round"/>
<path d="M25.7544 20.1719L14.0216 25.5766C13.7711 25.6909 13.4988 25.7501 13.2234 25.7501C12.948 25.7501 12.6758 25.6909 12.4252 25.5766L0.750183 20.1719" stroke="#0D0D0D" stroke-width="1.5" stroke-linecap="round" stroke-linejoin="round"/>
</svg>
