<svg width="30" height="30" viewBox="0 0 30 30" fill="none" xmlns="http://www.w3.org/2000/svg">
<g clip-path="url(#clip0_494_6339)">
<path d="M26.7857 3.21484L19.4785 10.522" stroke="#0D0D0D" stroke-width="1.5" stroke-linecap="round" stroke-linejoin="round"/>
<path d="M3.21436 3.21484L10.5215 10.522" stroke="#0D0D0D" stroke-width="1.5" stroke-linecap="round" stroke-linejoin="round"/>
<path d="M3.21436 26.7837L10.5215 19.4766" stroke="#0D0D0D" stroke-width="1.5" stroke-linecap="round" stroke-linejoin="round"/>
<path d="M26.7857 26.7837L19.4785 19.4766" stroke="#0D0D0D" stroke-width="1.5" stroke-linecap="round" stroke-linejoin="round"/>
<path d="M14.9999 28.9275C22.6924 28.9275 28.9284 22.6914 28.9284 14.9989C28.9284 7.30635 22.6924 1.07031 14.9999 1.07031C7.30732 1.07031 1.07129 7.30635 1.07129 14.9989C1.07129 22.6914 7.30732 28.9275 14.9999 28.9275Z" stroke="#0D0D0D" stroke-width="1.5" stroke-linecap="round" stroke-linejoin="round"/>
<path d="M14.9997 21.3186C18.4909 21.3186 21.3211 18.4884 21.3211 14.9972C21.3211 11.506 18.4909 8.67578 14.9997 8.67578C11.5084 8.67578 8.67822 11.506 8.67822 14.9972C8.67822 18.4884 11.5084 21.3186 14.9997 21.3186Z" stroke="#0D0D0D" stroke-width="1.5" stroke-linecap="round" stroke-linejoin="round"/>
</g>
<defs>
<clipPath id="clip0_494_6339">
<rect width="30" height="30" fill="white"/>
</clipPath>
</defs>
</svg>
