<svg width="30" height="30" viewBox="0 0 30 30" fill="none" xmlns="http://www.w3.org/2000/svg">
<g clip-path="url(#clip0_579_613)">
<path d="M18.2141 10.7146C19.3976 10.7146 20.357 9.75522 20.357 8.57175C20.357 7.38828 19.3976 6.42889 18.2141 6.42889C17.0307 6.42889 16.0713 7.38828 16.0713 8.57175C16.0713 9.75522 17.0307 10.7146 18.2141 10.7146Z" stroke="#0D0D0D" stroke-width="1.5" stroke-linecap="round" stroke-linejoin="round"/>
<path d="M9.64272 21.4272C10.2345 21.4272 10.7141 20.9475 10.7141 20.3558C10.7141 19.7641 10.2345 19.2844 9.64272 19.2844C9.05098 19.2844 8.57129 19.7641 8.57129 20.3558C8.57129 20.9475 9.05098 21.4272 9.64272 21.4272Z" stroke="#0D0D0D" stroke-width="1.5" stroke-linecap="round" stroke-linejoin="round"/>
<path d="M9.64286 13.9279C10.8263 13.9279 11.7857 12.9685 11.7857 11.7851C11.7857 10.6016 10.8263 9.64221 9.64286 9.64221C8.45939 9.64221 7.5 10.6016 7.5 11.7851C7.5 12.9685 8.45939 13.9279 9.64286 13.9279Z" stroke="#0D0D0D" stroke-width="1.5" stroke-linecap="round" stroke-linejoin="round"/>
<path d="M20.4002 26.314C20.3763 25.8983 20.2319 25.4986 19.9845 25.1637C19.7371 24.8289 19.3976 24.5733 19.0073 24.4283C18.0381 24.1097 17.2144 23.4559 16.6841 22.5843C16.1539 21.7127 15.9519 20.6805 16.1146 19.6734C16.2773 18.6662 16.794 17.7501 17.5717 17.0898C18.3494 16.4295 19.3371 16.0683 20.3573 16.0711H24.3645C25.0518 16.073 25.7294 15.9096 26.3403 15.5947C26.9512 15.2797 27.4773 14.8225 27.8744 14.2615C28.2715 13.7006 28.5279 13.0523 28.6219 12.3715C28.7158 11.6907 28.6447 10.9973 28.4145 10.3497C27.5622 7.94319 26.0649 5.81722 24.0861 4.20407C22.1074 2.59091 19.7234 1.55262 17.1945 1.20262C14.6657 0.85263 12.0893 1.2044 9.74677 2.21951C7.4043 3.23461 5.38587 4.874 3.91201 6.95856C2.43815 9.04312 1.56557 11.4927 1.38958 14.0395C1.2136 16.5864 1.74099 19.1327 2.91413 21.4002C4.08728 23.6676 5.86105 25.569 8.04165 26.8967C10.2222 28.2243 12.7258 28.9271 15.2788 28.9283C16.5395 28.9318 17.7946 28.7587 19.0073 28.414C19.4528 28.2892 19.8385 28.0084 20.0942 27.6229C20.3499 27.2374 20.4585 26.7729 20.4002 26.314V26.314Z" stroke="#0D0D0D" stroke-width="1.5" stroke-linecap="round" stroke-linejoin="round"/>
</g>
<defs>
<clipPath id="clip0_579_613">
<rect width="30" height="30" fill="white"/>
</clipPath>
</defs>
</svg>
