<svg width="30" height="30" viewBox="0 0 30 30" fill="none" xmlns="http://www.w3.org/2000/svg">
<g clip-path="url(#clip0_291_39495)">
<path d="M26.7857 3.21484L19.4785 10.522" stroke="#0D0D0D" stroke-width="1.5" stroke-linecap="round" stroke-linejoin="round"/>
<path d="M3.21387 3.21484L10.521 10.522" stroke="#0D0D0D" stroke-width="1.5" stroke-linecap="round" stroke-linejoin="round"/>
<path d="M3.21387 26.7857L10.521 19.4785" stroke="#0D0D0D" stroke-width="1.5" stroke-linecap="round" stroke-linejoin="round"/>
<path d="M26.7857 26.7857L19.4785 19.4785" stroke="#0D0D0D" stroke-width="1.5" stroke-linecap="round" stroke-linejoin="round"/>
<path d="M14.9999 28.9294C22.6924 28.9294 28.9284 22.6934 28.9284 15.0008C28.9284 7.3083 22.6924 1.07227 14.9999 1.07227C7.30732 1.07227 1.07129 7.3083 1.07129 15.0008C1.07129 22.6934 7.30732 28.9294 14.9999 28.9294Z" stroke="#0D0D0D" stroke-width="1.5" stroke-linecap="round" stroke-linejoin="round"/>
<path d="M15.0001 21.3225C18.4914 21.3225 21.3216 18.4923 21.3216 15.0011C21.3216 11.5099 18.4914 8.67969 15.0001 8.67969C11.5089 8.67969 8.67871 11.5099 8.67871 15.0011C8.67871 18.4923 11.5089 21.3225 15.0001 21.3225Z" stroke="#0D0D0D" stroke-width="1.5" stroke-linecap="round" stroke-linejoin="round"/>
</g>
<defs>
<clipPath id="clip0_291_39495">
<rect width="30" height="30" fill="white"/>
</clipPath>
</defs>
</svg>
