<svg width="30" height="30" viewBox="0 0 30 30" fill="none" xmlns="http://www.w3.org/2000/svg">
<path d="M9.64284 27.8577C14.3767 27.8577 18.2143 24.0201 18.2143 19.2863C18.2143 14.5524 14.3767 10.7148 9.64284 10.7148C4.90897 10.7148 1.07141 14.5524 1.07141 19.2863C1.07141 24.0201 4.90897 27.8577 9.64284 27.8577Z" stroke="#0D0D0D" stroke-width="1.5" stroke-linecap="round" stroke-linejoin="round"/>
<path d="M20.3567 27.8577C25.0906 27.8577 28.9281 24.0201 28.9281 19.2863C28.9281 14.5524 25.0906 10.7148 20.3567 10.7148C15.6228 10.7148 11.7853 14.5524 11.7853 19.2863C11.7853 24.0201 15.6228 27.8577 20.3567 27.8577Z" stroke="#0D0D0D" stroke-width="1.5" stroke-linecap="round" stroke-linejoin="round"/>
<path d="M15.0003 19.2854C19.7341 19.2854 23.5717 15.4479 23.5717 10.714C23.5717 5.98014 19.7341 2.14258 15.0003 2.14258C10.2664 2.14258 6.42883 5.98014 6.42883 10.714C6.42883 15.4479 10.2664 19.2854 15.0003 19.2854Z" stroke="#0D0D0D" stroke-width="1.5" stroke-linecap="round" stroke-linejoin="round"/>
</svg>
