<svg width="74" height="60" viewBox="0 0 74 60" fill="none" xmlns="http://www.w3.org/2000/svg">
<path d="M5.60152 19.8075C5.14676 18.6532 5.34418 17.326 5.76308 16.2098C6.20381 15.0352 6.97125 13.8638 8.11826 13.2461C8.17517 14.4839 7.79657 15.7068 7.3829 16.8095C7.01089 17.8013 6.55442 18.858 5.80066 19.6783C5.68484 20.2998 5.59608 20.9197 5.53366 21.5366C5.78348 20.8848 6.18857 20.2908 6.69401 19.8131C7.34475 19.198 8.31275 18.7233 9.22142 19.004C8.95528 20.0072 8.34862 20.9688 7.63015 21.6433C7.06465 22.1743 6.31813 22.8547 5.43881 22.8814C5.40259 23.7893 5.42307 24.6889 5.49787 25.5763C5.62192 24.9269 5.88771 24.3154 6.27174 23.86C6.79931 23.2343 7.58154 22.4698 8.58054 22.5977C8.526 23.613 8.12048 24.6532 7.55577 25.4349C7.10702 26.056 6.51462 26.8477 5.67375 27.0522C5.80839 27.9242 5.99594 28.7817 6.23388 29.6208C6.23617 28.9783 6.37826 28.3477 6.66015 27.8419C7.05742 27.1287 7.67617 26.2392 8.67632 26.1696C8.82292 27.1657 8.62428 28.2546 8.22356 29.1206C7.9033 29.8128 7.47632 30.6956 6.69802 31.0608C7.02485 31.9636 7.41161 32.8411 7.85506 33.6881C7.69937 32.9581 7.70559 32.1888 7.88985 31.4966C8.14375 30.5424 8.77403 29.54 9.78592 29.2491C10.1436 30.3026 10.0943 31.4783 9.88649 32.5491C9.71548 33.4307 9.37947 34.4662 8.62628 35.0389C9.1187 35.8325 9.66344 36.5941 10.2575 37.3188C9.93831 36.6081 9.77969 35.8308 9.8648 35.1191C9.98878 34.0823 10.2805 32.9732 11.3408 32.4205C11.9424 33.4571 12.0818 34.62 12.1329 35.7686C12.1742 36.6972 12.0403 37.8425 11.3945 38.598C12.1048 39.3355 12.8713 40.0258 13.6899 40.6624C13.1614 39.9853 12.7913 39.1908 12.7129 38.405C12.6022 37.2949 12.6564 36.0727 13.6428 35.258C14.4865 36.1381 14.9899 37.4341 15.2367 38.5598C15.4549 39.5551 15.6826 40.7331 15.1632 41.7126C16.205 42.3917 17.3172 42.9901 18.493 43.4968C17.6656 42.9079 16.9883 42.1 16.6656 41.2659C16.2428 40.1725 15.9812 38.8696 16.8049 37.7745C17.9085 38.4804 18.7196 39.6849 19.3586 40.7834C19.9069 41.726 20.4745 43.027 20.1929 44.1496C20.8439 44.3702 21.5118 44.5639 22.1956 44.7292L22.155 44.8969C21.4686 44.7309 20.7981 44.5366 20.1444 44.3153C19.6865 45.6669 18.1862 46.1135 16.9728 46.3106C15.2441 46.5915 13.1856 46.0473 11.7097 44.9509C12.4886 43.8515 14.078 43.7399 15.2764 43.6558L15.292 43.6547C16.6049 43.5626 18.0249 43.6857 19.3451 44.0283C17.8199 43.4484 16.3928 42.7194 15.0768 41.8623L15.0574 41.8929C14.3363 43.0606 12.8885 43.1062 11.7521 43.0323C10.21 42.9321 8.42958 41.9957 7.39915 40.7012C8.36837 39.8519 9.79995 40.0896 10.9092 40.2738L10.9146 40.2746C12.1526 40.4802 13.5054 40.9285 14.641 41.6189C14.5328 41.5338 14.4269 41.4438 14.3241 41.3495C13.22 40.5633 12.2015 39.6839 11.2773 38.7251C11.2666 38.7358 11.2557 38.7465 11.2448 38.757C10.3461 39.6599 9.03731 39.4235 8.0159 39.1296C6.64905 38.7365 5.23151 37.5502 4.5522 36.1884C5.60488 35.5993 6.86344 36.0848 7.84239 36.4687C8.91684 36.8902 10.0536 37.5643 10.9277 38.4237C10.8376 38.3102 10.7516 38.1916 10.6704 38.0688C9.85793 37.153 9.12707 36.1724 8.48455 35.1379L8.45234 35.158C7.43573 35.8132 6.28391 35.3388 5.37103 34.8721C4.1333 34.2395 3.13866 32.8492 2.70888 31.4819C3.80688 31.1307 4.89171 31.82 5.73502 32.366C6.65736 32.9631 7.59163 33.8147 8.23294 34.7913C8.18584 34.6951 8.14196 34.5967 8.10151 34.4965C7.48533 33.4228 6.96187 32.2957 6.5381 31.1265L6.51627 31.134L6.51448 31.1346C5.59014 31.4855 4.56079 30.9399 3.8897 30.3416C2.95699 29.51 2.29958 28.2315 2.14546 26.9825C3.10917 26.8579 4.01712 27.6025 4.63788 28.2376C5.35241 28.9686 5.99372 29.8326 6.38799 30.7922C6.35922 30.6879 6.33452 30.5821 6.31376 30.4751C5.95499 29.3764 5.6832 28.2433 5.50403 27.0848L5.49007 27.0866L5.48534 27.0874C4.5081 27.2503 3.60459 26.5083 3.06479 25.7882C2.30745 24.7777 1.91704 23.3791 2.01489 22.1115C2.98834 22.1795 3.72957 23.1044 4.21025 23.8525C4.76659 24.7186 5.22793 25.6988 5.43001 26.7243C5.42385 26.6427 5.4202 26.5606 5.41891 26.4783C5.27052 25.2993 5.21762 24.0962 5.26601 22.8781L5.26322 22.878C4.26966 22.8422 3.53537 21.9209 3.15627 21.1037C2.61382 19.9343 2.52649 18.4561 2.88855 17.2103C3.83552 17.4758 4.36343 18.5606 4.67503 19.3957C5.0343 20.3585 5.28506 21.4086 5.28706 22.4527C5.33874 21.5768 5.44282 20.694 5.60152 19.8075Z" fill="#0D0D0D"/>
<path d="M25.1701 17.6445V21.8265C25.1701 23.6659 23.5021 24.5509 20.974 24.5509C18.611 24.5509 16.9169 23.6746 16.9169 21.6096V17.6445H19.2713V21.6096C19.2713 22.3471 19.9054 22.8069 21.0696 22.8069C22.1816 22.8069 22.8419 22.3297 22.8419 21.6183V17.6445H25.1701Z" fill="#0D0D0D"/>
<path d="M33.0111 22.6421V24.4554H26.5041V17.6445H28.8584V22.6421H33.0111Z" fill="#0D0D0D"/>
<path d="M40.0079 19.3538V17.6445H31.8676V19.3538H34.7432V24.4554H37.1236V19.3538H40.0079Z" fill="#0D0D0D"/>
<path fill-rule="evenodd" clip-rule="evenodd" d="M48.3589 18.3387C48.6717 18.6597 48.8199 19.1022 48.8199 19.7182C48.8199 20.2475 48.6896 20.6986 48.472 21.0023C48.2286 21.332 47.8549 21.6096 47.3947 21.6791L49.4541 24.4554H46.865L45.1706 22.0521H43.0598V24.4554H40.7402V17.6445H46.1699C47.2472 17.6445 47.9509 17.9048 48.3589 18.3387ZM46.4827 20.2909C46.5436 20.1867 46.5607 20.0479 46.5607 19.9351C46.5607 19.8049 46.5436 19.6661 46.4827 19.5794C46.361 19.3538 46.1176 19.2931 45.7526 19.2931H43.0685V20.5338H45.7962C46.1699 20.5338 46.3961 20.4644 46.4827 20.2909Z" fill="#0D0D0D"/>
<path fill-rule="evenodd" clip-rule="evenodd" d="M52.588 23.1974H56.2716L56.8708 24.4554H59.3819L55.9416 17.6445H53.1356L49.4957 24.4554H51.9538L52.588 23.1974ZM55.5329 21.6703H53.3525L54.2129 20.0306L54.4735 19.4058L54.7169 20.0218L55.5329 21.6703Z" fill="#0D0D0D"/>
<path fill-rule="evenodd" clip-rule="evenodd" d="M48.1105 25.7383C46.6531 25.7383 45.8864 26.4282 45.8864 27.4419C45.8864 28.5861 46.691 29.1665 48.1105 29.1665C49.6731 29.1665 50.3302 28.4935 50.3302 27.4419C50.3302 26.3735 49.5886 25.7383 48.1105 25.7383ZM48.1105 28.3211C47.2808 28.3211 47.0403 27.9803 47.0403 27.4545C47.0403 26.9372 47.3016 26.5964 48.1062 26.5964C48.9866 26.5964 49.1842 26.9792 49.1842 27.4545C49.1842 27.9593 48.9444 28.3211 48.1105 28.3211Z" fill="#0D0D0D"/>
<path d="M43.7263 29.1148V27.1588H41.5277V27.8697H42.7028C42.6944 27.9244 42.6522 28.0296 42.5975 28.0926C42.4754 28.2357 42.151 28.3618 41.7298 28.3618C41.2918 28.3618 41.0097 28.2483 40.858 28.0716C40.757 27.9412 40.698 27.7561 40.698 27.4785C40.698 27.1883 40.757 26.9906 40.8706 26.8602C41.0349 26.6751 41.3129 26.5952 41.7215 26.5952C42.0879 26.5952 42.3406 26.6793 42.4585 26.7844C42.5344 26.8476 42.5933 26.9359 42.6059 26.9948H43.6968C43.6926 26.8896 43.6589 26.7214 43.5999 26.5994C43.3388 26.0694 42.7323 25.7539 41.7004 25.7539C40.8033 25.7539 40.201 26.0273 39.8683 26.4396C39.6492 26.7214 39.5482 27.0747 39.5482 27.4701C39.5482 27.9076 39.6661 28.2819 39.8598 28.5301C40.1883 28.955 40.7738 29.1652 41.4772 29.1652C42.0963 29.1652 42.5217 29.0181 42.7913 28.7951L42.8208 29.1148H43.7263Z" fill="#0D0D0D"/>
<path d="M32.253 27.1162C33.108 27.2087 33.4744 27.5116 33.4744 28.0879C33.4744 28.7861 32.7921 29.1646 31.4485 29.1646C30.1976 29.1646 29.6585 28.8113 29.452 28.3486C29.4057 28.2393 29.3847 28.1047 29.372 28.0205H30.585C30.5935 28.071 30.623 28.1467 30.6651 28.1972C30.7661 28.3192 31.0483 28.3907 31.5285 28.3907C32.1477 28.3907 32.2951 28.3023 32.2951 28.1383C32.2951 27.9616 32.1435 27.9238 31.5833 27.8649C31.3601 27.8439 31.0062 27.8102 30.8588 27.7976C29.789 27.7008 29.3931 27.3685 29.3931 26.8007C29.3931 26.2117 30.0923 25.7617 31.3684 25.7617C32.5014 25.7617 33.0279 26.0982 33.247 26.5189C33.3143 26.645 33.3564 26.788 33.3691 26.889H32.1561C32.1518 26.8427 32.135 26.7965 32.0887 26.7376C31.996 26.6156 31.7601 26.5357 31.3389 26.5357C30.7451 26.5357 30.5893 26.6072 30.5893 26.7586C30.5893 26.9269 30.7873 26.9647 31.4485 27.0362C31.7054 27.0573 32.114 27.0993 32.253 27.1162Z" fill="#0D0D0D"/>
<path fill-rule="evenodd" clip-rule="evenodd" d="M20.161 26.0943C20.3842 26.271 20.5105 26.5696 20.5105 27.0029C20.5105 27.3562 20.4221 27.6212 20.2536 27.8063C20.0262 28.0671 19.6513 28.1849 19.1628 28.1891C19.0111 28.1933 17.7139 28.1891 17.7139 28.1891V29.1145H16.5809V25.8125H19.1459C19.6008 25.8125 19.9462 25.905 20.161 26.0943ZM19.3228 27.2595C19.3565 27.2006 19.3734 27.1248 19.3734 27.0197C19.3734 26.9104 19.3522 26.8178 19.3144 26.7673C19.2428 26.6622 19.108 26.6117 18.889 26.6117H17.7054V27.4193H18.8805C19.1164 27.4193 19.2554 27.3646 19.3228 27.2595Z" fill="#0D0D0D"/>
<path fill-rule="evenodd" clip-rule="evenodd" d="M24.6551 26.149C24.8068 26.3046 24.8784 26.5192 24.8784 26.8178C24.8784 27.0744 24.8152 27.2931 24.7099 27.4403C24.592 27.6002 24.4109 27.7348 24.1876 27.7685L25.1859 29.1145H23.9307L23.1094 27.9493H22.0859V29.1145H20.9614V25.8125H23.5938C24.1161 25.8125 24.4572 25.9387 24.6551 26.149ZM23.7454 27.0955C23.7749 27.045 23.7833 26.9776 23.7833 26.9229C23.7833 26.8599 23.7749 26.7926 23.7454 26.7505C23.6864 26.6411 23.5685 26.6117 23.3917 26.6117H22.0901V27.2132H23.4127C23.5938 27.2132 23.7033 27.1795 23.7454 27.0955Z" fill="#0D0D0D"/>
<path d="M29.0307 29.1145V28.2943H26.6595V27.8652H28.9339V27.0618H26.6595V26.6369H29.0012V25.8125H25.5475V29.1145H29.0307Z" fill="#0D0D0D"/>
<path d="M37.573 26.6411V25.8125H33.6265V26.6411H35.0206V29.1145H36.1746V26.6411H37.573Z" fill="#0D0D0D"/>
<path d="M39.0905 25.8125V29.1145H37.9322V25.8125H39.0905Z" fill="#0D0D0D"/>
<path d="M45.4289 25.8125V29.1145H44.2704V25.8125H45.4289Z" fill="#0D0D0D"/>
<path d="M54.7991 25.8125V27.8399C54.7991 28.7317 53.9902 29.1608 52.7647 29.1608C51.6194 29.1608 50.7977 28.7359 50.7977 27.7348V25.8125H51.9394V27.7348C51.9394 28.0923 52.2465 28.3153 52.8113 28.3153C53.3503 28.3153 53.6703 28.0839 53.6703 27.739V25.8125H54.7991Z" fill="#0D0D0D"/>
<path d="M59.346 28.0879C59.346 27.5116 58.9795 27.2087 58.1248 27.1162C57.9852 27.0993 57.5772 27.0573 57.3202 27.0362C56.6588 26.9647 56.4605 26.9269 56.4605 26.7586C56.4605 26.6072 56.6165 26.5357 57.2107 26.5357C57.6316 26.5357 57.8678 26.6156 57.9601 26.7376C58.0067 26.7965 58.0231 26.8427 58.0274 26.889H59.2407C59.2279 26.788 59.1856 26.645 59.1183 26.5189C58.8993 26.0982 58.3732 25.7617 57.24 25.7617C55.9637 25.7617 55.2644 26.2117 55.2644 26.8007C55.2644 27.3685 55.6609 27.7008 56.7304 27.7976L56.7991 27.8037L56.9136 27.8141L57.4548 27.8649C58.0153 27.9238 58.1663 27.9616 58.1663 28.1383C58.1663 28.3023 58.0195 28.3907 57.4004 28.3907C56.92 28.3907 56.638 28.3192 56.5364 28.1972C56.4948 28.1467 56.4648 28.071 56.4569 28.0205H55.2436C55.2565 28.1047 55.2772 28.2393 55.3238 28.3486C55.5299 28.8113 56.0689 29.1646 57.3202 29.1646C58.6638 29.1646 59.346 28.7861 59.346 28.0879Z" fill="#0D0D0D"/>
<path fill-rule="evenodd" clip-rule="evenodd" d="M29.8933 30.3789C28.9461 30.3789 28.4479 30.8273 28.4479 31.4861C28.4479 32.2297 28.9708 32.607 29.8933 32.607C30.9089 32.607 31.3359 32.1696 31.3359 31.4861C31.3359 30.7918 30.8541 30.3789 29.8933 30.3789ZM29.8933 32.0575C29.354 32.0575 29.198 31.836 29.198 31.4943C29.198 31.1581 29.3677 30.9366 29.8905 30.9366C30.4626 30.9366 30.5913 31.1854 30.5913 31.4943C30.5913 31.8224 30.4353 32.0575 29.8933 32.0575Z" fill="#0D0D0D"/>
<path d="M24.6261 31.9063C24.6261 31.5318 24.388 31.3349 23.8323 31.2748C23.7419 31.2638 23.4764 31.2365 23.3094 31.2229C22.8797 31.1763 22.751 31.1518 22.751 31.0424C22.751 30.944 22.8523 30.8975 23.2383 30.8975C23.512 30.8975 23.6653 30.9494 23.7255 31.0287C23.7556 31.067 23.7666 31.0971 23.7694 31.1272H24.5577C24.5495 31.0615 24.5221 30.9686 24.4783 30.8866C24.3359 30.6132 23.9938 30.3945 23.2574 30.3945C22.428 30.3945 21.9736 30.687 21.9736 31.0698C21.9736 31.4389 22.2309 31.6548 22.9262 31.7177C23.022 31.7259 23.252 31.7478 23.3971 31.7614C23.7611 31.7997 23.8596 31.8243 23.8596 31.9391C23.8596 32.0457 23.7638 32.1031 23.3615 32.1031C23.0494 32.1031 22.866 32.0567 22.8003 31.9774C22.7729 31.9446 22.7537 31.8954 22.7483 31.8626H21.9599C21.9681 31.9173 21.9818 32.0047 22.0119 32.0758C22.1461 32.3765 22.4965 32.6061 23.3094 32.6061C24.1827 32.6061 24.6261 32.3601 24.6261 31.9063Z" fill="#0D0D0D"/>
<path fill-rule="evenodd" clip-rule="evenodd" d="M19.1605 31.9689C19.1605 32.1165 19.1194 32.2614 19.0373 32.357C18.9114 32.5102 18.6759 32.5757 18.3721 32.5757H16.4642V30.4297H18.3201C18.6157 30.4297 18.8046 30.5008 18.9086 30.6074C19.0017 30.7003 19.0428 30.8234 19.0428 30.9628C19.0428 31.1023 19.0099 31.2171 18.9388 31.3018C18.8812 31.3729 18.7827 31.4275 18.6787 31.4413C18.832 31.4604 18.9771 31.5369 19.0592 31.6435C19.1276 31.7228 19.1605 31.8431 19.1605 31.9689ZM18.238 31.2171C18.2653 31.187 18.2818 31.1432 18.2818 31.0913C18.2818 31.0394 18.2653 30.9956 18.2297 30.9656C18.1915 30.93 18.1202 30.9163 18.0162 30.9163H17.1814V31.2663H18.0354C18.1285 31.2663 18.1997 31.2526 18.238 31.2171ZM18.1148 32.0892C18.2434 32.0892 18.3201 32.0727 18.3639 32.0318C18.3912 32.0044 18.4022 31.9634 18.4022 31.9115C18.4022 31.8568 18.3885 31.8158 18.3557 31.783C18.3146 31.7475 18.2434 31.731 18.123 31.731H17.1814V32.0892H18.1148Z" fill="#0D0D0D"/>
<path d="M21.7381 32.0427V32.5757H19.4743V30.4297H21.7189V30.9656H20.1969V31.2417H21.6751V31.7638H20.1969V32.0427H21.7381Z" fill="#0D0D0D"/>
<path d="M27.2899 30.4297V30.9683H26.3811V32.5757H25.6311V30.9683H24.725V30.4297H27.2899Z" fill="#0D0D0D"/>
<path d="M33.8408 30.4297V30.9737H32.3818V31.2772H33.7724V31.8158H32.3818V32.5757H31.6454V30.4297H33.8408Z" fill="#0D0D0D"/>
<path d="M37.5495 30.9683V30.4297H34.9847V30.9683H35.8908V32.5757H36.6408V30.9683H37.5495Z" fill="#0D0D0D"/>
<path d="M40.348 30.4297V32.5757H39.6143V31.7966H38.5139V32.5757H37.7803V30.4297H38.5139V31.2116H39.6143V30.4297H40.348Z" fill="#0D0D0D"/>
<path d="M43.0462 32.5757V32.0427H41.505V31.7638H42.9832V31.2417H41.505V30.9656H43.027V30.4297H40.7824V32.5757H43.0462Z" fill="#0D0D0D"/>
<path d="M47.5843 30.4297H48.293L47.5077 32.5757H46.7031C46.7031 32.5757 46.2729 31.2936 46.2701 31.258C46.2679 31.2936 45.8349 32.5757 45.8349 32.5757H45.0331L44.2283 30.4297H45.0245C45.0245 30.4297 45.4905 31.7802 45.4905 31.813C45.4905 31.7802 45.92 30.4297 45.92 30.4297H46.6895C46.6895 30.4297 47.1219 31.7802 47.1219 31.813C47.1219 31.7802 47.5843 30.4297 47.5843 30.4297Z" fill="#0D0D0D"/>
<path fill-rule="evenodd" clip-rule="evenodd" d="M49.6988 30.3789C48.7518 30.3789 48.2536 30.8273 48.2536 31.4861C48.2536 32.2297 48.7762 32.607 49.6988 32.607C50.7146 32.607 51.1412 32.1696 51.1412 31.4861C51.1412 30.7918 50.6595 30.3789 49.6988 30.3789ZM49.6988 32.0575C49.1598 32.0575 49.0038 31.836 49.0038 31.4943C49.0038 31.1581 49.1734 30.9366 49.696 30.9366C50.2686 30.9366 50.3968 31.1854 50.3968 31.4943C50.3968 31.8224 50.2407 32.0575 49.6988 32.0575Z" fill="#0D0D0D"/>
<path fill-rule="evenodd" clip-rule="evenodd" d="M53.8521 30.6484C53.9502 30.7496 53.9967 30.889 53.9967 31.0831C53.9967 31.2499 53.9559 31.392 53.8872 31.4877C53.8106 31.5916 53.6932 31.6791 53.5479 31.7009L54.1964 32.5757H53.3811L52.8471 31.8185H52.1821V32.5757H51.4512V30.4297H53.162C53.5013 30.4297 53.7232 30.5118 53.8521 30.6484ZM53.2608 31.2635C53.2794 31.2307 53.2852 31.187 53.2852 31.1514C53.2852 31.1104 53.2794 31.0667 53.2608 31.0394C53.2222 30.9683 53.1456 30.9491 53.0303 30.9491H52.185V31.3401H53.0439C53.162 31.3401 53.2329 31.3182 53.2608 31.2635Z" fill="#0D0D0D"/>
<path d="M56.4821 32.5757V32.0044H55.1735V30.4297H54.4319V32.5757H56.4821Z" fill="#0D0D0D"/>
<path fill-rule="evenodd" clip-rule="evenodd" d="M59.3847 31.4631C59.3847 31.7966 59.3518 31.9771 59.2537 32.1466C59.1055 32.4172 58.8128 32.5757 58.2952 32.5757H56.7734V30.4297H58.2788C58.7934 30.4297 59.0977 30.5746 59.248 30.8234C59.3546 30.9902 59.3847 31.1678 59.3847 31.4631ZM58.1556 32.0481C58.3883 32.0481 58.52 31.9935 58.5994 31.8732C58.6488 31.7994 58.6624 31.6271 58.6624 31.4768C58.6596 31.3401 58.6431 31.1952 58.5994 31.1296C58.5143 31.0011 58.3861 30.9546 58.1614 30.9546H57.5071V32.0481H58.1556Z" fill="#0D0D0D"/>
<path d="M30.0208 43.0117H28.8866C28.8866 43.0117 28.1464 45.1725 28.1464 45.225C28.1464 45.1725 27.4544 43.0117 27.4544 43.0117H26.2237C26.2237 43.0117 25.5361 45.1725 25.5361 45.225C25.5361 45.1725 24.7915 43.0117 24.7915 43.0117H23.517L24.8046 46.4453H26.0879C26.0879 46.4453 26.7799 44.3939 26.7843 44.3371C26.7887 44.3939 27.4762 46.4453 27.4762 46.4453H28.7639L30.0208 43.0117Z" fill="#0D0D0D"/>
<path d="M31.573 46.4453V43.0117H30.3686V46.4453H31.573Z" fill="#0D0D0D"/>
<path d="M36.2578 43.0117V46.4453H35.084L33.3804 44.5339V46.4453H32.2504V43.0117H33.4854L35.1365 44.8795V43.0117H36.2578Z" fill="#0D0D0D"/>
<path d="M40.9497 46.4453V43.0117H39.8285V44.8795L38.1774 43.0117H36.9423V46.4453H38.0722V44.5339L39.776 46.4453H40.9497Z" fill="#0D0D0D"/>
<path d="M45.2566 45.5924V46.4453H41.6342V43.0117H45.2258V43.869H42.7905V44.3108H45.1556V45.1463H42.7905V45.5924H45.2566Z" fill="#0D0D0D"/>
<path fill-rule="evenodd" clip-rule="evenodd" d="M49.8857 44.0571C49.8857 43.7466 49.8113 43.5235 49.6538 43.3617C49.4476 43.143 49.0933 43.0117 48.55 43.0117H45.8127V46.4453H46.9823V45.2337H48.0468L48.9007 46.4453H50.2057L49.1677 45.0457C49.3997 45.0106 49.5879 44.8707 49.711 44.7045C49.8199 44.5514 49.8857 44.3239 49.8857 44.0571ZM48.7468 44.1665C48.7468 44.2233 48.7382 44.2933 48.7075 44.3458C48.6638 44.4333 48.55 44.4682 48.3617 44.4682H46.9866V43.8428H48.3395C48.5235 43.8428 48.6466 43.8734 48.7075 43.9871C48.7382 44.0309 48.7468 44.1009 48.7468 44.1665Z" fill="#0D0D0D"/>
<path d="M26.5239 36.9561L26.0489 35.4961L25.5739 36.9561H24.0368L25.2803 37.8583L24.8054 39.3183L26.0489 38.416L27.2924 39.3183L26.8174 37.8583L28.0609 36.9561H26.5239Z" fill="#0D0D0D"/>
<path d="M31.5324 35.4961L32.0171 36.9561H33.5855L32.3167 37.8584L32.8014 39.3183L31.5324 38.416L30.2636 39.3183L30.7482 37.8584L29.4793 36.9561H31.0477L31.5324 35.4961Z" fill="#0D0D0D"/>
<path d="M37.4568 36.9561L36.9722 35.4961L36.4875 36.9561H34.919L36.1879 37.8584L35.7033 39.3183L36.9722 38.416L38.2411 39.3183L37.7564 37.8584L39.0253 36.9561H37.4568Z" fill="#0D0D0D"/>
<path d="M42.4123 35.4961L42.897 36.9561H44.4654L43.1966 37.8584L43.6813 39.3183L42.4123 38.416L41.1434 39.3183L41.6281 37.8584L40.3592 36.9561H41.9277L42.4123 35.4961Z" fill="#0D0D0D"/>
<path d="M48.3711 36.9561L47.8958 35.4961L47.4205 36.9561H45.8836L47.127 37.8584L46.6524 39.3183L47.8958 38.416L49.1392 39.3183L48.6646 37.8584L49.908 36.9561H48.3711Z" fill="#0D0D0D"/>
<path d="M68.3124 19.8389C68.7669 18.6847 68.5694 17.3573 68.1506 16.2411C67.7097 15.0666 66.9423 13.8951 65.7956 13.2773C65.7383 14.5152 66.117 15.738 66.5307 16.8407C66.9029 17.8325 67.3589 18.8891 68.1127 19.7093C68.2286 20.3307 68.3174 20.9504 68.3797 21.5672C68.1299 20.9157 67.7254 20.3219 67.22 19.8444C66.5694 19.2292 65.6009 18.7547 64.6925 19.0353C64.9588 20.0384 65.5651 21.0001 66.2837 21.6747C66.8492 22.2056 67.5958 22.8859 68.4749 22.9127C68.5114 23.8207 68.4906 24.7204 68.4155 25.6079C68.2916 24.9585 68.0261 24.3469 67.6417 23.8916C67.1141 23.2657 66.3317 22.5013 65.3331 22.6292C65.3875 23.6445 65.7934 24.6847 66.3582 25.4664C66.8063 26.0876 67.399 26.8793 68.2401 27.0839C68.1055 27.9557 67.918 28.813 67.6796 29.6521C67.6775 29.0096 67.5357 28.379 67.2537 27.8732C66.8564 27.1601 66.2372 26.2705 65.2372 26.201C65.0905 27.197 65.2895 28.2859 65.6903 29.1519C66.0103 29.8441 66.4377 30.7269 67.2158 31.0921C66.8886 31.9951 66.5021 32.8728 66.0583 33.7199C66.2143 32.9897 66.2079 32.2202 66.0239 31.5279C65.7698 30.5736 65.1399 29.5712 64.1277 29.2804C63.7698 30.334 63.8192 31.5096 64.0275 32.5803C64.1986 33.462 64.5343 34.4975 65.2873 35.0702C64.7948 35.8642 64.2501 36.6262 63.6553 37.3513C63.9752 36.6402 64.1334 35.8625 64.0482 35.1505C63.9244 34.1137 63.6331 33.0046 62.5729 32.452C61.9709 33.4886 61.8313 34.6515 61.7805 35.8002C61.739 36.7288 61.8729 37.8742 62.5192 38.6297C61.8084 39.3671 61.0425 40.0572 60.2243 40.6936C60.7526 40.0165 61.1227 39.222 61.2007 38.4363C61.3117 37.3262 61.258 36.1041 60.2708 35.2894C59.4276 36.1694 58.9237 37.4654 58.6774 38.5911C58.4591 39.5863 58.2315 40.7644 58.7504 41.7439C57.7089 42.4232 56.5965 43.0216 55.4204 43.5285C56.2479 42.9396 56.9251 42.1315 57.2479 41.2972C57.671 40.2039 57.9323 38.9009 57.1091 37.8058C56.0053 38.5118 55.1942 39.7162 54.555 40.8147C54.0067 41.7574 53.439 43.0584 53.7211 44.181C53.0697 44.4017 52.4018 44.5954 51.7182 44.7607L51.759 44.9283C52.4448 44.7624 53.1155 44.568 53.769 44.3468C54.2272 45.6983 55.7275 46.145 56.9408 46.3421C58.6695 46.623 60.7283 46.0788 62.2043 44.9824C61.4248 43.8829 59.8356 43.7714 58.6373 43.6873L58.6216 43.6862C57.3088 43.594 55.8886 43.7171 54.5686 44.0598C56.0933 43.4799 57.5207 42.7507 58.8371 41.8936L58.8549 41.9222C59.5758 43.0919 61.0246 43.1376 62.1613 43.0637C63.7039 42.9635 65.4842 42.0271 66.5142 40.7326C65.545 39.8834 64.1141 40.121 63.0046 40.3051L62.9988 40.3061C61.7612 40.5115 60.409 40.9597 59.2737 41.6499C59.3818 41.5649 59.487 41.475 59.5901 41.3807C60.6939 40.5947 61.7118 39.7154 62.6359 38.7568C62.6488 38.7696 62.6617 38.7821 62.6746 38.7947C63.5736 39.6905 64.8786 39.4541 65.8979 39.161C67.2651 38.7678 68.6825 37.5815 69.3618 36.2197C68.3088 35.6307 67.0504 36.116 66.0719 36.5C64.996 36.9218 63.8585 37.5968 62.9838 38.4573C63.074 38.3436 63.1606 38.2248 63.2422 38.1018C64.0547 37.1856 64.7862 36.2044 65.4291 35.1692L65.457 35.1864L65.4641 35.1909C66.4799 35.8438 67.6309 35.3697 68.5429 34.9035C69.7805 34.2709 70.7755 32.8805 71.205 31.5132C70.107 31.162 69.0225 31.8514 68.1792 32.3973C67.2558 32.9948 66.321 33.8469 65.6796 34.8243C65.7268 34.7278 65.7712 34.6292 65.812 34.5287C66.4283 33.4547 66.9516 32.3273 67.3754 31.1578L67.3976 31.1653L67.4011 31.1667C68.3253 31.5161 69.3539 30.9708 70.0246 30.3729C70.9566 29.5413 71.6145 28.2629 71.7684 27.0139C70.8049 26.8892 69.8965 27.6338 69.2759 28.2689C68.5615 29.0004 67.9194 29.8649 67.525 30.8253C67.5543 30.7205 67.5794 30.614 67.6001 30.5064C67.9588 29.4078 68.2308 28.2747 68.4097 27.1165L68.4369 27.12C69.4105 27.2775 70.311 26.5376 70.8493 25.8195C71.6066 24.809 71.9967 23.4104 71.8987 22.1428C70.9259 22.2108 70.1843 23.1356 69.7039 23.8838C69.147 24.7504 68.6853 25.7311 68.4835 26.7572C68.4899 26.6752 68.4935 26.5927 68.4949 26.5099C68.6431 25.3308 68.6961 24.1275 68.6474 22.9095C69.6417 22.8747 70.3783 21.9528 70.7576 21.1352C71.2995 19.9658 71.3868 18.4876 71.0254 17.2419C70.0783 17.5073 69.55 18.592 69.2387 19.4271C68.8793 20.3899 68.6288 21.4402 68.6266 22.4842C68.5751 21.6083 68.4706 20.7254 68.3124 19.8389Z" fill="#0D0D0D"/>
</svg>
