<svg width="30" height="30" viewBox="0 0 30 30" fill="none" xmlns="http://www.w3.org/2000/svg">
<g clip-path="url(#clip0_569_3323)">
<path d="M18.7715 27.8571C20.0911 28.7085 21.6636 29.0795 23.2246 28.9078C24.7856 28.7361 26.2399 28.0321 27.3429 26.9143L28.3072 25.9714C28.7299 25.539 28.9666 24.9583 28.9666 24.3536C28.9666 23.7488 28.7299 23.1681 28.3072 22.7357L24.2143 18.6857C23.7855 18.2643 23.2084 18.0282 22.6072 18.0282C22.006 18.0282 21.4288 18.2643 21 18.6857V18.6857C20.5676 19.1085 19.9869 19.3452 19.3822 19.3452C18.7775 19.3452 18.1967 19.1085 17.7643 18.6857L11.3358 12.2571C11.1213 12.0458 10.951 11.7939 10.8348 11.5162C10.7185 11.2385 10.6587 10.9404 10.6587 10.6393C10.6587 10.3382 10.7185 10.0401 10.8348 9.76237C10.951 9.48463 11.1213 9.23276 11.3358 9.02143V9.02143C11.7572 8.59264 11.9933 8.01549 11.9933 7.41428C11.9933 6.81308 11.7572 6.23593 11.3358 5.80714L7.26433 1.73571C6.83192 1.31296 6.2512 1.07626 5.64647 1.07626C5.04174 1.07626 4.46103 1.31296 4.02861 1.73571L3.08576 2.7C1.96793 3.80302 1.26397 5.25729 1.09227 6.81829C0.920556 8.37928 1.29156 9.9518 2.1429 11.2714C6.57871 17.8087 12.2228 23.4382 18.7715 27.8571V27.8571Z" stroke="#0D0D0D" stroke-width="1.5" stroke-linecap="round" stroke-linejoin="round"/>
</g>
<defs>
<clipPath id="clip0_569_3323">
<rect width="30" height="30" fill="white"/>
</clipPath>
</defs>
</svg>
