<svg width="30" height="30" viewBox="0 0 30 30" fill="none" xmlns="http://www.w3.org/2000/svg">
<g clip-path="url(#clip0_291_38393)">
<path d="M18.2143 10.7154C19.3977 10.7154 20.3571 9.75601 20.3571 8.57254C20.3571 7.38908 19.3977 6.42969 18.2143 6.42969C17.0308 6.42969 16.0714 7.38908 16.0714 8.57254C16.0714 9.75601 17.0308 10.7154 18.2143 10.7154Z" stroke="#0D0D0D" stroke-width="1.5" stroke-linecap="round" stroke-linejoin="round"/>
<path d="M9.64284 21.43C10.2346 21.43 10.7143 20.9503 10.7143 20.3585C10.7143 19.7668 10.2346 19.2871 9.64284 19.2871C9.05111 19.2871 8.57141 19.7668 8.57141 20.3585C8.57141 20.9503 9.05111 21.43 9.64284 21.43Z" stroke="#0D0D0D" stroke-width="1.5" stroke-linecap="round" stroke-linejoin="round"/>
<path d="M9.64286 13.9302C10.8263 13.9302 11.7857 12.9709 11.7857 11.7874C11.7857 10.6039 10.8263 9.64453 9.64286 9.64453C8.45939 9.64453 7.5 10.6039 7.5 11.7874C7.5 12.9709 8.45939 13.9302 9.64286 13.9302Z" stroke="#0D0D0D" stroke-width="1.5" stroke-linecap="round" stroke-linejoin="round"/>
<path d="M20.4 26.3151C20.3761 25.8995 20.2317 25.4998 19.9843 25.1649C19.737 24.83 19.3974 24.5744 19.0072 24.4294C18.0379 24.1109 17.2142 23.457 16.6839 22.5854C16.1537 21.7138 15.9518 20.6817 16.1144 19.6745C16.2771 18.6674 16.7938 17.7513 17.5715 17.091C18.3492 16.4307 19.3369 16.0695 20.3572 16.0723H24.3643C25.0516 16.0742 25.7292 15.9108 26.3401 15.5958C26.951 15.2809 27.4772 14.8237 27.8742 14.2627C28.2713 13.7017 28.5277 13.0535 28.6217 12.3727C28.7157 11.6919 28.6445 10.9984 28.4143 10.3508C27.562 7.94434 26.0647 5.81838 24.086 4.20523C22.1072 2.59207 19.7232 1.55377 17.1943 1.20378C14.6655 0.853789 12.0891 1.20556 9.74659 2.22067C7.40411 3.23577 5.38568 4.87516 3.91183 6.95972C2.43797 9.04428 1.56538 11.4938 1.3894 14.0407C1.21342 16.5876 1.74081 19.1339 2.91395 21.4013C4.0871 23.6688 5.86087 25.5702 8.04147 26.8978C10.2221 28.2255 12.7256 28.9283 15.2786 28.9294C16.5394 28.9329 17.7944 28.7598 19.0072 28.4151C19.4526 28.2903 19.8383 28.0096 20.094 27.6241C20.3497 27.2386 20.4583 26.774 20.4 26.3151V26.3151Z" stroke="#0D0D0D" stroke-width="1.5" stroke-linecap="round" stroke-linejoin="round"/>
</g>
<defs>
<clipPath id="clip0_291_38393">
<rect width="30" height="30" fill="white"/>
</clipPath>
</defs>
</svg>
