<svg width="20" height="20" viewBox="0 0 20 20" fill="none" xmlns="http://www.w3.org/2000/svg">
<g clip-path="url(#clip0_594_4682)">
<path d="M7.47166 3.21429L8.08595 1.62858C8.18955 1.3601 8.37181 1.12917 8.60888 0.966026C8.84594 0.802886 9.12675 0.715145 9.41452 0.714294H10.5859C10.8737 0.715145 11.1545 0.802886 11.3916 0.966026C11.6287 1.12917 11.8109 1.3601 11.9145 1.62858L12.5288 3.21429L14.6145 4.41429L16.3002 4.15715C16.5809 4.11905 16.8666 4.16526 17.121 4.2899C17.3753 4.41454 17.5869 4.61199 17.7288 4.85715L18.3002 5.85715C18.4467 6.10622 18.5141 6.39384 18.4937 6.68204C18.4733 6.97024 18.366 7.24548 18.1859 7.47144L17.1431 8.80001V11.2L18.2145 12.5286C18.3946 12.7545 18.5019 13.0298 18.5223 13.318C18.5427 13.6062 18.4752 13.8938 18.3288 14.1429L17.7574 15.1429C17.6155 15.388 17.4039 15.5855 17.1495 15.7101C16.8952 15.8348 16.6095 15.881 16.3288 15.8429L14.6431 15.5857L12.5574 16.7857L11.9431 18.3714C11.8395 18.6399 11.6572 18.8709 11.4202 19.034C11.1831 19.1971 10.9023 19.2849 10.6145 19.2857H9.41452C9.12675 19.2849 8.84594 19.1971 8.60888 19.034C8.37181 18.8709 8.18955 18.6399 8.08595 18.3714L7.47166 16.7857L5.38595 15.5857L3.70023 15.8429C3.41954 15.881 3.13386 15.8348 2.87949 15.7101C2.62513 15.5855 2.41355 15.388 2.27166 15.1429L1.70023 14.1429C1.55381 13.8938 1.48634 13.6062 1.50675 13.318C1.52715 13.0298 1.63446 12.7545 1.81452 12.5286L2.85738 11.2V8.80001L1.78595 7.47144C1.60589 7.24548 1.49858 6.97024 1.47818 6.68204C1.45777 6.39384 1.52524 6.10622 1.67166 5.85715L2.24309 4.85715C2.38498 4.61199 2.59655 4.41454 2.85092 4.2899C3.10529 4.16526 3.39097 4.11905 3.67166 4.15715L5.35738 4.41429L7.47166 3.21429ZM7.14309 10C7.14309 10.5651 7.31066 11.1175 7.62461 11.5874C7.93855 12.0572 8.38478 12.4234 8.90685 12.6397C9.42893 12.8559 10.0034 12.9125 10.5576 12.8023C11.1119 12.692 11.621 12.4199 12.0205 12.0203C12.4201 11.6207 12.6922 11.1116 12.8025 10.5574C12.9127 10.0032 12.8561 9.4287 12.6399 8.90663C12.4236 8.38455 12.0574 7.93833 11.5876 7.62438C11.1177 7.31043 10.5653 7.14287 10.0002 7.14287C9.24247 7.14287 8.51575 7.44389 7.97993 7.9797C7.44411 8.51552 7.14309 9.24225 7.14309 10V10Z" stroke="#0D0D0D" stroke-linecap="round" stroke-linejoin="round"/>
</g>
<defs>
<clipPath id="clip0_594_4682">
<rect width="20" height="20" fill="white"/>
</clipPath>
</defs>
</svg>
