<svg width="15" height="15" viewBox="0 0 15 15" fill="none" xmlns="http://www.w3.org/2000/svg">
<g clip-path="url(#clip0_580_1807)">
<path d="M3.48256 6.42857C5.10983 6.42857 6.42899 5.10941 6.42899 3.48214C6.42899 1.85488 5.10983 0.535715 3.48256 0.535715C1.85529 0.535715 0.536133 1.85488 0.536133 3.48214C0.536133 5.10941 1.85529 6.42857 3.48256 6.42857Z" stroke="#0D0D0D" stroke-linecap="round" stroke-linejoin="round"/>
<path d="M11.5187 6.42857C13.146 6.42857 14.4651 5.10941 14.4651 3.48214C14.4651 1.85488 13.146 0.535715 11.5187 0.535715C9.89143 0.535715 8.57227 1.85488 8.57227 3.48214C8.57227 5.10941 9.89143 6.42857 11.5187 6.42857Z" stroke="#0D0D0D" stroke-linecap="round" stroke-linejoin="round"/>
<path d="M3.48256 14.4643C5.10983 14.4643 6.42899 13.1451 6.42899 11.5179C6.42899 9.89059 5.10983 8.57143 3.48256 8.57143C1.85529 8.57143 0.536133 9.89059 0.536133 11.5179C0.536133 13.1451 1.85529 14.4643 3.48256 14.4643Z" stroke="#0D0D0D" stroke-linecap="round" stroke-linejoin="round"/>
<path d="M11.5187 14.4643C13.146 14.4643 14.4651 13.1451 14.4651 11.5179C14.4651 9.89059 13.146 8.57143 11.5187 8.57143C9.89143 8.57143 8.57227 9.89059 8.57227 11.5179C8.57227 13.1451 9.89143 14.4643 11.5187 14.4643Z" stroke="#0D0D0D" stroke-linecap="round" stroke-linejoin="round"/>
</g>
<defs>
<clipPath id="clip0_580_1807">
<rect width="15" height="15" fill="white"/>
</clipPath>
</defs>
</svg>
