<svg width="74" height="64" viewBox="0 0 74 64" fill="none" xmlns="http://www.w3.org/2000/svg">
<path d="M66.7878 17.6491C67.4674 18.661 68.1196 19.9093 67.7989 21.2471C66.6919 20.6158 65.8015 19.5851 65.0955 18.5676C64.3845 17.5432 63.6463 16.454 63.3933 15.1914C64.7896 15.5472 66.0396 16.535 66.7878 17.6491Z" fill="#0D0D0D"/>
<path d="M6.77287 21.2437C6.45293 19.9057 7.10653 18.6579 7.78733 17.6465C8.53675 16.5331 9.78716 15.5463 11.1836 15.1914C10.9299 16.4537 10.1905 17.5426 9.47879 18.5663C8.77187 19.5833 7.88025 20.6133 6.77287 21.2437Z" fill="#0D0D0D"/>
<path d="M5.7985 23.8125C6.04825 22.7529 6.04272 21.5929 5.80495 20.599C5.59588 19.7256 5.29164 18.4908 4.29032 18.0742C3.56248 19.2374 3.26991 20.8215 3.6941 22.0085C4.00081 22.867 4.55239 24.0021 5.69632 24.1778C6.746 24.4189 7.80742 23.861 8.64572 23.4004C9.57784 22.8883 10.4909 22.0736 11.0456 21.105C10.028 20.5933 8.8691 21.0086 7.99724 21.4066C7.05743 21.8356 6.19409 22.7562 5.7985 23.8125Z" fill="#0D0D0D"/>
<path d="M26.1697 24.8278V19.5078H24.3468V21.4461H21.6125V19.5078H19.7896V24.8278H21.6125V22.8964H24.3468V24.8278H26.1697Z" fill="#0D0D0D"/>
<path d="M32.2143 19.5078H34.2277L31.3709 23.0725V24.8278H29.5412V23.0793L26.7185 19.5078H28.793L30.4799 21.6358L32.2143 19.5078Z" fill="#0D0D0D"/>
<path fill-rule="evenodd" clip-rule="evenodd" d="M40.5762 19.9618C40.9368 20.2465 41.1408 20.7277 41.1408 21.4257C41.1408 21.995 40.9979 22.4219 40.7259 22.7202C40.3586 23.1403 39.7532 23.33 38.9642 23.3369C38.7194 23.3436 36.6244 23.3369 36.6244 23.3369V24.8278H34.7947V19.5078H38.937C39.6716 19.5078 40.2293 19.6569 40.5762 19.9618ZM39.2227 21.8391C39.2771 21.7442 39.3043 21.6222 39.3043 21.4528C39.3043 21.2766 39.2703 21.1275 39.2091 21.0462C39.0934 20.8768 38.8758 20.7954 38.5221 20.7954H36.6108V22.0966H38.5085C38.8894 22.0966 39.1139 22.0086 39.2227 21.8391Z" fill="#0D0D0D"/>
<path d="M47.4938 23.5062V24.8278H41.8689V19.5078H47.4467V20.8361H43.6645V21.5206H47.3375V22.815H43.6645V23.5062H47.4938Z" fill="#0D0D0D"/>
<path fill-rule="evenodd" clip-rule="evenodd" d="M54.3234 20.05C54.5689 20.3007 54.6839 20.6463 54.6839 21.1275C54.6839 21.541 54.5822 21.8933 54.4119 22.1306C54.2217 22.388 53.9291 22.6049 53.5686 22.6591L55.1807 24.8278H53.1536L51.8275 22.9505H50.1749V24.8278H48.3586V19.5078H52.6096C53.4529 19.5078 54.0043 19.7111 54.3234 20.05ZM52.8543 21.5748C52.9023 21.4935 52.9155 21.385 52.9155 21.297C52.9155 21.1953 52.9023 21.0868 52.8543 21.0191C52.7593 20.8429 52.5691 20.7954 52.2831 20.7954H50.1816V21.7646H52.317C52.6096 21.7646 52.7865 21.7104 52.8543 21.5748Z" fill="#0D0D0D"/>
<path d="M46.5202 31.5024C46.5202 30.2864 45.7448 29.6473 43.9363 29.452C43.6423 29.4165 42.7781 29.3277 42.2346 29.2833C40.8359 29.1324 40.4173 29.0526 40.4173 28.6975C40.4173 28.378 40.7469 28.2271 42.003 28.2271C42.8939 28.2271 43.3929 28.3957 43.5888 28.6531C43.6868 28.7774 43.7225 28.875 43.7314 28.9727H46.2972C46.2704 28.7596 46.1814 28.4578 46.0388 28.1916C45.5756 27.3039 44.4619 26.5938 42.0654 26.5938C39.3659 26.5938 37.8871 27.5436 37.8871 28.7863C37.8871 29.9846 38.7245 30.6858 40.9874 30.89C41.2432 30.9118 41.7927 30.9636 42.2426 31.0059L42.2704 31.0085L42.2755 31.009L42.2775 31.0092L42.5198 31.032C43.7046 31.1563 44.0254 31.2361 44.0254 31.609C44.0254 31.9551 43.7135 32.1415 42.4039 32.1415C41.3883 32.1415 40.7914 31.9906 40.5776 31.7332C40.4885 31.6267 40.4261 31.4669 40.4083 31.3604H37.8425C37.8692 31.5379 37.9138 31.822 38.0118 32.0528C38.4483 33.0292 39.5887 33.7749 42.2346 33.7749C45.0766 33.7749 46.5202 32.9759 46.5202 31.5024Z" fill="#0D0D0D"/>
<path fill-rule="evenodd" clip-rule="evenodd" d="M28.3307 32.9572C28.5979 32.6465 28.7315 32.176 28.7315 31.6967C28.7315 31.2884 28.6246 30.8978 28.4019 30.6404C28.1346 30.2942 27.6624 30.0457 27.1636 29.9836C27.5021 29.9392 27.8228 29.7617 28.0099 29.5309C28.2415 29.2557 28.3484 28.8828 28.3484 28.4301C28.3484 27.9774 28.2148 27.578 27.9119 27.2762C27.5734 26.93 26.9586 26.6992 25.9965 26.6992H19.9562V33.6673H26.1657C27.1546 33.6673 27.9208 33.4542 28.3307 32.9572ZM25.8717 28.8473C25.8717 29.016 25.8183 29.158 25.7292 29.2557C25.6045 29.3711 25.3728 29.4155 25.0699 29.4155H22.2903V28.2792H25.0076C25.3461 28.2792 25.5778 28.3236 25.7024 28.439C25.8183 28.5366 25.8717 28.6787 25.8717 28.8473ZM26.139 31.9009C25.9965 32.034 25.747 32.0873 25.3283 32.0873H22.2903V30.9245H25.3551C25.747 30.9245 25.9786 30.9777 26.1122 31.0931C26.2192 31.1996 26.2637 31.3328 26.2637 31.5103C26.2637 31.679 26.2281 31.8121 26.139 31.9009Z" fill="#0D0D0D"/>
<path d="M37.1203 31.9364V33.6673H29.7526V26.6992H37.0579V28.439H32.1045V29.3356H36.9154V31.031H32.1045V31.9364H37.1203Z" fill="#0D0D0D"/>
<path d="M55.1889 28.4479V26.6992H46.8416V28.4479H49.7905V33.6673H52.2309V28.4479H55.1889Z" fill="#0D0D0D"/>
<path d="M54.9773 39.833H54.5846L54.5565 39.4562C54.4366 39.6469 54.1828 39.8758 53.6471 39.8758C52.7418 39.8758 52.321 39.3322 52.321 37.9442C52.321 36.871 52.5889 36.0078 53.6942 36.0078C54.6524 36.0078 54.9442 36.6327 54.9583 37.3051H54.4796C54.4655 36.8664 54.2688 36.4609 53.7041 36.4609C53.0246 36.4609 52.8278 36.8664 52.8278 37.9586C52.8278 39.0985 53.0725 39.4562 53.7141 39.4562C54.1638 39.4562 54.4267 39.2082 54.5135 38.9125V38.2018H53.5462V37.7677H54.9723V38.8648C54.9723 39.1926 54.9756 39.5424 54.9765 39.7183L54.9773 39.8019V39.833Z" fill="#0D0D0D"/>
<path fill-rule="evenodd" clip-rule="evenodd" d="M20.0465 38.8869H21.3869L21.6645 39.836H22.1719L21.0613 36.0586H20.4438L19.2566 39.836H19.7592L20.0465 38.8869ZM21.2672 38.4624H20.1757C20.1757 38.4624 20.6496 36.9362 20.6592 36.9028C20.664 36.8789 20.7406 36.5403 20.7406 36.5403L20.7936 36.7908L20.8172 36.9028C20.822 36.9266 21.2672 38.4624 21.2672 38.4624Z" fill="#0D0D0D"/>
<path d="M25.8054 36.0586H26.265L25.3698 39.836H24.8001C24.8001 39.836 24.1635 36.898 24.1635 36.774C24.1587 36.898 23.5076 39.836 23.5076 39.836H22.938L22.0428 36.0586H22.5598C22.5598 36.0586 23.2539 39.049 23.2539 39.1683C23.2539 39.049 23.8906 36.0586 23.8906 36.0586H24.4602C24.4602 36.0586 25.0969 39.0538 25.0969 39.1683C25.0969 39.0538 25.8054 36.0586 25.8054 36.0586Z" fill="#0D0D0D"/>
<path fill-rule="evenodd" clip-rule="evenodd" d="M28.2307 38.8869H26.8903L26.6031 39.836H26.1005L27.2876 36.0586H27.9052L29.0158 39.836H28.5084L28.2307 38.8869ZM27.0196 38.4624H28.111C28.111 38.4624 27.6659 36.9266 27.6611 36.9028L27.6248 36.7309L27.5844 36.5403C27.5844 36.5403 27.5079 36.8789 27.5031 36.9028C27.4935 36.9362 27.0196 38.4624 27.0196 38.4624Z" fill="#0D0D0D"/>
<path fill-rule="evenodd" clip-rule="evenodd" d="M30.8606 36.0586C31.4446 36.0586 31.7605 36.3304 31.7605 37.1222C31.7605 37.7947 31.5068 38.0188 31.2435 38.0951L31.9712 39.836H31.4446L30.7696 38.1906H29.8506V39.836H29.3718V36.0586H30.8606ZM30.7888 37.7613C31.167 37.7613 31.2579 37.5657 31.2579 37.1365C31.2579 36.65 31.1143 36.5022 30.7648 36.5022H29.8553V37.7613H30.7888Z" fill="#0D0D0D"/>
<path fill-rule="evenodd" clip-rule="evenodd" d="M34.9476 37.8853C34.9476 38.7772 34.8806 39.1396 34.6892 39.4115C34.4977 39.6739 34.1961 39.836 33.7078 39.836H32.4058V36.0586H33.6743C34.153 36.0586 34.5264 36.2017 34.6987 36.4592C34.8902 36.7358 34.9476 37.0792 34.9476 37.8853ZM33.6073 39.3877C33.8993 39.3877 34.1434 39.3114 34.2679 39.1444C34.402 38.9632 34.4402 38.5959 34.4402 37.8853C34.4402 37.2891 34.4067 36.9695 34.2679 36.7644C34.1386 36.588 33.8897 36.5116 33.5977 36.5116H32.8892V39.3877H33.6073Z" fill="#0D0D0D"/>
<path d="M39.9979 36.0586H40.4575L39.5623 39.836H38.9926C38.9926 39.836 38.356 36.898 38.356 36.774C38.3512 36.898 37.7001 39.836 37.7001 39.836H37.1305L36.2354 36.0586H36.7523C36.7523 36.0586 37.4464 39.049 37.4464 39.1683C37.4464 39.049 38.0831 36.0586 38.0831 36.0586H38.6528C38.6528 36.0586 39.2894 39.0538 39.2894 39.1683C39.2894 39.0538 39.9979 36.0586 39.9979 36.0586Z" fill="#0D0D0D"/>
<path d="M41.304 36.0586V39.836H40.8062V36.0586H41.304Z" fill="#0D0D0D"/>
<path d="M44.4205 36.0586V39.836H43.87L42.4578 36.9075V39.836H41.9934V36.0586H42.5727L43.9513 38.9441V36.0586H44.4205Z" fill="#0D0D0D"/>
<path d="M47.5244 36.0586V39.836H46.9739L45.5619 36.9075V39.836H45.0975V36.0586H45.6768L47.0557 38.9441V36.0586H47.5244Z" fill="#0D0D0D"/>
<path d="M48.6993 36.0586V39.836H48.2017V36.0586H48.6993Z" fill="#0D0D0D"/>
<path d="M51.8162 36.0586V39.836H51.2656L49.8535 36.9075V39.836H49.3889V36.0586H49.9684L51.3474 38.9441V36.0586H51.8162Z" fill="#0D0D0D"/>
<path d="M25.4357 47.2798L24.8872 45.5977L24.3386 47.2798H22.5635L23.9996 48.3195L23.451 50.0017L24.8872 48.962L26.3234 50.0017L25.7748 48.3195L27.2109 47.2798H25.4357Z" fill="#0D0D0D"/>
<path d="M31.7796 47.2798L31.2198 45.5977L30.6601 47.2798H28.8486L30.3142 48.3194L29.7544 50.0016L31.2198 48.962L32.6853 50.0016L32.1256 48.3194L33.591 47.2798H31.7796Z" fill="#0D0D0D"/>
<path d="M38.0628 47.2798L37.503 45.5977L36.9433 47.2798H35.1318L36.5973 48.3194L36.0375 50.0016L37.503 48.962L38.9685 50.0016L38.4087 48.3194L39.8742 47.2798H38.0628Z" fill="#0D0D0D"/>
<path d="M44.3454 47.2798L43.7856 45.5977L43.2258 47.2798H41.4144L42.8799 48.3194L42.3201 50.0016L43.7856 48.962L45.2511 50.0016L44.6913 48.3194L46.1568 47.2798H44.3454Z" fill="#0D0D0D"/>
<path d="M50.6671 47.2798L50.1189 45.5977L49.57 47.2798H47.795L49.2311 48.3194L48.6829 50.0016L50.1189 48.962L51.555 50.0016L51.006 48.3194L52.4428 47.2798H50.6671Z" fill="#0D0D0D"/>
<path d="M2.56631 26.6705C3.08251 27.4551 3.88129 28.438 5.04597 28.41C6.10507 28.4627 7.02008 27.7425 7.74065 27.1415C8.51669 26.4941 9.21716 25.5475 9.51288 24.524C8.42963 24.21 7.39252 24.7917 6.61913 25.3404C5.81151 25.9134 5.19039 26.9622 5.05696 28.039C5.04696 26.9602 4.75389 25.846 4.28142 24.9484C3.84946 24.1278 3.24753 23.0186 2.17362 22.7969C1.75051 24.0737 1.88551 25.6359 2.56631 26.6705Z" fill="#0D0D0D"/>
<path d="M5.39049 32.6328C4.30956 32.8133 3.25517 32.1534 2.5704 31.3773C1.68879 30.3779 1.16423 29.0374 1.27121 27.6953C2.38165 27.7234 3.22267 28.6798 3.84428 29.403C4.51376 30.1819 5.06228 31.2067 5.32543 32.2638C5.20969 31.2103 5.56468 30.0727 6.22366 29.3697C6.85973 28.6912 7.75077 27.9516 8.85939 28.0703C8.8355 29.1386 8.29805 30.1564 7.74374 30.9186C7.22704 31.629 6.43108 32.5076 5.39049 32.6328Z" fill="#0D0D0D"/>
<path d="M3.39361 36.1859C4.38914 36.8317 5.59656 37.4709 6.86548 36.9871C7.90649 36.6202 8.56836 35.5761 8.97543 34.6178C9.40665 33.6025 9.69467 32.4316 9.49527 31.3203C8.35134 31.4215 7.40277 32.2369 6.89897 33.2324C6.37227 34.273 6.27124 35.5117 6.67584 36.6028C6.07804 35.4803 5.20378 34.5721 4.2777 33.7329C3.43585 32.9701 2.22322 32.1665 1.00183 32.3176C1.23422 33.8221 2.15568 35.383 3.39361 36.1859Z" fill="#0D0D0D"/>
<path d="M9.42985 41.0524C10.4095 40.4689 10.8038 39.2411 10.9649 38.189C11.1386 37.0543 11.1312 35.803 10.6582 34.7266C9.52162 35.0429 8.74145 36.0621 8.48384 37.1785C8.21169 38.3579 8.44135 39.615 9.10338 40.6192C8.22334 39.6132 7.05312 38.7826 5.93168 38.2002C4.84844 37.6376 3.51949 36.959 2.21857 37.3688C2.84588 38.8942 4.18781 40.3145 5.67507 40.9019C6.82685 41.3568 8.22805 41.8066 9.42985 41.0524Z" fill="#0D0D0D"/>
<path d="M14.0742 41.4487C14.2179 42.5439 14.2139 43.933 13.3605 44.776C12.294 45.8636 10.6435 45.6537 9.37057 45.4144C7.66158 45.0929 5.73781 43.9316 4.70673 42.3853C5.96598 41.6944 7.50607 42.1363 8.75276 42.4941L8.82394 42.5144C10.2156 42.9133 11.6985 43.5558 12.9388 44.4337C11.949 43.5427 11.2279 42.2348 11.1926 40.9165C11.1608 39.7375 11.6745 38.4761 12.7798 37.9141C13.5514 38.9232 13.9128 40.2188 14.0742 41.4487Z" fill="#0D0D0D"/>
<path d="M19.0271 47.8745C19.6556 46.6825 19.0329 45.2835 18.5367 44.2496C17.95 43.0272 17.1485 41.7814 16.0015 40.8867C14.9 41.8325 15.0048 43.1857 15.3322 44.3618C15.7216 45.7602 17.0716 46.9523 18.4695 47.6316C16.8505 47.03 15.0824 46.669 13.4002 46.5624L13.2298 46.5515C11.8784 46.4637 10.1191 46.3496 9.04218 47.335C10.6704 48.7141 12.9831 49.5098 15.0215 49.4684C16.3875 49.4408 18.2616 49.2797 19.0271 47.8745Z" fill="#0D0D0D"/>
<path d="M68.7711 23.8127C68.3767 22.7556 67.5136 21.8339 66.5745 21.404C65.7023 21.0054 64.5441 20.5893 63.5264 21.1002C64.0803 22.0692 64.9921 22.8845 65.9238 23.3974C66.7613 23.8585 67.822 24.4171 68.8719 24.177C70.0161 24.0024 70.5692 22.8675 70.8767 22.009C71.3025 20.8226 71.0115 19.2382 70.2848 18.0742C69.2828 18.4903 68.9769 19.7247 68.7678 20.598C68.5288 21.5922 68.5222 22.7526 68.7711 23.8127Z" fill="#0D0D0D"/>
<path d="M67.9486 25.3413C68.7555 25.9146 69.3747 26.9628 69.5078 28.0389C69.5193 26.9606 69.8137 25.8475 70.2865 24.9508C70.7189 24.1305 71.3224 23.0218 72.3963 22.8008C72.8179 24.078 72.6815 25.6402 71.9995 26.6741C71.4836 27.4574 70.685 28.4382 69.5227 28.4119C68.462 28.4659 67.546 27.744 66.8251 27.1417C66.0496 26.4937 65.3502 25.5465 65.0559 24.5229C66.1389 24.2096 67.1756 24.7921 67.9486 25.3413Z" fill="#0D0D0D"/>
<path d="M69.2349 32.2686C69.3532 31.2142 68.9993 30.0742 68.3396 29.3698C67.7047 28.6908 66.8143 27.9506 65.7057 28.0685C65.728 29.1367 66.2645 30.155 66.8184 30.9177C67.3343 31.6281 68.1288 32.5067 69.1688 32.6333C70.2502 32.8158 71.3059 32.1563 71.992 31.3802C72.8741 30.3816 73.3999 29.0414 73.2949 27.6992C72.1838 27.7266 71.3422 28.6822 70.7197 29.4049C70.0484 30.1843 69.4987 31.2102 69.2349 32.2686Z" fill="#0D0D0D"/>
<path d="M67.6608 33.2343C68.1866 34.2756 68.2866 35.5145 67.8807 36.6053C68.4792 35.483 69.3547 34.5753 70.2815 33.7367C71.1239 32.9745 72.3375 32.1719 73.5586 32.3239C73.3254 33.8283 72.402 35.3885 71.1636 36.1904C70.1682 36.8346 68.962 37.4724 67.6947 36.9907C66.6522 36.6244 65.99 35.5782 65.5832 34.6182C65.1525 33.6025 64.8656 32.4316 65.0665 31.3203C66.2099 31.4224 67.1581 32.2386 67.6608 33.2343Z" fill="#0D0D0D"/>
<path d="M65.4509 40.6181C66.1123 39.6148 66.3429 38.359 66.0726 37.1801C65.8163 36.0635 65.0367 35.0437 63.9 34.7266C63.4263 35.8025 63.418 37.0538 63.59 38.1887C63.7503 39.2387 64.1422 40.464 65.1161 41.0497C66.3189 41.8098 67.7235 41.3602 68.8768 40.9055C70.3649 40.3192 71.7083 38.8999 72.3366 37.3748C71.0362 36.9642 69.7068 37.6418 68.623 38.2036C67.502 38.7849 66.3313 39.6137 65.4509 40.6181Z" fill="#0D0D0D"/>
<path d="M60.4777 41.4479C60.333 42.5428 60.3355 43.9319 61.1887 44.7756C62.2535 45.864 63.9044 45.6553 65.1776 45.4168C66.8872 45.0966 68.8118 43.9365 69.8444 42.3911C68.5861 41.6995 67.0451 42.1401 65.7985 42.4968L65.7265 42.5172C64.3352 42.9149 62.852 43.5561 61.6111 44.4327C62.6015 43.5423 63.3233 42.2355 63.3596 40.9178C63.3927 39.7388 62.8801 38.477 61.7757 37.9141C61.0027 38.9226 60.6406 40.218 60.4777 41.4479Z" fill="#0D0D0D"/>
<path d="M59.5228 49.4651C58.157 49.4364 56.2829 49.274 55.519 47.8681L55.5082 47.8488C54.8981 46.6605 55.5182 45.2716 56.0125 44.2437C56.6003 43.0217 57.4031 41.7765 58.5506 40.8828C59.6517 41.8293 59.5451 43.1825 59.2169 44.3582C58.8259 45.7564 57.475 46.9476 56.0762 47.6258C57.6957 47.0255 59.4641 46.6658 61.1464 46.5603L61.3176 46.5495C62.6693 46.4628 64.4285 46.3501 65.5041 47.3361C63.8746 48.7138 61.5615 49.5079 59.5228 49.4651Z" fill="#0D0D0D"/>
</svg>
