<svg width="15" height="15" viewBox="0 0 15 15" fill="none" xmlns="http://www.w3.org/2000/svg">
<path d="M12.3216 5.35715C12.3216 8.02501 7.50014 14.4643 7.50014 14.4643C7.50014 14.4643 2.67871 8.02501 2.67871 5.35715C2.67871 4.07843 3.18668 2.85208 4.09087 1.94788C4.99507 1.04369 6.22142 0.535721 7.50014 0.535721C8.77886 0.535721 10.0052 1.04369 10.9094 1.94788C11.8136 2.85208 12.3216 4.07843 12.3216 5.35715V5.35715Z" stroke="#0D0D0D" stroke-linecap="round" stroke-linejoin="round"/>
<path d="M7.49972 6.96429C8.38732 6.96429 9.10686 6.24474 9.10686 5.35714C9.10686 4.46954 8.38732 3.75 7.49972 3.75C6.61212 3.75 5.89258 4.46954 5.89258 5.35714C5.89258 6.24474 6.61212 6.96429 7.49972 6.96429Z" stroke="#0D0D0D" stroke-linecap="round" stroke-linejoin="round"/>
</svg>
