<svg width="30" height="30" viewBox="0 0 30 30" fill="none" xmlns="http://www.w3.org/2000/svg">
<path d="M11.2071 4.82227L12.1286 2.44369C12.284 2.04097 12.5574 1.69457 12.9129 1.44986C13.2685 1.20515 13.6898 1.07354 14.1214 1.07227H15.8786C16.3102 1.07354 16.7314 1.20515 17.087 1.44986C17.4426 1.69457 17.716 2.04097 17.8714 2.44369L18.7928 4.82227L21.9214 6.62227L24.45 6.23655C24.871 6.1794 25.2995 6.24871 25.6811 6.43567C26.0627 6.62263 26.38 6.9188 26.5928 7.28655L27.45 8.78655C27.6696 9.16016 27.7708 9.59158 27.7402 10.0239C27.7096 10.4562 27.5486 10.869 27.2786 11.208L25.7143 13.2008V16.8008L27.3214 18.7937C27.5915 19.1326 27.7525 19.5455 27.7831 19.9778C27.8137 20.4101 27.7125 20.8415 27.4928 21.2151L26.6357 22.7151C26.4229 23.0829 26.1055 23.379 25.724 23.566C25.3424 23.753 24.9139 23.8223 24.4928 23.7651L21.9643 23.3794L18.8357 25.1794L17.9143 27.558C17.7589 27.9607 17.4855 28.3071 17.1299 28.5518C16.7743 28.7965 16.3531 28.9281 15.9214 28.9294H14.1214C13.6898 28.9281 13.2685 28.7965 12.9129 28.5518C12.5574 28.3071 12.284 27.9607 12.1286 27.558L11.2071 25.1794L8.07856 23.3794L5.54999 23.7651C5.12895 23.8223 4.70043 23.753 4.31888 23.566C3.93732 23.379 3.61996 23.0829 3.40713 22.7151L2.54999 21.2151C2.33035 20.8415 2.22915 20.4101 2.25976 19.9778C2.29036 19.5455 2.45133 19.1326 2.72141 18.7937L4.2857 16.8008V13.2008L2.67856 11.208C2.40847 10.869 2.2475 10.4562 2.2169 10.0239C2.18629 9.59158 2.28749 9.16016 2.50713 8.78655L3.36427 7.28655C3.57711 6.9188 3.89447 6.62263 4.27602 6.43567C4.65757 6.24871 5.08609 6.1794 5.50713 6.23655L8.0357 6.62227L11.2071 4.82227ZM10.7143 15.0008C10.7143 15.8485 10.9656 16.6771 11.4365 17.3819C11.9075 18.0866 12.5768 18.6359 13.3599 18.9603C14.143 19.2847 15.0047 19.3696 15.8361 19.2042C16.6674 19.0388 17.4311 18.6307 18.0304 18.0313C18.6298 17.4319 19.038 16.6683 19.2034 15.8369C19.3687 15.0056 19.2838 14.1439 18.9595 13.3608C18.6351 12.5777 18.0858 11.9083 17.381 11.4374C16.6762 10.9665 15.8476 10.7151 15 10.7151C13.8633 10.7151 12.7733 11.1667 11.9695 11.9704C11.1658 12.7741 10.7143 13.8642 10.7143 15.0008V15.0008Z" stroke="#0D0D0D" stroke-width="1.5" stroke-linecap="round" stroke-linejoin="round"/>
</svg>
