<svg width="30" height="30" viewBox="0 0 30 30" fill="none" xmlns="http://www.w3.org/2000/svg">
<g clip-path="url(#clip0_870_1019)">
<path d="M23.7095 18.583C23.0953 17.9435 22.3545 17.6016 21.5693 17.6016C20.7905 17.6016 20.0434 17.9372 19.4039 18.5767L17.4031 20.5712C17.2385 20.4826 17.0738 20.4002 16.9155 20.3179C16.6876 20.204 16.4723 20.0963 16.2887 19.9823C14.4145 18.792 12.7113 17.2407 11.0777 15.2336C10.2862 14.2332 9.75438 13.391 9.36815 12.5363C9.88735 12.0614 10.3686 11.5675 10.8371 11.0926C11.0144 10.9153 11.1917 10.7317 11.369 10.5544C12.6986 9.22478 12.6986 7.50256 11.369 6.1729L9.64041 4.44435C9.44413 4.24806 9.24151 4.04545 9.05156 3.84283C8.67166 3.45027 8.27276 3.04504 7.8612 2.66514C7.24702 2.05729 6.51255 1.73438 5.74008 1.73438C4.96761 1.73438 4.22047 2.05729 3.5873 2.66514C3.58097 2.67147 3.58097 2.67147 3.57463 2.6778L1.42185 4.84957C0.611396 5.66003 0.149181 6.64778 0.0478741 7.79382C-0.104087 9.64268 0.44044 11.3649 0.858332 12.4919C1.88407 15.2589 3.41634 17.8232 5.70209 20.5712C8.47537 23.8827 11.8122 26.4977 15.6239 28.3402C17.0802 29.0304 19.024 29.8471 21.1958 29.9864C21.3287 29.9928 21.468 29.9991 21.5947 29.9991C23.0573 29.9991 24.2856 29.4736 25.2481 28.4288C25.2544 28.4162 25.2671 28.4098 25.2734 28.3972C25.6026 27.9983 25.9825 27.6374 26.3814 27.2511C26.6537 26.9915 26.9323 26.7193 27.2046 26.4344C27.8314 25.7822 28.1606 25.0224 28.1606 24.2436C28.1606 23.4585 27.8251 22.705 27.1856 22.0718L23.7095 18.583ZM25.9762 25.2503C25.9699 25.2567 25.9699 25.2503 25.9762 25.2503C25.7293 25.5163 25.476 25.7569 25.2037 26.0228C24.7922 26.4154 24.3743 26.8269 23.9817 27.2891C23.3422 27.973 22.5887 28.2959 21.601 28.2959C21.506 28.2959 21.4047 28.2959 21.3097 28.2895C19.4292 28.1692 17.6817 27.4348 16.371 26.8079C12.7873 25.073 9.64041 22.61 7.02541 19.4885C4.8663 16.8861 3.42267 14.4801 2.46659 11.8968C1.87774 10.3202 1.66246 9.09182 1.75743 7.93311C1.82075 7.19231 2.10568 6.57813 2.63121 6.0526L4.79032 3.89349C5.10058 3.60223 5.42982 3.44394 5.75274 3.44394C6.15164 3.44394 6.47456 3.68454 6.67717 3.88715C6.6835 3.89349 6.68983 3.89982 6.69617 3.90615C7.0824 4.26706 7.44964 4.64063 7.83587 5.03953C8.03216 5.24214 8.23477 5.44475 8.43738 5.6537L10.1659 7.38226C10.8371 8.05342 10.8371 8.67392 10.1659 9.34509C9.98232 9.5287 9.80503 9.71232 9.62141 9.88961C9.08955 10.4341 8.58301 10.9407 8.03216 11.4345C8.01949 11.4472 8.00683 11.4535 8.0005 11.4662C7.45597 12.0107 7.55728 12.5426 7.67125 12.9035C7.67758 12.9225 7.68391 12.9415 7.69024 12.9605C8.13979 14.0495 8.77296 15.0753 9.73538 16.2973L9.74172 16.3036C11.4893 18.4564 13.3318 20.1343 15.3643 21.4196C15.6239 21.5843 15.8898 21.7172 16.1431 21.8439C16.371 21.9578 16.5863 22.0655 16.7699 22.1795C16.7952 22.1921 16.8206 22.2111 16.8459 22.2238C17.0612 22.3314 17.2638 22.3821 17.4727 22.3821C17.9983 22.3821 18.3275 22.0528 18.4351 21.9452L20.6006 19.7797C20.8159 19.5645 21.1578 19.3049 21.5567 19.3049C21.9492 19.3049 22.2722 19.5518 22.4684 19.7671C22.4748 19.7734 22.4748 19.7734 22.4811 19.7797L25.9699 23.2685C26.622 23.9143 26.622 24.5792 25.9762 25.2503Z" fill="white"/>
<path d="M16.2127 7.13318C17.8717 7.41177 19.3786 8.1969 20.5816 9.39993C21.7846 10.603 22.5634 12.1099 22.8484 13.7688C22.918 14.1867 23.2789 14.478 23.6905 14.478C23.7411 14.478 23.7855 14.4716 23.8361 14.4653C24.3047 14.3893 24.6149 13.9461 24.5389 13.4775C24.197 11.4704 23.2473 9.64053 21.7973 8.19057C20.3474 6.74061 18.5175 5.79086 16.5103 5.44894C16.0418 5.37296 15.6049 5.68322 15.5226 6.14543C15.4403 6.60765 15.7442 7.0572 16.2127 7.13318Z" fill="white"/>
<path d="M29.9652 13.2336C29.4017 9.92848 27.8441 6.92092 25.4507 4.52754C23.0573 2.13415 20.0497 0.576553 16.7446 0.0130316C16.2824 -0.0692806 15.8455 0.247305 15.7632 0.709519C15.6872 1.17807 15.9974 1.61495 16.466 1.69727C19.4166 2.19747 22.1075 3.59678 24.2476 5.73056C26.3878 7.87068 27.7807 10.5617 28.2809 13.5122C28.3506 13.9301 28.7115 14.2214 29.1231 14.2214C29.1737 14.2214 29.218 14.215 29.2687 14.2087C29.7309 14.1391 30.0475 13.6958 29.9652 13.2336Z" fill="white"/>
</g>
<defs>
<clipPath id="clip0_870_1019">
<rect width="30" height="30" fill="white"/>
</clipPath>
</defs>
</svg>
