<svg width="25" height="25" viewBox="0 0 25 25" fill="none" xmlns="http://www.w3.org/2000/svg">
<g clip-path="url(#clip0_533_1980)">
<path d="M15.1787 8.92885C16.1649 8.92885 16.9644 8.12936 16.9644 7.14314C16.9644 6.15691 16.1649 5.35742 15.1787 5.35742C14.1924 5.35742 13.3929 6.15691 13.3929 7.14314C13.3929 8.12936 14.1924 8.92885 15.1787 8.92885Z" stroke="#0D0D0D" stroke-width="1.5" stroke-linecap="round" stroke-linejoin="round"/>
<path d="M8.0358 17.856C8.52891 17.856 8.92866 17.4563 8.92866 16.9632C8.92866 16.4701 8.52891 16.0703 8.0358 16.0703C7.54269 16.0703 7.14294 16.4701 7.14294 16.9632C7.14294 17.4563 7.54269 17.856 8.0358 17.856Z" stroke="#0D0D0D" stroke-width="1.5" stroke-linecap="round" stroke-linejoin="round"/>
<path d="M8.03571 11.6066C9.02194 11.6066 9.82143 10.8071 9.82143 9.82087C9.82143 8.83465 9.02194 8.03516 8.03571 8.03516C7.04949 8.03516 6.25 8.83465 6.25 9.82087C6.25 10.8071 7.04949 11.6066 8.03571 11.6066Z" stroke="#0D0D0D" stroke-width="1.5" stroke-linecap="round" stroke-linejoin="round"/>
<path d="M17 21.9283C16.9801 21.5819 16.8598 21.2488 16.6536 20.9698C16.4475 20.6907 16.1645 20.4777 15.8393 20.3569C15.0317 20.0914 14.3452 19.5465 13.9033 18.8202C13.4614 18.0939 13.2932 17.2338 13.4287 16.3945C13.5643 15.5552 13.9949 14.7918 14.6429 14.2415C15.291 13.6912 16.1142 13.3902 16.9643 13.3926H20.3036C20.8763 13.3942 21.4411 13.258 21.9501 12.9956C22.4592 12.7331 22.8977 12.3521 23.2286 11.8846C23.5595 11.4171 23.7731 10.8769 23.8514 10.3096C23.9297 9.74224 23.8705 9.16437 23.6786 8.62473C22.9684 6.61931 21.7206 4.84768 20.0717 3.50338C18.4227 2.15908 16.436 1.29384 14.3286 1.00218C12.2213 0.710515 10.0743 1.00366 8.12219 1.84958C6.17012 2.6955 4.4881 4.06166 3.25989 5.79879C2.03167 7.53592 1.30452 9.5772 1.15786 11.6996C1.01121 13.822 1.4507 15.9439 2.42832 17.8335C3.40594 19.723 4.88409 21.3075 6.70125 22.4139C8.51842 23.5203 10.6047 24.1059 12.7322 24.1069C13.7828 24.1098 14.8287 23.9655 15.8393 23.6783C16.2105 23.5743 16.5319 23.3403 16.745 23.0191C16.9581 22.6978 17.0486 22.3107 17 21.9283V21.9283Z" stroke="#0D0D0D" stroke-width="1.5" stroke-linecap="round" stroke-linejoin="round"/>
</g>
<defs>
<clipPath id="clip0_533_1980">
<rect width="25" height="25" fill="white"/>
</clipPath>
</defs>
</svg>
