<svg width="30" height="30" viewBox="0 0 30 30" fill="none" xmlns="http://www.w3.org/2000/svg">
<path d="M15 26.25C14.25 26.25 13.75 25.75 13.75 25V18L8.375 23.375C7.875 23.875 7.125 23.875 6.625 23.375C6.125 22.875 6.125 22.125 6.625 21.625L12 16.25H5C4.25 16.25 3.75 15.75 3.75 15C3.75 14.25 4.25 13.75 5 13.75H12L6.625 8.375C6.125 7.875 6.125 7.125 6.625 6.625C7.125 6.125 7.875 6.125 8.375 6.625L13.75 12V5C13.75 4.25 14.25 3.75 15 3.75C15.75 3.75 16.25 4.25 16.25 5V12L21.625 6.625C22.125 6.125 22.875 6.125 23.375 6.625C23.875 7.125 23.875 7.875 23.375 8.375L18 13.75H25C25.75 13.75 26.25 14.25 26.25 15C26.25 15.75 25.75 16.25 25 16.25H18L23.375 21.625C23.875 22.125 23.875 22.875 23.375 23.375C22.875 23.875 22.125 23.875 21.625 23.375L16.25 18V25C16.25 25.75 15.75 26.25 15 26.25Z" fill="#0D0D0D"/>
</svg>
