<svg width="96" height="100" viewBox="0 0 96 100" fill="none" xmlns="http://www.w3.org/2000/svg">
<path fill-rule="evenodd" clip-rule="evenodd" d="M54.7917 42.5089C52.5975 44.7031 48.5988 44.7039 46.4037 42.5088L45.5037 41.6088L43.7037 43.4088L44.6037 44.3088C46.2003 45.9054 48.3981 46.7028 50.5968 46.7038L39.4917 57.8089L41.2917 59.6089L52.3968 48.5038C52.3977 50.7025 53.1951 52.9003 54.7917 54.4969L55.6917 55.3969L57.4917 53.5969L56.5917 52.6969C54.3966 50.5018 54.3975 46.5031 56.5917 44.3089L57.4917 43.4089L55.6917 41.6089L54.7917 42.5089Z" fill="#0D0D0D"/>
<path d="M55.4811 8.89639L48.7378 8.22959L49.5515 0L51.394 0.182184L50.7442 6.75357L55.6451 7.23818L55.4811 8.89639Z" fill="#0D0D0D"/>
<path d="M59.9888 10.2581C58.0162 9.65988 56.9634 8.28296 57.6011 6.18049C58.1742 4.29063 59.8707 3.50244 61.8196 4.0935C63.7567 4.68097 64.7362 6.08723 64.1737 7.94166C64.1093 8.15427 64.0391 8.30065 63.9546 8.49429L59.1354 7.03276C58.9068 7.95659 59.2138 8.47533 60.3596 8.8228C61.4108 9.14161 61.8594 8.98099 62.0134 8.47309L62.0492 8.35498L63.821 8.8923L63.7816 9.02223C63.3911 10.3097 61.8668 10.8277 59.9888 10.2581ZM61.3651 5.46471C60.3139 5.1459 59.7576 5.36413 59.442 6.10681L62.5839 7.05966C62.7731 6.26577 62.4045 5.77994 61.3651 5.46471Z" fill="#0D0D0D"/>
<path d="M66.1469 12.6598C64.9683 12.037 64.5473 11.1165 65.0317 10.1999C65.4584 9.3923 66.3239 9.20748 67.555 9.70448L70.0282 10.7042L70.1377 10.4969C70.5126 9.78755 70.2999 9.42388 69.4269 8.96255C68.5975 8.52428 68.1439 8.56377 67.8152 9.1858L67.7921 9.22945L66.1442 8.35868L66.1615 8.32594C66.8766 6.97274 68.5075 6.63397 70.3081 7.58548C72.1306 8.54852 72.4968 9.9426 71.7413 11.3722L70.0459 14.5806L68.5181 13.7732L69.1813 12.5183L69.094 12.4721C68.3932 13.1907 67.3582 13.2999 66.1469 12.6598ZM66.7372 10.9615C66.5815 11.2562 66.7473 11.4973 67.2274 11.751C68.3405 12.3392 69.0792 12.3945 69.5322 11.6427L67.5181 10.8576C67.1079 10.6827 66.8756 10.6996 66.7372 10.9615Z" fill="#0D0D0D"/>
<path d="M72.7978 16.587L71.3423 15.4427L75.1642 10.5814L76.5129 11.6418L75.4983 12.9323L75.5857 13.001C76.3394 12.3218 77.3267 12.1245 78.3067 12.895C79.3934 13.7494 79.2524 14.8474 78.5048 15.7984L77.8716 16.6037L76.4162 15.4594L76.8128 14.9549C77.2324 14.4212 77.202 14.0205 76.6101 13.5552C75.96 13.044 75.4907 13.1618 75.0101 13.7731L72.7978 16.587Z" fill="#0D0D0D"/>
<path d="M78.1917 21.369L76.974 19.9743L81.6322 15.9073L82.7606 17.1998L81.3287 18.4499L81.4018 18.5336C82.2883 17.9725 83.5192 17.881 84.5826 19.099C85.6948 20.3728 85.4042 21.6915 84.3721 22.5926L81.4712 25.1253L80.2536 23.7306L82.6896 21.6038C83.4334 20.9544 83.4817 20.3716 82.7348 19.5162C81.9637 18.6329 81.3343 18.6252 80.544 19.3152L78.1917 21.369Z" fill="#0D0D0D"/>
<path d="M84.4315 29.695L83.6737 28.0057L91.2191 24.6211L92.2446 26.9072L89.3213 30.3424L87.8715 31.845L87.927 31.9689L90.0033 31.8627L94.4875 31.9075L95.5181 34.2049L87.9727 37.5895L87.2149 35.9002L91.0439 34.1826L92.2517 33.7085L92.1961 33.5846L90.8166 33.6759L86.7309 33.6147L85.8115 31.5651L88.4828 28.4729L89.4682 27.5033L89.4127 27.3794L88.2605 27.9774L84.4315 29.695Z" fill="#0D0D0D"/>
<path d="M88.756 42.7357C88.3945 40.6562 89.3917 39.0421 91.3131 38.7081C93.2587 38.3698 94.7301 39.5547 95.0916 41.6341C95.4532 43.7136 94.4681 45.3256 92.5224 45.6639C90.6011 45.9979 89.1176 44.8151 88.756 42.7357ZM90.3734 42.4545C90.5869 43.6827 91.1373 44.038 92.2074 43.8519C93.2775 43.6659 93.7 43.1414 93.4864 41.9132C93.2708 40.6729 92.6982 40.3339 91.6281 40.52C90.558 40.706 90.1577 41.2141 90.3734 42.4545Z" fill="#0D0D0D"/>
<path d="M89.5069 49.3504L89.5278 47.4991L95.7112 47.5689L95.6918 49.2845L94.0503 49.2659L94.049 49.377C95.0468 49.5611 95.8046 50.2239 95.7905 51.4704C95.7749 52.8527 94.8182 53.4097 93.6086 53.3961L92.5842 53.3845L92.6052 51.5332L93.2469 51.5404C93.9258 51.5481 94.225 51.2799 94.2335 50.527C94.2429 49.7001 93.8636 49.3996 93.0861 49.3908L89.5069 49.3504Z" fill="#0D0D0D"/>
<path d="M88.6002 57.9147C88.9967 55.8919 90.2605 54.7058 92.4165 55.1284C94.3545 55.5083 95.3096 57.1167 94.9179 59.1153C94.5285 61.1017 93.2281 62.2178 91.3264 61.8451C91.1084 61.8023 90.9557 61.7472 90.7545 61.6827L91.7232 56.7408C90.781 56.6064 90.2958 56.9641 90.0656 58.139C89.8543 59.217 90.0592 59.6471 90.5801 59.7492L90.7012 59.773L90.3451 61.5898L90.2118 61.5637C88.8916 61.3049 88.2227 59.8406 88.6002 57.9147ZM93.5078 58.8012C93.7191 57.7232 93.446 57.1917 92.6753 56.9526L92.0438 60.1745C92.8527 60.2827 93.2989 59.8671 93.5078 58.8012Z" fill="#0D0D0D"/>
<path d="M91.0864 67.9719L90.369 66.9442L91.5039 66.2587L92.0774 67.373L92.1827 67.3774L92.9453 66.4002L93.9456 67.2664L93.045 68.1583L93.0794 68.2667L94.261 68.6735L93.7458 69.8895L92.6317 69.3237L92.5298 69.3743L92.4994 70.6483L91.1861 70.5209L91.3787 69.2754L91.3022 69.2028L90.0979 69.5773L89.7943 68.2691L91.0334 68.097L91.0864 67.9719Z" fill="#0D0D0D"/>
<path d="M80.0982 76.4441L83.9748 70.8863L90.7576 75.6172L89.6984 77.1357L84.2823 73.358L81.4649 77.3974L80.0982 76.4441Z" fill="#0D0D0D"/>
<path d="M76.705 79.7226C78.1886 78.2916 79.904 78.0433 81.4292 79.6246C82.8002 81.0461 82.6618 82.9116 81.1959 84.3254C79.7389 85.7307 78.0337 85.9006 76.6884 84.5058C76.5342 84.3459 76.4405 84.2133 76.3126 84.0451L79.9373 80.5491C79.242 79.8994 78.6394 79.9146 77.7777 80.7458C76.987 81.5084 76.9087 81.9784 77.2771 82.3604L77.3628 82.4492L76.0302 83.7345L75.9359 83.6368C75.002 82.6684 75.2924 81.085 76.705 79.7226ZM80.22 83.2603C81.0107 82.4977 81.0912 81.9056 80.5965 81.2681L78.2333 83.5474C78.8344 84.0994 79.4382 84.0143 80.22 83.2603Z" fill="#0D0D0D"/>
<path d="M71.6076 83.9359C72.7245 83.2082 73.7336 83.2873 74.2996 84.156C74.7982 84.9213 74.5393 85.7676 73.5069 86.6023L71.4317 88.2784L71.5597 88.4749C71.9977 89.1471 72.4188 89.1379 73.2462 88.5989C74.0321 88.0868 74.218 87.6711 73.8339 87.0816L73.807 87.0402L75.3685 86.0228L75.3887 86.0538C76.2242 87.3362 75.7282 88.9263 74.0218 90.0381C72.2948 91.1633 70.8983 90.8062 70.0157 89.4514L68.0348 86.411L69.4826 85.4677L70.2574 86.657L70.3402 86.6031C70.0525 85.6415 70.4597 84.6838 71.6076 83.9359ZM72.8054 85.2768C72.6234 84.9976 72.3322 85.0254 71.8771 85.3218C70.8223 86.0091 70.4152 86.6279 70.8522 87.3891L72.5169 86.0098C72.869 85.7363 72.9671 85.525 72.8054 85.2768Z" fill="#0D0D0D"/>
<path d="M64.9329 87.8459L66.6407 87.1311L69.0283 92.8354L67.4456 93.4978L66.8118 91.9835L66.7094 92.0264C66.936 93.0153 66.628 93.9738 65.478 94.4551C64.2028 94.9889 63.3121 94.3314 62.8451 93.2156L62.4496 92.2706L64.1574 91.5557L64.4052 92.1478C64.6673 92.774 65.0322 92.9424 65.7267 92.6517C66.4896 92.3324 66.6151 91.8651 66.3149 91.1478L64.9329 87.8459Z" fill="#0D0D0D"/>
<path d="M58.1174 90.2313L59.9293 89.8508L61.2001 95.9026L59.5211 96.2552L59.1304 94.395L59.0217 94.4178C59.0778 95.4655 58.5559 96.584 56.9735 96.9163C55.3186 97.2638 54.3102 96.3657 54.0287 95.0248L53.2373 91.2561L55.0492 90.8756L55.7138 94.0404C55.9167 95.0068 56.4016 95.3338 57.5129 95.1004C58.6604 94.8594 58.9747 94.3142 58.7591 93.2874L58.1174 90.2313Z" fill="#0D0D0D"/>
<path d="M47.7619 91.5993L49.6061 91.7625L48.8773 100L46.3815 99.7792L44.8101 95.5511L44.2063 93.5523L44.0711 93.5403L43.1503 95.4043L40.9226 99.2962L38.4144 99.0743L39.1432 90.8368L40.9874 90.9999L40.6176 95.1802L40.4419 96.4657L40.5771 96.4777L41.1709 95.2291L43.2185 91.693L45.4561 91.8909L46.8511 95.7317L47.2164 97.0651L47.3516 97.077L47.3921 95.7795L47.7619 91.5993Z" fill="#0D0D0D"/>
<path d="M34.2753 89.0177C36.2672 89.7156 37.1905 91.3731 36.5457 93.2136C35.8927 95.0774 34.1409 95.7846 32.149 95.0867C30.1571 94.3888 29.2297 92.7429 29.8827 90.8791C30.5275 89.0386 32.2834 88.3198 34.2753 89.0177ZM33.7325 90.567C32.556 90.1548 31.9775 90.4622 31.6183 91.4872C31.2592 92.5123 31.5112 93.1368 32.6877 93.549C33.8759 93.9653 34.4509 93.6306 34.81 92.6055C35.1692 91.5804 34.9207 90.9833 33.7325 90.567Z" fill="#0D0D0D"/>
<path d="M28.1631 86.459L29.7681 87.3819L26.6856 92.7426L25.1983 91.8874L26.0166 90.4643L25.9203 90.4089C25.2721 91.1895 24.3235 91.5267 23.2428 90.9053C22.0444 90.2162 22.026 89.1093 22.629 88.0607L23.1397 87.1726L24.7447 88.0955L24.4247 88.6519C24.0863 89.2404 24.174 89.6326 24.8267 90.0079C25.5436 90.4201 25.9912 90.2361 26.3788 89.562L28.1631 86.459Z" fill="#0D0D0D"/>
<path d="M21.1409 81.4827C22.7116 82.8175 23.1284 84.5 21.7056 86.1741C20.4268 87.679 18.5567 87.7257 17.0048 86.4069C15.4623 85.0961 15.1245 83.416 16.3794 81.9393C16.5233 81.77 16.646 81.6638 16.8007 81.5199L20.6381 84.7809C21.2159 84.0248 21.1411 83.4266 20.2288 82.6513C19.3917 81.94 18.9163 81.9085 18.5726 82.3129L18.4927 82.407L17.0819 81.2081L17.1698 81.1046C18.041 80.0794 19.6454 80.2119 21.1409 81.4827ZM17.9682 85.3304C18.8053 86.0418 19.4025 86.0634 19.9878 85.508L17.486 83.3819C16.9961 84.0346 17.1405 84.6271 17.9682 85.3304Z" fill="#0D0D0D"/>
<path d="M11.1587 78.759L12.4057 78.6323L12.4523 79.9573L11.1998 79.9162L11.1447 80.0061L11.6274 81.1478L10.384 81.6003L10.043 80.3795L9.93145 80.3569L9.00121 81.1913L8.18946 80.1495L9.22591 79.4514L9.23122 79.3378L8.13294 78.6914L8.88325 77.606L9.87772 78.3802L9.97837 78.3487L10.2371 77.1144L11.5278 77.4856L11.0753 78.6519L11.1587 78.759Z" fill="#0D0D0D"/>
<path d="M9.10004 65.0478L12.0736 71.1367L4.64258 74.7656L3.83014 73.102L9.76383 70.2043L7.60275 65.779L9.10004 65.0478Z" fill="#0D0D0D"/>
<path d="M7.8925 60.4879C8.41776 62.4811 7.79762 64.0997 5.67312 64.6595C3.76346 65.1628 2.20257 64.1318 1.68359 62.1624C1.16776 60.205 1.85137 58.6336 3.72523 58.1398C3.94007 58.0831 4.10152 58.0661 4.31071 58.0365L5.59399 62.9062C6.50043 62.6162 6.78107 62.0828 6.47598 60.925C6.19604 59.8628 5.82403 59.5651 5.31081 59.7004L5.19145 59.7318L4.71966 57.9415L4.85095 57.9069C6.1519 57.5641 7.3924 58.5902 7.8925 60.4879ZM3.08947 61.8302C3.3694 62.8925 3.84698 63.2517 4.6448 63.1308L3.80815 59.956C3.033 60.2113 2.81268 60.7799 3.08947 61.8302Z" fill="#0D0D0D"/>
<path d="M6.70705 53.9919C6.79625 55.3219 6.23418 56.1637 5.1997 56.2331C4.28837 56.2942 3.67645 55.6549 3.4526 54.3462L3.00409 51.7166L2.7701 51.7323C1.96961 51.786 1.77189 52.158 1.83797 53.1432C1.90074 54.0792 2.17265 54.4444 2.87461 54.3974L2.92387 54.3941L3.04859 56.2537L3.01165 56.2561C1.48456 56.3585 0.339556 55.1488 0.203273 53.1168C0.0653378 51.0602 1.05919 50.0162 2.67249 49.908L6.29316 49.6652L6.40879 51.3893L4.99254 51.4843L4.99915 51.5828C5.97873 51.8016 6.61537 52.6249 6.70705 53.9919ZM4.95183 54.3818C5.28434 54.3594 5.40246 54.0917 5.36612 53.5499C5.28187 52.2937 4.94088 51.6362 4.06319 51.6456L4.45322 53.7719C4.5199 54.2128 4.65626 54.4016 4.95183 54.3818Z" fill="#0D0D0D"/>
<path d="M6.55492 46.1891L6.34584 48.0287L0.201619 47.3303L0.395361 45.6257L2.02646 45.811L2.03901 45.7007C1.06514 45.4161 0.378652 44.6797 0.519429 43.441C0.675538 42.0674 1.68398 41.6106 2.88584 41.7472L3.90374 41.8629L3.69467 43.7025L3.05695 43.63C2.38243 43.5534 2.05743 43.7897 1.97241 44.5378C1.87902 45.3595 2.22575 45.697 2.99838 45.7849L6.55492 46.1891Z" fill="#0D0D0D"/>
<path d="M7.79219 39.093L7.24196 40.8608L1.33758 39.023L1.84746 37.3849L3.66238 37.9498L3.69539 37.8437C2.75312 37.3824 2.0304 36.3818 2.51093 34.8379C3.01347 33.2234 4.289 32.7801 5.59716 33.1873L9.27414 34.3318L8.72391 36.0996L5.63619 35.1385C4.69338 34.845 4.17163 35.1092 3.83415 36.1935C3.48568 37.3131 3.80879 37.8531 4.81054 38.1649L7.79219 39.093Z" fill="#0D0D0D"/>
<path d="M11.6169 29.4338L10.5735 30.9632L3.74207 26.3027L5.15411 24.2329L9.61093 24.9276L11.6499 25.3773L11.7265 25.2651L10.55 23.5511L8.24253 19.7058L9.66153 17.6258L16.493 22.2862L15.4496 23.8157L11.9829 21.4507L10.9471 20.6693L10.8706 20.7815L11.6699 21.9095L13.7549 25.4237L12.4889 27.2794L8.45625 26.6201L7.11437 26.2874L7.03785 26.3996L8.15019 27.0688L11.6169 29.4338Z" fill="#0D0D0D"/>
<path d="M20.4614 18.9154C18.8821 20.3156 16.9847 20.3152 15.691 18.8559C14.3809 17.3781 14.6161 15.5037 16.1954 14.1035C17.7748 12.7034 19.6639 12.6946 20.974 14.1723C22.2677 15.6316 22.0407 17.5153 20.4614 18.9154ZM19.3724 17.6871C20.3052 16.8601 20.3184 16.2051 19.5978 15.3923C18.8773 14.5796 18.2091 14.4957 17.2763 15.3227C16.3342 16.1579 16.3466 16.8231 17.0672 17.6359C17.7877 18.4486 18.4303 18.5223 19.3724 17.6871Z" fill="#0D0D0D"/>
<path d="M25.6665 14.8178L24.0804 15.7727L20.8909 10.4749L22.3608 9.58999L23.2075 10.9964L23.3026 10.9391C22.935 9.99344 23.1008 9.00042 24.1688 8.35744C25.3531 7.64444 26.3297 8.16583 26.9536 9.20213L27.482 10.0798L25.8959 11.0347L25.5648 10.4849C25.2147 9.90326 24.8293 9.78953 24.1842 10.1779C23.4757 10.6044 23.4193 11.085 23.8204 11.7512L25.6665 14.8178Z" fill="#0D0D0D"/>
<path d="M33.4323 11.098C31.5018 11.8205 29.8292 11.3658 29.0591 9.30812C28.3669 7.45856 29.2362 5.80214 31.1436 5.08828C33.0394 4.37876 34.6715 4.90133 35.3507 6.71622C35.4286 6.92429 35.4617 7.08322 35.5121 7.28839L30.7957 9.05355C31.1751 9.92635 31.734 10.1521 32.8553 9.73242C33.8841 9.34737 34.143 8.94738 33.9569 8.45031L33.9137 8.33471L35.6477 7.68575L35.6952 7.81291C36.1668 9.07293 35.2703 10.4101 33.4323 11.098ZM31.6151 6.45376C30.5862 6.83881 30.2768 7.35 30.4771 8.13168L33.552 6.98086C33.2202 6.23522 32.6323 6.07304 31.6151 6.45376Z" fill="#0D0D0D"/>
<path d="M40.6835 3.7118L40.1846 4.86161L39.0058 4.25473L39.6539 3.18207L39.6024 3.09004L38.3704 2.95323L38.5834 1.64725L39.8151 1.9464L39.8893 1.86017L39.616 0.640799L40.9216 0.441757L41.0241 1.68717L41.1207 1.74736L42.2214 1.10511L42.8016 2.29017L41.6401 2.77938L41.6184 2.88258L42.5688 3.71155L41.6141 4.65617L40.8177 3.69134L40.6835 3.7118Z" fill="#0D0D0D"/>
</svg>
