<svg width="150" height="150" viewBox="0 0 150 150" fill="none" xmlns="http://www.w3.org/2000/svg">
<circle cx="75" cy="75" r="75" fill="#FED403"/>
<path fill-rule="evenodd" clip-rule="evenodd" d="M83.3036 65.3663C80.4825 68.1874 75.3413 68.1886 72.5191 65.3663L71.3619 64.2091L69.0476 66.5234L70.2048 67.6806C72.2575 69.7333 75.0833 70.7586 77.9102 70.7597L63.6322 85.0377L65.9465 87.352L80.2245 73.074C80.2256 75.9009 81.2509 78.7267 83.3036 80.7794L84.4608 81.9366L86.7751 79.6223L85.6179 78.4652C82.7957 75.6429 82.7968 70.5017 85.6179 67.6806L86.7751 66.5234L84.4608 64.2091L83.3036 65.3663Z" fill="#0D0D0D"/>
<path d="M84.2697 21.7148L75.9345 21.0062L76.7993 10.834L79.0767 11.0276L78.3861 19.1502L84.4439 19.6652L84.2697 21.7148Z" fill="#0D0D0D"/>
<path d="M88.9209 23.097C86.4601 22.4493 85.0984 20.7989 85.7887 18.176C86.4093 15.8183 88.4661 14.7684 90.8974 15.4083C93.314 16.0444 94.5866 17.7344 93.9777 20.0478C93.9079 20.313 93.828 20.4968 93.7326 20.7396L87.7206 19.1572C87.4809 20.3073 87.8833 20.9332 89.3127 21.3094C90.6241 21.6546 91.1701 21.4359 91.3369 20.8023L91.3757 20.6549L93.586 21.2367L93.5433 21.3988C93.1205 23.0049 91.2638 23.7137 88.9209 23.097ZM90.3994 17.1207C89.088 16.7755 88.4117 17.0702 88.0564 18.0008L91.976 19.0325C92.1731 18.0445 91.6961 17.462 90.3994 17.1207Z" fill="#0D0D0D"/>
<path d="M98.9304 26.591L97.1864 25.8643C95.5408 25.1786 94.8645 23.9889 95.6029 22.2168L96.7516 19.46L95.6405 18.997L96.3672 17.253L97.4783 17.716L98.0468 16.3517L100.157 17.2308L99.5881 18.5951L101.867 19.5445L101.14 21.2885L98.8613 20.3391L97.8123 22.8567C97.5193 23.56 97.7103 23.8542 98.4558 24.1648L99.7216 24.6923L98.9304 26.591Z" fill="#0D0D0D"/>
<path d="M102.323 22.3765L101.604 22.0091L102.248 20.7472L102.913 21.0869C103.185 21.2255 103.362 21.2134 103.535 20.8742L103.653 20.6435L102.5 20.0543L103.713 17.6797L106.332 19.0175L105.008 21.6092C104.425 22.749 103.476 22.9657 102.323 22.3765Z" fill="#0D0D0D"/>
<path d="M104.735 30.2477C102.58 28.8381 101.944 27.2209 102.912 25.7417L102.937 25.7034L104.849 26.9545L104.774 27.0692C104.399 27.6431 104.656 28.0296 105.74 28.7386C106.76 29.4058 107.111 29.3985 107.361 29.0159C107.594 28.6589 107.47 28.4318 106.784 27.8377L105.128 26.4449C103.945 25.4706 103.606 24.4297 104.306 23.3585C105.04 22.2364 106.581 21.9693 108.774 23.4038C110.865 24.7717 111.534 26.338 110.517 27.8937L110.491 27.9319L108.579 26.6809L108.629 26.6043C108.971 26.0815 108.891 25.6469 107.718 24.8796C106.761 24.2541 106.411 24.2614 106.144 24.6694C105.927 25.001 106.014 25.258 106.789 25.9105L108.045 26.9687C109.628 28.2776 109.89 29.2684 109.198 30.3268C108.414 31.5255 106.711 31.5405 104.735 30.2477Z" fill="#0D0D0D"/>
<path d="M116.458 40.5358L112.177 35.7587L119.779 28.9453L123.867 33.5069C125.261 35.0614 125.355 36.4909 124.164 37.5587C123.222 38.4027 122.093 38.5136 120.864 37.3241L120.762 37.4156C121.921 38.9142 121.827 40.2255 120.806 41.1407C119.512 42.3 117.983 42.2379 116.458 40.5358ZM119.773 32.0202L118.286 33.3524L120.676 36.019C121.236 36.6431 121.685 36.7108 122.207 36.243C122.729 35.7753 122.712 35.2995 122.142 34.6641L119.773 32.0202ZM116.879 34.6134L115.234 36.0879L117.807 38.9587C118.427 39.6509 118.897 39.7414 119.51 39.1922C120.111 38.6533 120.073 38.1764 119.452 37.4842L116.879 34.6134Z" fill="#0D0D0D"/>
<path d="M120.598 46.5774C119.486 44.7394 120.091 43.1796 121.551 42.2959L125.618 39.834L126.801 41.7892L123.386 43.8566C122.33 44.4957 122.155 45.2072 122.905 46.4455C123.678 47.7229 124.45 47.8793 125.558 47.2086L128.869 45.2044L130.052 47.1596L123.522 51.1128L122.417 49.2879L124.411 48.0807L124.348 47.9764C123.151 48.4697 121.64 48.298 120.598 46.5774Z" fill="#0D0D0D"/>
<path d="M132.35 50.655L131.421 48.5667L133.064 47.8359L133.993 49.9242L132.35 50.655ZM124.665 54.0736L123.736 51.9854L130.711 48.8826L131.64 50.9708L124.665 54.0736Z" fill="#0D0D0D"/>
<path d="M126.052 57.7329L125.278 55.5824L134.884 52.125L135.658 54.2755L126.052 57.7329Z" fill="#0D0D0D"/>
<path d="M127.331 62.8126C126.822 60.4907 128.06 58.878 130.411 58.3625C132.793 57.8405 134.573 58.7761 135.06 60.9937C135.448 62.7649 134.769 63.8653 133.574 64.3924L133.603 64.5263L138.098 63.541L138.588 65.7736L128.615 67.9595L128.159 65.8758L130.227 65.4223L130.201 65.3032C128.666 65.3434 127.706 64.5242 127.331 62.8126ZM130.907 60.6248C129.553 60.9217 129.223 61.6959 129.537 63.1247C129.847 64.5387 130.507 65.205 131.802 64.9211L131.921 64.895C133.216 64.6112 133.526 63.7477 133.213 62.3189C132.9 60.89 132.277 60.3246 130.907 60.6248Z" fill="#0D0D0D"/>
<path d="M128.722 79.4322L128.825 77.149L136.969 77.5175L137.14 73.7273L139.195 73.8203L138.749 83.6839L136.694 83.5909L136.866 79.8007L128.722 79.4322Z" fill="#0D0D0D"/>
<path d="M127.398 86.8613C127.967 84.3184 129.866 82.9473 132.215 83.4724C134.594 84.0042 135.714 86.0499 135.146 88.5927C134.577 91.1356 132.693 92.51 130.314 91.9782C127.965 91.4531 126.83 89.4041 127.398 86.8613ZM129.376 87.3033C129.04 88.8052 129.501 89.4701 130.809 89.7626C132.118 90.055 132.847 89.656 133.183 88.1541C133.522 86.6373 133.028 85.9806 131.72 85.6881C130.411 85.3956 129.715 85.7865 129.376 87.3033Z" fill="#0D0D0D"/>
<path d="M125.56 95.7613C126.451 93.6731 128.213 93.0001 130.189 93.8433C132.151 94.6805 132.868 96.4941 131.971 98.5963C131.361 100.026 130.308 100.786 128.993 100.49L128.945 100.602L130.641 101.325L129.804 103.287L123.805 100.728C121.353 99.6813 120.894 97.7293 121.964 95.2207C122.933 92.9503 124.552 91.9514 126.318 92.7049L125.421 94.8071C124.636 94.4722 124.266 94.6789 123.656 96.1084C123.082 97.4538 123.189 97.9798 124.562 98.5658L126.146 99.2416L126.194 99.1295C125.252 98.4627 124.891 97.3309 125.56 95.7613ZM129.286 95.9595C128.249 95.5169 127.619 95.9441 127.057 97.2615C126.483 98.6069 126.58 99.427 127.547 99.8396L127.702 99.9054C128.655 100.312 129.306 99.7949 129.862 98.4915C130.436 97.1461 130.323 96.402 129.286 95.9595Z" fill="#0D0D0D"/>
<path d="M119.735 104.73C121.137 102.607 123.137 101.846 125.4 103.34C127.434 104.683 127.77 106.968 126.385 109.066C125.008 111.151 122.999 111.815 121.003 110.497C120.774 110.346 120.625 110.212 120.426 110.043L123.852 104.856C122.839 104.26 122.117 104.441 121.303 105.674C120.555 106.806 120.588 107.393 121.134 107.754L121.262 107.838L120.002 109.745L119.862 109.653C118.476 108.738 118.4 106.752 119.735 104.73ZM124.922 108.046C125.669 106.914 125.607 106.179 124.839 105.544L122.606 108.927C123.479 109.43 124.183 109.165 124.922 108.046Z" fill="#0D0D0D"/>
<path d="M113.213 113.113L114.459 111.692C115.634 110.352 116.978 110.091 118.421 111.357L120.667 113.326L121.46 112.421L122.881 113.666L122.088 114.571L123.199 115.546L121.692 117.264L120.581 116.29L118.953 118.146L117.533 116.9L119.16 115.044L117.109 113.246C116.536 112.744 116.197 112.831 115.664 113.438L114.76 114.469L113.213 113.113Z" fill="#0D0D0D"/>
<path d="M111.473 114.663L113.2 113.167L119.885 120.883L118.157 122.379L114.945 118.671L114.853 118.751C115.516 119.889 115.615 121.376 114.141 122.653C112.586 124 110.948 123.645 109.791 122.309L106.728 118.774L108.455 117.277L111.069 120.295C111.907 121.262 112.621 121.248 113.704 120.31C114.867 119.303 114.815 118.521 113.977 117.554L111.473 114.663Z" fill="#0D0D0D"/>
<path d="M102.303 121.256C104.488 119.952 106.62 120.135 108.01 122.464C109.26 124.557 108.57 126.761 106.411 128.05C104.265 129.33 102.168 129.056 100.942 127.002C100.801 126.767 100.726 126.581 100.619 126.343L105.957 123.157C105.304 122.181 104.575 122.03 103.306 122.788C102.141 123.483 101.915 124.026 102.251 124.588L102.329 124.719L100.367 125.89L100.281 125.746C99.4296 124.32 100.223 122.498 102.303 121.256ZM105.537 126.496C106.701 125.801 106.964 125.111 106.548 124.206L103.068 126.283C103.636 127.116 104.385 127.183 105.537 126.496Z" fill="#0D0D0D"/>
<path d="M95.6032 124.773L97.7144 123.898L100.639 130.949L98.6828 131.761L97.9063 129.889L97.7797 129.941C98.0555 131.163 97.6715 132.345 96.25 132.935C94.6736 133.588 93.5767 132.773 93.0046 131.394L92.5201 130.226L94.6312 129.35L94.9348 130.082C95.2559 130.856 95.7056 131.065 96.5642 130.709C97.5071 130.318 97.664 129.742 97.2962 128.855L95.6032 124.773Z" fill="#0D0D0D"/>
<path d="M86.4786 134.199L87.0601 132.766L88.5329 133.479L87.7651 134.822L87.8314 134.935L89.3559 135.067L89.132 136.685L87.603 136.352L87.5139 136.461L87.8876 137.958L86.2822 138.242L86.1186 136.708L85.9977 136.637L84.6584 137.462L83.907 136.017L85.3259 135.379L85.3496 135.251L84.152 134.256L85.302 133.062L86.3136 134.229L86.4786 134.199Z" fill="#0D0D0D"/>
<path d="M66.6004 128.406L74.9459 128.979L74.2458 139.164L71.9657 139.007L72.5247 130.875L66.4594 130.458L66.6004 128.406Z" fill="#0D0D0D"/>
<path d="M61.9298 127.105C64.4009 127.712 65.7897 129.34 65.1425 131.974C64.5608 134.341 62.5215 135.425 60.08 134.825C57.6533 134.229 56.3531 132.56 56.9239 130.237C56.9894 129.971 57.0662 129.786 57.1576 129.541L63.1948 131.025C63.4156 129.871 63.0029 129.252 61.5675 128.899C60.2506 128.575 59.7083 128.803 59.5519 129.439L59.5156 129.587L57.296 129.042L57.336 128.879C57.7323 127.266 59.5771 126.527 61.9298 127.105ZM60.5498 133.105C61.8667 133.428 62.5381 133.123 62.878 132.186L58.942 131.219C58.7612 132.21 59.2477 132.785 60.5498 133.105Z" fill="#0D0D0D"/>
<path d="M51.8518 123.769L53.6074 124.467C55.2639 125.126 55.9593 126.305 55.2497 128.089L54.1458 130.864L55.2643 131.309L54.5659 133.064L53.4474 132.619L52.901 133.993L50.7774 133.148L51.3237 131.774L49.0301 130.862L49.7285 129.106L52.0221 130.019L53.0302 127.485C53.3118 126.777 53.1161 126.486 52.3657 126.187L51.0915 125.68L51.8518 123.769Z" fill="#0D0D0D"/>
<path d="M48.1533 128.086L48.8784 128.441L48.2544 129.714L47.5841 129.385C47.3105 129.251 47.1334 129.266 46.9657 129.608L46.8516 129.84L48.0145 130.411L46.8403 132.805L44.2 131.51L45.4815 128.897C46.0451 127.748 46.9905 127.516 48.1533 128.086Z" fill="#0D0D0D"/>
<path d="M45.9931 120.208C48.1706 121.582 48.8321 123.189 47.8886 124.684L47.8642 124.723L45.9315 123.502L46.0047 123.387C46.3707 122.807 46.1076 122.424 45.0124 121.733C43.9816 121.082 43.631 121.095 43.387 121.482C43.1593 121.843 43.2875 122.068 43.9826 122.651L45.6611 124.017C46.8601 124.972 47.2156 126.007 46.5324 127.089C45.8167 128.223 44.281 128.515 42.0648 127.116C39.9517 125.782 39.2577 124.227 40.25 122.655L40.2744 122.616L42.2071 123.836L42.1583 123.914C41.8248 124.442 41.9117 124.875 43.0971 125.623C44.0635 126.233 44.414 126.22 44.6743 125.808C44.8857 125.473 44.7948 125.218 44.0095 124.578L42.7366 123.54C41.132 122.257 40.8538 121.27 41.5289 120.201C42.2934 118.99 43.996 118.947 45.9931 120.208Z" fill="#0D0D0D"/>
<path d="M34.1075 110.107L38.4652 114.815L30.9734 121.75L26.8124 117.255C25.3943 115.723 25.2769 114.295 26.451 113.208C27.3791 112.349 28.5054 112.22 29.7542 113.39L29.8548 113.297C28.6719 111.817 28.7442 110.504 29.7505 109.573C31.0252 108.393 32.5549 108.43 34.1075 110.107ZM30.9303 118.675L32.3951 117.319L29.9627 114.692C29.3934 114.077 28.9429 114.016 28.4285 114.492C27.9141 114.968 27.9389 115.444 28.5186 116.07L30.9303 118.675ZM33.7817 116.036L35.403 114.535L32.7843 111.706C32.1529 111.024 31.6816 110.941 31.0778 111.5C30.4852 112.049 30.5315 112.525 31.1629 113.207L33.7817 116.036Z" fill="#0D0D0D"/>
<path d="M29.8691 104.137C31.0112 105.957 30.4312 107.526 28.9858 108.434L24.9592 110.961L23.7442 109.025L27.1254 106.903C28.1708 106.247 28.3341 105.532 27.5646 104.306C26.7708 103.042 25.9968 102.898 24.8999 103.586L21.6219 105.644L20.4068 103.708L26.8725 99.6497L28.0065 101.456L26.032 102.696L26.0968 102.799C27.2862 102.286 28.7998 102.434 29.8691 104.137Z" fill="#0D0D0D"/>
<path d="M18.0559 100.259L19.019 102.332L17.3884 103.09L16.4254 101.017L18.0559 100.259ZM25.6837 96.7154L26.6468 98.7881L19.7237 102.005L18.7607 99.932L25.6837 96.7154Z" fill="#0D0D0D"/>
<path d="M24.2342 93.0696L25.043 95.2073L15.4949 98.8203L14.686 96.6827L24.2342 93.0696Z" fill="#0D0D0D"/>
<path d="M22.8755 88.0265C23.4227 90.3397 22.2119 91.9727 19.8691 92.5268C17.4966 93.088 15.7009 92.1819 15.1782 89.9726C14.7608 88.208 15.4217 87.0966 16.6077 86.5499L16.5761 86.4164L12.098 87.4757L11.5719 85.2515L21.5066 82.9015L21.9977 84.9774L19.9366 85.4649L19.9647 85.5836C21.4993 85.518 22.4722 86.3213 22.8755 88.0265ZM19.336 90.273C20.6853 89.9538 21.002 89.1743 20.6652 87.7508C20.332 86.3422 19.6603 85.6869 18.3703 85.992L18.2516 86.0201C16.9616 86.3252 16.666 87.1937 17.0027 88.6172C17.3394 90.0407 17.9718 90.5957 19.336 90.273Z" fill="#0D0D0D"/>
<path d="M21.2143 71.4301L21.1479 73.7147L12.9995 73.4782L12.8894 77.2706L10.8333 77.2109L11.1198 67.3414L13.1759 67.4011L13.0658 71.1936L21.2143 71.4301Z" fill="#0D0D0D"/>
<path d="M22.4161 63.9838C21.8898 66.5357 20.0138 67.9379 17.6559 67.4517C15.2682 66.9593 14.1149 64.9323 14.6412 62.3804C15.1674 59.8286 17.0286 58.4232 19.4163 58.9156C21.7741 59.4019 22.9424 61.432 22.4161 63.9838ZM20.4313 63.5745C20.7422 62.0673 20.2709 61.41 18.9577 61.1392C17.6445 60.8684 16.9218 61.2794 16.611 62.7867C16.2971 64.3088 16.8012 64.9573 18.1145 65.2281C19.4277 65.4989 20.1174 65.0967 20.4313 63.5745Z" fill="#0D0D0D"/>
<path d="M24.1117 55.0333C23.2547 57.1357 21.5042 57.8372 19.5148 57.0261C17.5394 56.2208 16.793 54.4191 17.6558 52.3027C18.2425 50.8635 19.2832 50.0866 20.6028 50.3613L20.6488 50.2484L18.9416 49.5524L19.7468 47.577L25.7858 50.0389C28.255 51.0455 28.7458 52.9898 27.7162 55.5155C26.7844 57.8012 25.1818 58.8263 23.4039 58.1015L24.2668 55.9851C25.0569 56.3072 25.4233 56.0945 26.01 54.6553C26.5622 53.3008 26.4468 52.7766 25.0641 52.2129L23.4697 51.5629L23.4237 51.6758C24.3758 52.3272 24.756 53.453 24.1117 55.0333ZM20.3833 54.8955C21.4275 55.3212 22.05 54.8839 22.5907 53.5576C23.1429 52.203 23.0323 51.3846 22.0587 50.9877L21.9035 50.9244C20.944 50.5333 20.3011 51.061 19.7662 52.3732C19.2139 53.7277 19.3392 54.4699 20.3833 54.8955Z" fill="#0D0D0D"/>
<path d="M29.7909 45.9725C28.4232 48.1183 26.436 48.9116 24.1488 47.4539C22.0929 46.1435 21.7206 43.8644 23.0718 41.7443C24.4149 39.637 26.4126 38.9408 28.4299 40.2265C28.6612 40.3739 28.8119 40.5061 29.0139 40.671L25.6726 45.9135C26.6948 46.4927 27.4136 46.3004 28.208 45.054C28.9369 43.9104 28.8952 43.3237 28.3427 42.9716L28.2142 42.8897L29.4426 40.9623L29.584 41.0524C30.9845 41.945 31.093 43.9294 29.7909 45.9725ZM24.5506 42.741C23.8218 43.8846 23.896 44.6186 24.6739 45.2408L26.8523 41.8229C25.9715 41.3338 25.2713 41.6103 24.5506 42.741Z" fill="#0D0D0D"/>
<path d="M36.1745 37.4902L34.952 38.9307C33.7984 40.29 32.4595 40.5726 30.9957 39.3303L28.7187 37.3979L27.9398 38.3156L26.4992 37.0931L27.2781 36.1753L26.1512 35.2189L27.6301 33.4763L28.757 34.4327L30.3542 32.5507L31.7948 33.7732L30.1975 35.6552L32.2771 37.4201C32.8579 37.913 33.1963 37.8205 33.7188 37.2047L34.6062 36.1592L36.1745 37.4902Z" fill="#0D0D0D"/>
<path d="M37.8904 35.9132L36.1872 37.4374L29.3792 29.8301L31.0823 28.3059L34.3542 31.9619L34.4451 31.8807C33.763 30.753 33.6403 29.2678 35.0937 27.9672C36.6265 26.5954 38.2701 26.9239 39.4488 28.241L42.5683 31.7268L40.8652 33.2509L38.2029 30.2761C37.3494 29.3224 36.6358 29.3476 35.5685 30.3027C34.4217 31.329 34.4863 32.1095 35.3399 33.0633L37.8904 35.9132Z" fill="#0D0D0D"/>
<path d="M46.9534 29.1703C44.7897 30.5096 42.6552 30.3615 41.2277 28.0553C39.9445 25.9824 40.5985 23.7676 42.7363 22.4444C44.861 21.1291 46.9629 21.3692 48.222 23.4033C48.3664 23.6365 48.4447 23.8209 48.5551 24.0572L43.2691 27.3293C43.9385 28.2948 44.6695 28.4336 45.9262 27.6557C47.0793 26.942 47.2965 26.3954 46.9517 25.8383L46.8715 25.7087L48.8148 24.5058L48.9031 24.6483C49.7772 26.0605 49.0134 27.8952 46.9534 29.1703ZM43.6357 23.9843C42.4826 24.698 42.2309 25.3914 42.6615 26.2897L46.1077 24.1565C45.5266 23.3335 44.7758 23.2785 43.6357 23.9843Z" fill="#0D0D0D"/>
<path d="M53.5936 25.5449L51.497 26.4549L48.4576 19.4523L50.4005 18.609L51.2074 20.468L51.3332 20.4134C51.0374 19.1963 51.4021 18.0082 52.8138 17.3954C54.3793 16.716 55.4894 17.5132 56.0839 18.8829L56.5874 20.0431L54.4908 20.9531L54.1754 20.2262C53.8417 19.4575 53.3886 19.2555 52.536 19.6256C51.5995 20.032 51.4521 20.6109 51.8343 21.4915L53.5936 25.5449Z" fill="#0D0D0D"/>
<path d="M62.5764 15.9674L62.0181 17.4104L60.534 16.7203L61.2801 15.3651L61.212 15.2541L59.6856 15.1465L59.8835 13.525L61.4176 13.8329L61.5049 13.7228L61.1073 12.2323L62.7079 11.922L62.8961 13.4531L63.0182 13.5226L64.344 12.6758L65.1185 14.1087L63.7101 14.7698L63.6884 14.8982L64.9019 15.8735L63.7711 17.0861L62.741 15.9355L62.5764 15.9674Z" fill="#0D0D0D"/>
</svg>
