<svg width="50" height="50" viewBox="0 0 50 50" fill="none" xmlns="http://www.w3.org/2000/svg">
<circle cx="25" cy="25" r="25" fill="#FED403"/>
<mask id="mask0_291_37406" style="mask-type:alpha" maskUnits="userSpaceOnUse" x="0" y="0" width="50" height="50">
<circle cx="25" cy="25" r="25" fill="#E4ED64"/>
</mask>
<g mask="url(#mask0_291_37406)">
<path d="M28.501 26.001C28.501 21.8589 25.1431 18.501 21.001 18.501C16.8589 18.501 13.501 21.8589 13.501 26.001V50.501H28.501V26.001ZM31.001 53.001H11.001V26.001C11.001 20.4782 15.4782 16.001 21.001 16.001C26.5239 16.001 31.001 20.4782 31.001 26.001V53.001Z" fill="#0D0D0D"/>
<path d="M36.5011 26.001C36.5011 21.8589 33.1432 18.501 29.0011 18.501C24.8589 18.501 21.5011 21.8589 21.5011 26.001V50.501H36.5011V26.001ZM39.0011 53.001H19.0011V26.001C19.0011 20.4782 23.4782 16.001 29.0011 16.001C34.5239 16.001 39.0011 20.4782 39.0011 26.001V53.001Z" fill="#0D0D0D"/>
<path d="M26.0002 11.0682C26.0002 10.4357 25.5104 9.99988 25.0002 9.99988C24.4901 9.99988 24.0002 10.4357 24.0002 11.0682C24.0003 11.7007 24.4901 12.1366 25.0002 12.1366V14.1366L24.8459 14.1327C23.3118 14.0532 22.0817 12.7946 22.0042 11.2255L22.0002 11.0682C22.0002 9.37373 23.3434 7.99988 25.0002 7.99988C26.6571 7.99988 28.0002 9.37373 28.0002 11.0682L27.9963 11.2255C27.9162 12.8468 26.6055 14.1366 25.0002 14.1366V12.1366C25.5103 12.1366 26.0002 11.7007 26.0002 11.0682Z" fill="#0D0D0D"/>
</g>
</svg>
