<svg width="192" height="50" viewBox="0 0 192 50" fill="none" xmlns="http://www.w3.org/2000/svg">
<circle cx="25" cy="25" r="25" fill="#FED403"/>
<mask id="mask0_291_37405" style="mask-type:alpha" maskUnits="userSpaceOnUse" x="0" y="0" width="50" height="50">
<circle cx="25" cy="25" r="25" fill="#E4ED64"/>
</mask>
<g mask="url(#mask0_291_37405)">
<path d="M28.501 26.001C28.501 21.8589 25.1431 18.501 21.001 18.501C16.8589 18.501 13.501 21.8589 13.501 26.001V50.501H28.501V26.001ZM31.001 53.001H11.001V26.001C11.001 20.4782 15.4782 16.001 21.001 16.001C26.5239 16.001 31.001 20.4782 31.001 26.001V53.001Z" fill="#0D0D0D"/>
<path d="M36.5011 26.001C36.5011 21.8589 33.1432 18.501 29.0011 18.501C24.8589 18.501 21.5011 21.8589 21.5011 26.001V50.501H36.5011V26.001ZM39.0011 53.001H19.0011V26.001C19.0011 20.4782 23.4782 16.001 29.0011 16.001C34.5239 16.001 39.0011 20.4782 39.0011 26.001V53.001Z" fill="#0D0D0D"/>
<path d="M26.0002 11.0682C26.0002 10.4357 25.5104 9.99988 25.0002 9.99988C24.4901 9.99988 24.0002 10.4357 24.0002 11.0682C24.0003 11.7007 24.4901 12.1366 25.0002 12.1366V14.1366L24.8459 14.1327C23.3118 14.0532 22.0817 12.7946 22.0042 11.2255L22.0002 11.0682C22.0002 9.37373 23.3434 7.99988 25.0002 7.99988C26.6571 7.99988 28.0002 9.37373 28.0002 11.0682L27.9963 11.2255C27.9162 12.8468 26.6055 14.1366 25.0002 14.1366V12.1366C25.5103 12.1366 26.0002 11.7007 26.0002 11.0682Z" fill="#0D0D0D"/>
</g>
<path d="M63.848 35V15.4H72.36C73.592 15.4 74.6653 15.6147 75.58 16.044C76.4947 16.4733 77.204 17.08 77.708 17.864C78.212 18.648 78.464 19.572 78.464 20.636V20.972C78.464 22.148 78.184 23.1 77.624 23.828C77.064 24.556 76.3733 25.088 75.552 25.424V25.928C76.2987 25.9653 76.8773 26.2267 77.288 26.712C77.6987 27.1787 77.904 27.804 77.904 28.588V35H74.208V29.12C74.208 28.672 74.0867 28.308 73.844 28.028C73.62 27.748 73.2373 27.608 72.696 27.608H67.544V35H63.848ZM67.544 24.248H71.968C72.8453 24.248 73.5267 24.0147 74.012 23.548C74.516 23.0627 74.768 22.428 74.768 21.644V21.364C74.768 20.58 74.5253 19.9547 74.04 19.488C73.5547 19.0027 72.864 18.76 71.968 18.76H67.544V24.248ZM81.5394 35V15.4H94.1394V18.76H85.2354V23.436H93.3554V26.796H85.2354V31.64H94.3074V35H81.5394ZM97.0433 35V15.4H104.071L107.963 32.48H108.467V15.4H112.107V35H105.079L101.187 17.92H100.683V35H97.0433ZM123.417 35.392C120.953 35.392 118.993 34.72 117.537 33.376C116.081 32.0133 115.353 30.072 115.353 27.552V22.848C115.353 20.328 116.081 18.396 117.537 17.052C118.993 15.6893 120.953 15.008 123.417 15.008C125.881 15.008 127.841 15.6893 129.297 17.052C130.753 18.396 131.481 20.328 131.481 22.848V27.552C131.481 30.072 130.753 32.0133 129.297 33.376C127.841 34.72 125.881 35.392 123.417 35.392ZM123.417 32.088C124.798 32.088 125.872 31.6867 126.637 30.884C127.402 30.0813 127.785 29.008 127.785 27.664V22.736C127.785 21.392 127.402 20.3187 126.637 19.516C125.872 18.7133 124.798 18.312 123.417 18.312C122.054 18.312 120.981 18.7133 120.197 19.516C119.432 20.3187 119.049 21.392 119.049 22.736V27.664C119.049 29.008 119.432 30.0813 120.197 30.884C120.981 31.6867 122.054 32.088 123.417 32.088ZM137.98 35L132.996 15.4H136.804L140.948 32.62H141.34L145.484 15.4H149.292L144.308 35H137.98ZM151.649 35V15.4H164.249V18.76H155.345V23.436H163.465V26.796H155.345V31.64H164.417V35H151.649ZM165.921 35L171.661 25.116L165.977 15.4H170.177L174.069 22.484H174.573L178.465 15.4H182.665L176.981 25.116L182.721 35H178.521L174.573 27.748H174.069L170.121 35H165.921Z" fill="white"/>
<path d="M187.524 35.392C186.759 35.392 186.115 35.1493 185.592 34.664C185.088 34.16 184.836 33.516 184.836 32.732C184.836 31.948 185.088 31.3133 185.592 30.828C186.115 30.324 186.759 30.072 187.524 30.072C188.271 30.072 188.896 30.324 189.4 30.828C189.904 31.3133 190.156 31.948 190.156 32.732C190.156 33.516 189.904 34.16 189.4 34.664C188.896 35.1493 188.271 35.392 187.524 35.392Z" fill="#FED403"/>
</svg>
