<svg width="310" height="133" viewBox="0 0 310 133" fill="none" xmlns="http://www.w3.org/2000/svg">
<g clip-path="url(#clip0_959_4627)">
<path d="M301.222 125.051C295.455 116.338 287.125 109.547 277.001 105.511C276.36 105.255 276.04 104.486 276.296 103.846C280.461 93.788 281.678 83.1535 279.564 72.9035C277.449 62.5894 272.323 53.1081 264.698 45.4205C257.073 37.733 247.526 32.608 237.21 30.558C226.893 28.4439 216.257 29.597 206.261 33.8252C205.62 34.0814 204.851 33.7611 204.595 33.1205C200.494 23.0626 193.766 14.7344 185.052 8.90473C176.209 3.07501 165.893 0 155.064 0C144.235 0 133.855 3.07501 125.076 8.90473C116.362 14.6704 109.57 22.9986 105.533 33.1205C105.277 33.7611 104.508 34.0814 103.867 33.8252C93.8074 29.6611 83.1707 28.4439 72.9186 30.558C62.5382 32.672 53.055 37.7971 45.3659 45.4205C37.7408 53.044 32.5506 62.5894 30.5002 72.9035C28.3857 83.2176 29.5391 93.852 33.7681 103.846C34.0244 104.486 33.704 105.255 33.0632 105.511C23.0033 109.611 14.6734 116.338 8.8425 125.051C3.07565 133.891 0 144.205 0 155.032C0 165.859 3.07565 176.237 8.90657 185.013C14.6734 193.726 23.0033 200.517 33.1273 204.553C33.7681 204.809 34.0885 205.578 33.8322 206.218C29.6672 216.276 28.4498 226.911 30.5643 237.161C32.6788 247.475 37.8049 256.956 45.4299 264.644C53.055 272.267 62.6023 277.456 72.9186 279.506C83.2348 281.62 93.8714 280.467 103.867 276.239C104.508 275.983 105.277 276.303 105.533 276.944C109.634 287.001 116.362 295.33 125.076 301.159C133.855 306.925 144.171 310 155 310C165.829 310 176.209 306.925 184.988 301.095C193.702 295.33 200.494 287.001 204.531 276.88C204.787 276.239 205.556 275.919 206.197 276.175C216.257 280.339 226.893 281.556 237.146 279.442C247.462 277.328 256.945 272.203 264.634 264.579C272.259 256.956 277.449 247.411 279.5 237.097C281.614 226.782 280.461 216.148 276.232 206.154C275.976 205.514 276.296 204.745 276.937 204.489C286.997 200.389 295.327 193.662 301.158 184.949C306.924 176.173 310 165.859 310 155.032C310 144.205 307.053 133.827 301.222 125.051Z" fill="#D9D9D9"/>
</g>
<defs>
<clipPath id="clip0_959_4627">
<rect width="310" height="133" fill="white"/>
</clipPath>
</defs>
</svg>
