<svg width="350" height="173" viewBox="0 0 350 173" fill="none" xmlns="http://www.w3.org/2000/svg">
<path d="M340.089 141.186C333.578 131.349 324.173 123.683 312.743 119.126C312.019 118.837 311.658 117.969 311.947 117.245C316.649 105.89 318.024 93.883 315.637 82.3104C313.249 70.6654 307.462 59.9607 298.853 51.2813C290.244 42.6018 279.465 36.8155 267.817 34.5009C256.17 32.1141 244.161 33.416 232.875 38.1897C232.152 38.479 231.284 38.1174 230.994 37.3941C226.364 26.0384 218.768 16.6357 208.929 10.0537C198.946 3.47179 187.298 0 175.072 0C162.846 0 151.126 3.47179 141.215 10.0537C131.377 16.5633 123.708 25.9661 119.15 37.3941C118.861 38.1174 117.993 38.479 117.27 38.1897C105.912 33.4883 93.9024 32.1141 82.3274 34.5009C70.6077 36.8878 59.9008 42.6741 51.2195 51.2813C42.6106 59.8884 36.7507 70.6654 34.4357 82.3104C32.0484 93.9554 33.3506 105.962 38.1253 117.245C38.4146 117.969 38.0529 118.837 37.3295 119.126C25.9715 123.755 16.5668 131.349 9.98346 141.186C3.47251 151.168 0 162.813 0 175.036C0 187.26 3.47251 198.977 10.0558 208.886C16.5668 218.723 25.9715 226.39 37.4018 230.946C38.1253 231.236 38.487 232.104 38.1976 232.827C33.4953 244.183 32.1207 256.189 34.5081 267.762C36.8954 279.407 42.6829 290.112 51.2919 298.791C59.9008 307.398 70.68 313.257 82.3274 315.571C93.9748 317.958 105.984 316.656 117.27 311.883C117.993 311.593 118.861 311.955 119.15 312.678C123.78 324.034 131.377 333.437 141.215 340.019C151.126 346.528 162.774 350 175 350C187.226 350 198.946 346.528 208.857 339.946C218.696 333.437 226.364 324.034 230.922 312.606C231.211 311.883 232.079 311.521 232.803 311.81C244.161 316.512 256.17 317.886 267.745 315.499C279.392 313.112 290.099 307.326 298.78 298.719C307.389 290.112 313.249 279.335 315.564 267.69C317.952 256.045 316.649 244.038 311.875 232.755C311.585 232.031 311.947 231.163 312.671 230.874C324.029 226.245 333.433 218.651 340.017 208.814C346.527 198.905 350 187.26 350 175.036C350 162.813 346.672 151.095 340.089 141.186Z" fill="#D9D9D9"/>
</svg>
