<svg width="40" height="40" viewBox="0 0 40 40" fill="none" xmlns="http://www.w3.org/2000/svg">
<path d="M10.8334 5.5C13.348 5.50002 15.501 6.53402 17.0326 8.33496C18.5685 10.1412 19.4994 12.7454 19.4994 15.9023C19.4657 25.0469 12.6084 31.5707 2.54138 32.8311C2.16087 32.8787 2.0142 32.3511 2.36462 32.1953C6.35248 30.4221 8.54816 28.0946 8.8363 25.6299C9.04726 23.8239 8.07861 22.0832 6.63513 21.7363C5.35352 21.4283 4.23877 20.4633 3.43494 19.083C2.63289 17.7057 2.16644 15.9545 2.16638 14.167C2.16638 9.38052 6.04691 5.5 10.8334 5.5Z" stroke="#FED403"/>
<path d="M30.8334 5.5C33.348 5.50002 35.501 6.53402 37.0326 8.33496C38.5685 10.1412 39.4994 12.7454 39.4994 15.9023C39.4657 25.0469 32.6084 31.5707 22.5414 32.8311C22.1609 32.8787 22.0142 32.3511 22.3646 32.1953C26.3525 30.4221 28.5482 28.0946 28.8363 25.6299C29.0473 23.8239 28.0786 22.0832 26.6351 21.7363C25.3535 21.4283 24.2388 20.4633 23.4349 19.083C22.6329 17.7057 22.1664 15.9545 22.1664 14.167C22.1664 9.38052 26.0469 5.5 30.8334 5.5Z" stroke="#FED403"/>
</svg>
