<svg width="101" height="70" viewBox="0 0 101 70" fill="none" xmlns="http://www.w3.org/2000/svg">
<path d="M27.2998 37.916C40.0508 37.916 50.3961 45.0997 50.3965 53.958C50.3965 62.8156 40.051 70 27.2998 70H0C6.22563 66.0013 10.1553 60.2982 10.1553 53.958C10.1551 47.618 6.22549 41.9147 0 37.916H27.2998ZM77.7002 37.916C90.455 37.916 100.799 45.0997 100.8 53.958C100.8 62.8156 90.4552 70 77.7002 70H50.3994C56.6251 66.0013 60.5557 60.2983 60.5557 53.958C60.5555 47.6179 56.6249 41.9147 50.3994 37.916H77.7002ZM27.2998 0C40.0508 0 50.3962 7.18268 50.3965 16.041C50.3965 24.8995 40.051 32.083 27.2998 32.083L0 32.084C6.22566 28.0844 10.1553 22.3822 10.1553 16.042C10.1552 9.70189 6.2255 3.99869 0 0H27.2998ZM77.7002 0C90.455 0 100.8 7.18268 100.8 16.041C100.8 24.8995 90.4552 32.083 77.7002 32.083L50.3994 32.084C56.6251 28.0844 60.5557 22.3822 60.5557 16.042C60.5556 9.70185 56.625 3.9987 50.3994 0H77.7002Z" fill="#F9F9F9"/>
</svg>
